<?xml version='1.0' encoding='utf-8'?>
<svg xmlns="http://www.w3.org/2000/svg" enable-background="new 0 0 5000 5000" version="1.1" viewBox="0 0 5e3 5e3"> <path d="m4180.7 651.41c14.552 25.545 20.591 56.437 17.279 86.336-5.9727 53.93-43.697 101.98-93.685 122.41-52.04 21.266-110.54 9.4016-158.55-16.472-23.294-12.555-44.909-30.863-65.46-47.483-19.237-15.556-37.802-31.943-55.624-49.102-18.072-17.399-37.84-33.191-55.587-50.939-12.674-11.586-24.515-23.43-36.506-35.557-9.7566-9.8666-19.898-19.352-30.391-28.431-20.987-18.159-43.379-34.693-66.911-49.404-21.045-13.157-43.287-24.8-65.297-36.005-11.528-5.8691-23.783-10.138-35.992-14.338-11.98-4.1219-22.853-7.9343-35.554-8.9539-27.27-2.1888-23.524-8.0654 5.8567-9.1865 18.564-0.7086 33.567 4.3282 50.982 10.205 17.247 5.8206 35.117 9.5693 52.989 13.024 20.246 3.9127 40.562 7.4648 60.935 10.654 8.9761 1.405 17.971 2.9423 27.062 3.3651 8.7173 0.4054 17.175-1.5232 25.784-1.5232 12.752-1.746 38.489-3.7047 57.194-4.3525 30.407-1.053 34.624-0.562 39.826 4.6398 3.5532 3.5536 10.015 5.818 16.6 5.818 5.9297 0 16.508 2.5287 23.506 5.6188 6.998 3.09 15.112 6.46 18.032 7.487 5.957 2.097 7.1594 14.159 1.9324 19.386-4.5864 4.5873-0.7275 9.9695 7.1494 9.9699 8.7285 7e-4 17.779 7.7262 19.235 16.201 1.5557 9.0569-4.1458 18.122-11.752 23.279-17.105 11.596-38.508 12.022-58.269 11.242-12.87-0.5082-25.584-1.5091-37.968-4.9648-7.4255-2.072-14.33-3.6043-21.411-6.6823-8.3735-3.6398-16.747-7.2797-25.12-10.92-2.364-1.0277-17.745-9.4743-17.591-3.1131 0.021 0.8712 0.4397 1.6798 0.8921 2.4246 4.6116 7.594 13.938 13.565 20.4 19.59 7.7734 7.2476 15.442 14.607 23.049 22.029 15.383 15.007 30.512 30.271 45.763 45.412 57.178 56.764 120.89 132.79 207.25 138.56 28.837 1.9279 61.769 0.5839 85.733-16.403 25.281-17.92 45.964-42.946 56.134-72.433 13.386-38.809 6.772-85.037-20.62-115.62-27.392-30.579-75.8-41.826-112.04-22.534-26.652 14.189-44.143 42.551-49.153 72.326-4.001 23.774-0.1038 49.92 15.454 68.337 15.557 18.417 44.228 26.407 65.013 14.191 8.3875-4.9298 15.458-14.801 12.181-23.962-2.7173-7.597-12.873-11.412-19.92-7.4826-7.0474 3.929-9.1411 14.573-4.1072 20.879-14.77-1.4569-27.669-14.108-29.413-28.846s7.8469-30.05 21.869-34.913c26.639-9.2394 52.027 18.932 52.028 43.562 1e-3 47.889-53.764 65.937-92.187 44.842-46.948-25.776-48.456-101.48-24.394-142.73 13.875-23.787 36.789-41.739 62.623-50.93 23.908-8.5074 50.495-8.249 74.096 1.1802 24.942 9.965 44.008 28.122 56.65 50.315z"/> <path d="m2381.3 4.407c28.352 7.7737 54.466 25.347 73.267 48.83 33.911 42.358 41.213 103.01 20.311 152.8-21.76 51.835-71.517 84.813-123.76 100.46-25.349 7.5935-53.579 9.9314-79.862 12.712-24.602 2.6025-49.317 4.143-74.052 4.6121-25.082 0.4757-50.226 3.2872-75.325 3.2872-17.155 0.7692-33.903 0.7671-50.956 0.6705-13.876-0.0778-27.754 0.3862-41.594 1.3857-27.68 1.9996-55.205 6.1421-82.247 12.379-24.184 5.5777-48.144 13.072-71.631 20.712-12.302 4.0016-23.985 9.6487-35.588 15.311-11.386 5.5567-21.77 10.549-31.472 18.809-20.83 17.735-22.337 10.931-2.3544-10.637 12.626-13.628 26.796-20.675 43.266-28.834 16.312-8.08 31.598-18.065 46.678-28.26 17.083-11.55 33.96-23.403 50.621-35.554 7.3407-5.3535 14.788-10.627 21.515-16.756 6.4507-5.8774 11.067-13.221 17.155-19.309 7.7823-10.252 24.596-29.836 37.365-43.52 20.757-22.246 24.086-24.881 31.442-24.88 5.0251 3e-4 11.196-2.9678 15.852-7.6242 4.1931-4.193 13.461-9.8846 20.594-12.648 7.1333-2.7633 15.254-6.118 18.044-7.4561 5.6951-2.7293 15.074 4.9493 15.074 12.342 7e-4 6.4869 6.5352 7.5639 12.105 1.9944 6.1724-6.1714 18.035-7.1084 25.057-2.1452 7.5044 5.3041 9.8831 15.746 8.1509 24.771-3.8953 20.294-18.728 35.73-33.253 49.151-9.46 8.7412-19.158 17.024-30.358 23.337-6.7158 3.7854-12.681 7.5841-19.865 10.414-8.4946 3.3471-16.989 6.6942-25.484 10.041-2.3982 0.9448-19.247 5.8484-14.64 10.237 0.631 0.6011 1.4988 0.8768 2.3453 1.0837 8.6306 2.1089 19.448-0.2637 28.277-0.5727 10.622-0.3718 21.248-0.59 31.875-0.7213 21.489-0.2654 42.98-0.1701 64.47-0.2482 80.569-0.2927 179.38 8.413 244.52-48.568 21.754-19.028 44.09-43.264 49.024-72.221 5.2046-30.548 2.1338-62.869-11.525-90.911-17.977-36.907-55.342-64.919-96.333-67.172-40.992-2.2538-83.174 24.023-95.156 63.288-8.8123 28.879-1.1257 61.302 16.386 85.899 13.982 19.64 35.225 35.372 59.249 37.394 24.023 2.0221 49.947-12.602 56.006-35.936 2.4451-9.4167 0.4641-21.396-8.3301-25.557-7.2935-3.4505-17.172 1.0328-19.376 8.7944-2.2048 7.7613 3.8408 16.768 11.859 17.668-11.474 9.4138-29.541 9.5892-41.196 0.4006-11.655-9.1887-15.7-26.797-9.2236-40.151 12.303-25.37 50.176-23.401 67.592-5.9858 33.864 33.862 8.6077 84.641-33.478 96.894-51.423 14.971-106.02-37.495-118.18-83.68-7.009-26.631-3.4998-55.528 8.2676-80.294 10.89-22.921 29.872-41.538 53.228-51.559 24.682-10.59 51.004-11.234 75.636-4.4799z"/> <path d="m651.41 819.29c25.545-14.551 56.437-20.59 86.336-17.279 53.93 5.9727 101.98 43.697 122.41 93.684 21.266 52.04 9.4016 110.54-16.472 158.55-12.555 23.294-30.863 44.908-47.483 65.46-15.556 19.237-31.943 37.802-49.102 55.624-17.399 18.072-33.191 37.84-50.939 55.587-11.586 12.674-23.43 24.515-35.557 36.506-9.8666 9.7566-19.352 19.898-28.431 30.391-18.159 20.987-34.693 43.379-49.404 66.911-13.157 21.045-24.8 43.286-36.005 65.297-5.8691 11.528-10.138 23.783-14.338 35.992-4.1219 11.98-7.9343 22.853-8.9539 35.554-2.1888 27.27-8.0654 23.524-9.1865-5.8568-0.7086-18.564 4.3282-33.567 10.205-50.982 5.8206-17.247 9.5693-35.117 13.024-52.989 3.9127-20.246 7.4648-40.562 10.654-60.935 1.405-8.9762 2.9423-17.972 3.3651-27.062 0.4054-8.7174-1.5232-17.174-1.5232-25.784-1.746-12.752-3.7047-38.489-4.3525-57.194-1.053-30.407-0.562-34.625 4.6398-39.826 3.5536-3.5532 5.818-10.015 5.818-16.6 0-5.9298 2.5287-16.508 5.6188-23.506 3.09-6.9979 6.46-15.112 7.487-18.032 2.097-5.9568 14.159-7.1593 19.386-1.9323 4.5873 4.5865 9.9695 0.7275 9.9699-7.1494 7e-4 -8.7284 7.7262-17.779 16.201-19.235 9.0569-1.5557 18.122 4.1456 23.279 11.752 11.596 17.105 12.022 38.507 11.242 58.269-0.5082 12.87-1.5091 25.584-4.9648 37.968-2.072 7.4255-3.6043 14.33-6.6823 21.411-3.6398 8.3733-7.2797 16.747-10.92 25.12-1.0277 2.3638-9.4743 17.745-3.1131 17.591 0.8712-0.0211 1.6798-0.4398 2.4246-0.8921 7.594-4.6116 13.565-13.938 19.59-20.4 7.2476-7.7734 14.607-15.442 22.029-23.049 15.007-15.383 30.271-30.512 45.412-45.762 56.764-57.178 132.79-120.89 138.56-207.25 1.9279-28.837 0.5839-61.769-16.403-85.733-17.92-25.281-42.946-45.964-72.433-56.135-38.809-13.386-85.037-6.7717-115.62 20.62-30.579 27.392-41.826 75.8-22.534 112.04 14.189 26.652 42.551 44.143 72.326 49.153 23.774 4.0009 49.92 0.1037 68.337-15.454 18.417-15.557 26.407-44.228 14.191-65.013-4.9298-8.3875-14.801-15.458-23.962-12.181-7.597 2.7172-11.412 12.873-7.4826 19.92 3.929 7.0472 14.573 9.1409 20.879 4.1071-1.4569 14.77-14.108 27.669-28.846 29.413s-30.05-7.8469-34.913-21.869c-9.2394-26.639 18.932-52.027 43.562-52.028 47.889-0.0011 65.937 53.764 44.842 92.187-25.776 46.947-101.48 48.456-142.73 24.394-23.787-13.875-41.739-36.789-50.93-62.623-8.5074-23.908-8.249-50.495 1.1802-74.096 9.965-24.942 28.122-44.008 50.315-56.65z"/> <path d="m4.407 2618.7c7.7737-28.352 25.347-54.466 48.83-73.267 42.358-33.911 103.01-41.213 152.8-20.311 51.835 21.76 84.813 71.517 100.46 123.76 7.5935 25.349 9.9314 53.579 12.712 79.862 2.6025 24.602 4.143 49.317 4.6121 74.052 0.4757 25.082 3.2872 50.226 3.2872 75.325 0.7692 17.155 0.7671 33.903 0.6705 50.956-0.0778 13.876 0.3862 27.754 1.3857 41.594 1.9996 27.68 6.1421 55.205 12.379 82.247 5.5777 24.184 13.072 48.144 20.712 71.631 4.0016 12.302 9.6487 23.986 15.311 35.588 5.5567 11.386 10.549 21.77 18.809 31.472 17.735 20.83 10.931 22.337-10.637 2.3545-13.628-12.626-20.675-26.796-28.834-43.266-8.08-16.312-18.065-31.598-28.26-46.678-11.55-17.083-23.403-33.96-35.554-50.621-5.3535-7.3406-10.627-14.788-16.756-21.515-5.8774-6.4509-13.221-11.067-19.309-17.155-10.252-7.7822-29.836-24.596-43.52-37.365-22.246-20.757-24.881-24.086-24.88-31.442 3e-4 -5.0251-2.9678-11.196-7.6242-15.852-4.193-4.1931-9.8846-13.461-12.648-20.594-2.7633-7.1333-6.118-15.254-7.4561-18.044-2.7293-5.6951 4.9493-15.074 12.342-15.074 6.4869-7e-4 7.5639-6.5352 1.9944-12.105-6.1714-6.1724-7.1084-18.035-2.1452-25.057 5.3041-7.5044 15.746-9.8831 24.771-8.1509 20.294 3.8953 35.73 18.728 49.151 33.253 8.7412 9.46 17.024 19.158 23.337 30.358 3.7854 6.7158 7.5841 12.681 10.414 19.865 3.3471 8.4946 6.6942 16.989 10.041 25.484 0.9448 2.3982 5.8484 19.247 10.237 14.64 0.6011-0.6309 0.8768-1.4988 1.0837-2.3452 2.1089-8.6306-0.2637-19.448-0.5727-28.277-0.3718-10.622-0.59-21.248-0.7213-31.875-0.2654-21.489-0.1701-42.98-0.2482-64.47-0.2927-80.569 8.413-179.38-48.568-244.52-19.028-21.754-43.264-44.09-72.221-49.024-30.548-5.2046-62.869-2.1338-90.911 11.525-36.907 17.977-64.919 55.342-67.172 96.333-2.2538 40.992 24.023 83.174 63.288 95.156 28.879 8.8123 61.302 1.1257 85.899-16.386 19.64-13.982 35.372-35.225 37.394-59.249 2.0221-24.023-12.602-49.947-35.936-56.006-9.4167-2.4451-21.396-0.4641-25.557 8.3301-3.4505 7.2935 1.0328 17.172 8.7944 19.376 7.7613 2.2048 16.768-3.8408 17.668-11.859 9.4138 11.474 9.5892 29.541 0.4006 41.196-9.1887 11.655-26.797 15.7-40.151 9.2236-25.37-12.303-23.401-50.176-5.9858-67.592 33.862-33.864 84.641-8.6077 96.894 33.478 14.971 51.423-37.495 106.02-83.68 118.18-26.631 7.009-55.528 3.4998-80.294-8.2676-22.921-10.89-41.538-29.872-51.559-53.228-10.59-24.682-11.234-51.004-4.4799-75.636z"/> <path d="m819.29 4348.6c-14.551-25.545-20.59-56.436-17.279-86.335 5.9727-53.931 43.697-101.98 93.684-122.41 52.04-21.266 110.54-9.4014 158.55 16.473 23.294 12.555 44.908 30.863 65.46 47.482 19.237 15.556 37.802 31.943 55.624 49.102 18.072 17.399 37.84 33.191 55.587 50.939 12.674 11.586 24.515 23.43 36.506 35.557 9.7566 9.8667 19.898 19.352 30.391 28.431 20.987 18.159 43.379 34.693 66.911 49.404 21.045 13.157 43.286 24.8 65.297 36.005 11.528 5.8691 23.783 10.138 35.992 14.338 11.98 4.1216 22.853 7.9341 35.554 8.9536 27.27 2.189 23.524 8.0654-5.8568 9.1865-18.564 0.7085-33.567-4.3281-50.982-10.205-17.247-5.8208-35.117-9.5693-52.989-13.024-20.246-3.9126-40.562-7.4648-60.935-10.654-8.9762-1.4048-17.972-2.9419-27.062-3.3647-8.7174-0.4058-17.174 1.5229-25.784 1.5229-12.752 1.7461-38.489 3.7046-57.194 4.3525-30.407 1.0532-34.625 0.562-39.826-4.6396-3.5532-3.5537-10.015-5.8184-16.6-5.8184-5.9298 0-16.508-2.5283-23.506-5.6187-6.9979-3.0898-15.112-6.46-18.032-7.4868-5.9568-2.0972-7.1593-14.159-1.9323-19.386 4.5865-4.5869 0.7275-9.9692-7.1494-9.9697-8.7284-5e-4 -17.779-7.7261-19.235-16.201-1.5557-9.0566 4.1456-18.122 11.752-23.279 17.105-11.596 38.507-12.022 58.269-11.242 12.87 0.5078 25.584 1.5088 37.968 4.9648 7.4255 2.0718 14.33 3.604 21.411 6.6821 8.3733 3.6396 16.747 7.2798 25.12 10.92 2.3638 1.0273 17.745 9.4741 17.591 3.1128-0.0211-0.8711-0.4398-1.6797-0.8921-2.4248-4.6116-7.5938-13.938-13.565-20.4-19.589-7.7734-7.248-15.442-14.607-23.049-22.029-15.383-15.007-30.512-30.271-45.762-45.411-57.178-56.764-120.89-132.79-207.25-138.56-28.837-1.9277-61.769-0.5835-85.733 16.403-25.281 17.92-45.964 42.946-56.135 72.434-13.386 38.809-6.7717 85.037 20.62 115.62 27.392 30.579 75.8 41.826 112.04 22.535 26.652-14.19 44.143-42.551 49.153-72.326 4.0009-23.774 0.1037-49.92-15.454-68.337-15.557-18.417-44.228-26.407-65.013-14.191-8.3875 4.9297-15.458 14.801-12.181 23.962 2.7172 7.5972 12.873 11.412 19.92 7.4824 7.0472-3.9287 9.1409-14.573 4.1071-20.878 14.77 1.457 27.669 14.107 29.413 28.846s-7.8469 30.05-21.869 34.913c-26.639 9.2393-52.027-18.932-52.028-43.562-0.0011-47.889 53.764-65.936 92.187-44.842 46.947 25.776 48.456 101.48 24.394 142.73-13.875 23.787-36.789 41.739-62.623 50.931-23.908 8.5073-50.495 8.249-74.096-1.1802-24.942-9.9649-44.008-28.122-56.65-50.315z"/> <path d="m2618.7 4995.6c-28.352-7.7739-54.466-25.348-73.267-48.831-33.911-42.358-41.213-103.01-20.311-152.8 21.76-51.835 71.517-84.813 123.76-100.46 25.349-7.5933 53.579-9.9312 79.862-12.711 24.602-2.6025 49.317-4.1431 74.052-4.6123 25.082-0.4756 50.226-3.2871 75.325-3.2871 17.155-0.769 33.903-0.7671 50.956-0.6704 13.876 0.0776 27.754-0.3862 41.594-1.3857 27.68-2 55.205-6.1421 82.247-12.379 24.184-5.5776 48.144-13.072 71.631-20.712 12.302-4.002 23.986-9.6489 35.588-15.312 11.386-5.5566 21.77-10.549 31.472-18.809 20.83-17.735 22.337-10.931 2.3545 10.637-12.626 13.628-26.796 20.675-43.266 28.834-16.312 8.0801-31.598 18.065-46.678 28.26-17.083 11.55-33.96 23.403-50.621 35.554-7.3406 5.3535-14.788 10.627-21.515 16.756-6.4509 5.8774-11.067 13.221-17.155 19.309-7.7822 10.252-24.596 29.835-37.365 43.52-20.757 22.246-24.086 24.881-31.442 24.88-5.0251 0-11.196 2.9678-15.852 7.6245-4.1931 4.1929-13.461 9.8843-20.594 12.648-7.1333 2.7632-15.254 6.1182-18.044 7.4561-5.6951 2.729-15.074-4.9492-15.074-12.342-7e-4 -6.4868-6.5352-7.564-12.105-1.9941-6.1724 6.1714-18.035 7.1084-25.057 2.145-7.5044-5.3037-9.8831-15.746-8.1509-24.771 3.8953-20.294 18.728-35.73 33.253-49.151 9.46-8.7412 19.158-17.023 30.358-23.337 6.7158-3.7856 12.681-7.584 19.865-10.415 8.4946-3.3472 16.989-6.6943 25.484-10.042 2.3982-0.9448 19.247-5.8486 14.64-10.237-0.6309-0.6011-1.4988-0.877-2.3452-1.0835-8.6306-2.1089-19.448 0.2637-28.277 0.5723-10.622 0.3721-21.248 0.5903-31.875 0.7217-21.489 0.2651-42.98 0.1699-64.47 0.248-80.569 0.2925-179.38-8.4131-244.52 48.568-21.754 19.028-44.09 43.264-49.024 72.221-5.2046 30.548-2.1338 62.869 11.525 90.911 17.977 36.908 55.342 64.919 96.333 67.172 40.992 2.2539 83.174-24.023 95.156-63.288 8.8123-28.879 1.1257-61.302-16.386-85.899-13.982-19.64-35.225-35.372-59.249-37.394-24.023-2.022-49.947 12.602-56.006 35.936-2.4451 9.4165-0.4641 21.396 8.3301 25.557 7.2935 3.4507 17.172-1.0327 19.376-8.7944 2.2048-7.7612-3.8408-16.768-11.859-17.668 11.474-9.4141 29.541-9.5894 41.196-0.4009 11.655 9.189 15.7 26.797 9.2236 40.151-12.303 25.37-50.176 23.401-67.592 5.9858-33.864-33.862-8.6077-84.641 33.478-96.894 51.423-14.971 106.02 37.495 118.18 83.679 7.009 26.632 3.4998 55.528-8.2676 80.294-10.89 22.921-29.872 41.538-53.228 51.56-24.682 10.59-51.004 11.233-75.636 4.4799z"/> <path d="m4348.6 4180.7c-25.545 14.552-56.436 20.591-86.335 17.279-53.931-5.9727-101.98-43.697-122.41-93.685-21.266-52.04-9.4014-110.54 16.473-158.55 12.555-23.294 30.863-44.909 47.482-65.46 15.556-19.237 31.943-37.802 49.102-55.624 17.399-18.072 33.191-37.84 50.939-55.587 11.586-12.674 23.43-24.515 35.557-36.506 9.8667-9.7566 19.352-19.898 28.431-30.391 18.159-20.987 34.693-43.379 49.404-66.911 13.157-21.045 24.8-43.287 36.005-65.297 5.8691-11.528 10.138-23.783 14.338-35.992 4.1216-11.98 7.9341-22.853 8.9536-35.554 2.189-27.27 8.0654-23.524 9.1865 5.8567 0.7085 18.564-4.3281 33.567-10.205 50.982-5.8208 17.247-9.5693 35.117-13.024 52.989-3.9126 20.246-7.4648 40.562-10.654 60.935-1.4048 8.9761-2.9419 17.971-3.3647 27.062-0.4058 8.7173 1.5229 17.175 1.5229 25.784 1.7461 12.752 3.7046 38.489 4.3525 57.194 1.0532 30.407 0.562 34.624-4.6396 39.826-3.5537 3.5532-5.8184 10.015-5.8184 16.6 0 5.9297-2.5283 16.508-5.6187 23.506-3.0898 6.998-6.46 15.112-7.4868 18.032-2.0972 5.957-14.159 7.1594-19.386 1.9324-4.5869-4.5864-9.9692-0.7275-9.9697 7.1494-5e-4 8.7285-7.7261 17.779-16.201 19.235-9.0566 1.5557-18.122-4.1458-23.279-11.752-11.596-17.105-12.022-38.508-11.242-58.269 0.5078-12.87 1.5088-25.584 4.9648-37.968 2.0718-7.4255 3.604-14.33 6.6821-21.411 3.6396-8.3735 7.2798-16.747 10.92-25.12 1.0273-2.364 9.4741-17.745 3.1128-17.591-0.8711 0.021-1.6797 0.4397-2.4248 0.8921-7.5938 4.6116-13.565 13.938-19.589 20.4-7.248 7.7734-14.607 15.442-22.029 23.049-15.007 15.383-30.271 30.512-45.411 45.763-56.764 57.178-132.79 120.89-138.56 207.25-1.9277 28.837-0.5835 61.769 16.403 85.733 17.92 25.281 42.946 45.964 72.434 56.134 38.809 13.386 85.037 6.772 115.62-20.62 30.579-27.392 41.826-75.8 22.535-112.04-14.19-26.652-42.551-44.143-72.326-49.153-23.774-4.001-49.92-0.1038-68.337 15.454-18.417 15.557-26.407 44.228-14.191 65.013 4.9297 8.3875 14.801 15.458 23.962 12.181 7.5972-2.7173 11.412-12.873 7.4824-19.92-3.9287-7.0474-14.573-9.1411-20.878-4.1072 1.457-14.77 14.107-27.669 28.846-29.413s30.05 7.8469 34.913 21.869c9.2393 26.639-18.932 52.027-43.562 52.028-47.889 1e-3 -65.936-53.764-44.842-92.187 25.776-46.948 101.48-48.456 142.73-24.394 23.787 13.875 41.739 36.789 50.931 62.623 8.5073 23.908 8.249 50.495-1.1802 74.096-9.9649 24.942-28.122 44.008-50.315 56.65z"/> <path d="m4995.6 2381.3c-7.7739 28.352-25.348 54.466-48.831 73.267-42.358 33.911-103.01 41.213-152.8 20.311-51.835-21.76-84.813-71.517-100.46-123.76-7.5933-25.349-9.9312-53.579-12.711-79.862-2.6025-24.602-4.1431-49.317-4.6123-74.052-0.4756-25.082-3.2871-50.226-3.2871-75.325-0.769-17.155-0.7671-33.903-0.6704-50.956 0.0776-13.876-0.3862-27.754-1.3857-41.594-2-27.68-6.1421-55.205-12.379-82.247-5.5776-24.184-13.072-48.144-20.712-71.631-4.002-12.302-9.6489-23.985-15.312-35.588-5.5566-11.386-10.549-21.77-18.809-31.472-17.735-20.83-10.931-22.337 10.637-2.3544 13.628 12.626 20.675 26.796 28.834 43.266 8.0801 16.312 18.065 31.598 28.26 46.678 11.55 17.083 23.403 33.96 35.554 50.621 5.3535 7.3407 10.627 14.788 16.756 21.515 5.8774 6.4507 13.221 11.067 19.309 17.155 10.252 7.7823 29.835 24.596 43.52 37.365 22.246 20.757 24.881 24.086 24.88 31.442 0 5.0251 2.9678 11.196 7.6245 15.852 4.1929 4.1931 9.8843 13.461 12.648 20.594 2.7632 7.1333 6.1182 15.254 7.4561 18.044 2.729 5.6951-4.9492 15.074-12.342 15.074-6.4868 7e-4 -7.564 6.5352-1.9941 12.105 6.1714 6.1724 7.1084 18.035 2.145 25.057-5.3037 7.5044-15.746 9.8831-24.771 8.1509-20.294-3.8953-35.73-18.728-49.151-33.253-8.7412-9.46-17.023-19.158-23.337-30.358-3.7856-6.7158-7.584-12.681-10.415-19.865-3.3472-8.4946-6.6943-16.989-10.042-25.484-0.9448-2.3982-5.8486-19.247-10.237-14.64-0.6011 0.631-0.877 1.4988-1.0835 2.3453-2.1089 8.6306 0.2637 19.448 0.5723 28.277 0.3721 10.622 0.5903 21.248 0.7217 31.875 0.2651 21.489 0.1699 42.98 0.248 64.47 0.2925 80.569-8.4131 179.38 48.568 244.52 19.028 21.754 43.264 44.09 72.221 49.024 30.548 5.2046 62.869 2.1338 90.911-11.525 36.908-17.977 64.919-55.342 67.172-96.333 2.2539-40.992-24.023-83.174-63.288-95.156-28.879-8.8123-61.302-1.1257-85.899 16.386-19.64 13.982-35.372 35.225-37.394 59.249-2.022 24.023 12.602 49.947 35.936 56.006 9.4165 2.4451 21.396 0.4641 25.557-8.3301 3.4507-7.2935-1.0327-17.172-8.7944-19.376-7.7612-2.2048-16.768 3.8408-17.668 11.859-9.4141-11.474-9.5894-29.541-0.4009-41.196 9.189-11.655 26.797-15.7 40.151-9.2236 25.37 12.303 23.401 50.176 5.9858 67.592-33.862 33.864-84.641 8.6077-96.894-33.478-14.971-51.423 37.495-106.02 83.679-118.18 26.632-7.009 55.528-3.4998 80.294 8.2676 22.921 10.89 41.538 29.872 51.56 53.228 10.59 24.682 11.233 51.004 4.4799 75.636z"/> <path d="m4348.6 819.29c-25.545-14.551-56.436-20.59-86.335-17.279-53.931 5.9727-101.98 43.697-122.41 93.684-21.266 52.04-9.4014 110.54 16.473 158.55 12.555 23.294 30.863 44.908 47.482 65.46 15.556 19.237 31.943 37.802 49.102 55.624 17.399 18.072 33.191 37.84 50.939 55.587 11.586 12.674 23.43 24.515 35.557 36.506 9.8667 9.7566 19.352 19.898 28.431 30.391 18.159 20.987 34.693 43.379 49.404 66.911 13.157 21.045 24.8 43.286 36.005 65.297 5.8691 11.528 10.138 23.783 14.338 35.992 4.1216 11.98 7.9341 22.853 8.9536 35.554 2.189 27.27 8.0654 23.524 9.1865-5.8568 0.7085-18.564-4.3281-33.567-10.205-50.982-5.8208-17.247-9.5693-35.117-13.024-52.989-3.9126-20.246-7.4648-40.562-10.654-60.935-1.4048-8.9762-2.9419-17.972-3.3647-27.062-0.4058-8.7174 1.5229-17.174 1.5229-25.784 1.7461-12.752 3.7046-38.489 4.3525-57.194 1.0532-30.407 0.562-34.625-4.6396-39.826-3.5537-3.5532-5.8184-10.015-5.8184-16.6 0-5.9298-2.5283-16.508-5.6187-23.506-3.0898-6.9979-6.46-15.112-7.4868-18.032-2.0972-5.9568-14.159-7.1593-19.386-1.9323-4.5869 4.5865-9.9692 0.7275-9.9697-7.1494-5e-4 -8.7284-7.7261-17.779-16.201-19.235-9.0566-1.5557-18.122 4.1456-23.279 11.752-11.596 17.105-12.022 38.507-11.242 58.269 0.5078 12.87 1.5088 25.584 4.9648 37.968 2.0718 7.4255 3.604 14.33 6.6821 21.411 3.6396 8.3733 7.2798 16.747 10.92 25.12 1.0273 2.3638 9.4741 17.745 3.1128 17.591-0.8711-0.0211-1.6797-0.4398-2.4248-0.8921-7.5938-4.6116-13.565-13.938-19.589-20.4-7.248-7.7734-14.607-15.442-22.029-23.049-15.007-15.383-30.271-30.512-45.411-45.762-56.764-57.178-132.79-120.89-138.56-207.25-1.9277-28.837-0.5835-61.769 16.403-85.733 17.92-25.281 42.946-45.964 72.434-56.135 38.809-13.386 85.037-6.7717 115.62 20.62 30.579 27.392 41.826 75.8 22.535 112.04-14.19 26.652-42.551 44.143-72.326 49.153-23.774 4.0009-49.92 0.1037-68.337-15.454-18.417-15.557-26.407-44.228-14.191-65.013 4.9297-8.3875 14.801-15.458 23.962-12.181 7.5972 2.7172 11.412 12.873 7.4824 19.92-3.9287 7.0472-14.573 9.1409-20.878 4.1071 1.457 14.77 14.107 27.669 28.846 29.413s30.05-7.8469 34.913-21.869c9.2393-26.639-18.932-52.027-43.562-52.028-47.889-0.0011-65.936 53.764-44.842 92.187 25.776 46.947 101.48 48.456 142.73 24.394 23.787-13.875 41.739-36.789 50.931-62.623 8.5073-23.908 8.249-50.495-1.1802-74.096-9.9649-24.942-28.122-44.008-50.315-56.65z"/> <path d="m2618.7 4.407c-28.352 7.7737-54.466 25.347-73.267 48.83-33.911 42.358-41.213 103.01-20.311 152.8 21.76 51.835 71.517 84.813 123.76 100.46 25.349 7.5935 53.579 9.9314 79.862 12.712 24.602 2.6025 49.317 4.143 74.052 4.6121 25.082 0.4757 50.226 3.2872 75.325 3.2872 17.155 0.7692 33.903 0.7671 50.956 0.6705 13.876-0.0778 27.754 0.3862 41.594 1.3857 27.68 1.9996 55.205 6.1421 82.247 12.379 24.184 5.5777 48.144 13.072 71.631 20.712 12.302 4.0016 23.986 9.6487 35.588 15.311 11.386 5.5567 21.77 10.549 31.472 18.809 20.83 17.735 22.337 10.931 2.3545-10.637-12.626-13.628-26.796-20.675-43.266-28.834-16.312-8.08-31.598-18.065-46.678-28.26-17.083-11.55-33.96-23.403-50.621-35.554-7.3406-5.3535-14.788-10.627-21.515-16.756-6.4509-5.8774-11.067-13.221-17.155-19.309-7.7822-10.252-24.596-29.836-37.365-43.52-20.757-22.246-24.086-24.881-31.442-24.88-5.0251 3e-4 -11.196-2.9678-15.852-7.6242-4.1931-4.193-13.461-9.8846-20.594-12.648-7.1333-2.7633-15.254-6.118-18.044-7.4561-5.6951-2.7293-15.074 4.9493-15.074 12.342-7e-4 6.4869-6.5352 7.5639-12.105 1.9944-6.1724-6.1714-18.035-7.1084-25.057-2.1452-7.5044 5.3041-9.8831 15.746-8.1509 24.771 3.8953 20.294 18.728 35.73 33.253 49.151 9.46 8.7412 19.158 17.024 30.358 23.337 6.7158 3.7854 12.681 7.5841 19.865 10.414 8.4946 3.3471 16.989 6.6942 25.484 10.041 2.3982 0.9448 19.247 5.8484 14.64 10.237-0.6309 0.6011-1.4988 0.8768-2.3452 1.0837-8.6306 2.1089-19.448-0.2637-28.277-0.5727-10.622-0.3718-21.248-0.59-31.875-0.7213-21.489-0.2654-42.98-0.1701-64.47-0.2482-80.569-0.2927-179.38 8.413-244.52-48.568-21.754-19.028-44.09-43.264-49.024-72.221-5.2046-30.548-2.1338-62.869 11.525-90.911 17.977-36.907 55.342-64.919 96.333-67.172 40.992-2.2538 83.174 24.023 95.156 63.288 8.8123 28.879 1.1257 61.302-16.386 85.899-13.982 19.64-35.225 35.372-59.249 37.394-24.023 2.0221-49.947-12.602-56.006-35.936-2.4451-9.4167-0.4641-21.396 8.3301-25.557 7.2935-3.4505 17.172 1.0328 19.376 8.7944 2.2048 7.7613-3.8408 16.768-11.859 17.668 11.474 9.4138 29.541 9.5892 41.196 0.4006 11.655-9.1887 15.7-26.797 9.2236-40.151-12.303-25.37-50.176-23.401-67.592-5.9858-33.864 33.862-8.6077 84.641 33.478 96.894 51.423 14.971 106.02-37.495 118.18-83.68 7.009-26.631 3.4998-55.528-8.2676-80.294-10.89-22.921-29.872-41.538-53.228-51.559-24.682-10.59-51.004-11.234-75.636-4.4799z"/> <path d="m819.29 651.41c-14.551 25.545-20.59 56.437-17.279 86.336 5.9727 53.93 43.697 101.98 93.684 122.41 52.04 21.266 110.54 9.4016 158.55-16.472 23.294-12.555 44.908-30.863 65.46-47.483 19.237-15.556 37.802-31.943 55.624-49.102 18.072-17.399 37.84-33.191 55.587-50.939 12.674-11.586 24.515-23.43 36.506-35.557 9.7566-9.8666 19.898-19.352 30.391-28.431 20.987-18.159 43.379-34.693 66.911-49.404 21.045-13.157 43.286-24.8 65.297-36.005 11.528-5.8691 23.783-10.138 35.992-14.338 11.98-4.1219 22.853-7.9343 35.554-8.9539 27.27-2.1888 23.524-8.0654-5.8568-9.1865-18.564-0.7086-33.567 4.3282-50.982 10.205-17.247 5.8206-35.117 9.5693-52.989 13.024-20.246 3.9127-40.562 7.4648-60.935 10.654-8.9762 1.405-17.972 2.9423-27.062 3.3651-8.7174 0.4054-17.174-1.5232-25.784-1.5232-12.752-1.746-38.489-3.7047-57.194-4.3525-30.407-1.053-34.625-0.562-39.826 4.6398-3.5532 3.5536-10.015 5.818-16.6 5.818-5.9298 0-16.508 2.5287-23.506 5.6188-6.9979 3.09-15.112 6.46-18.032 7.487-5.9568 2.097-7.1593 14.159-1.9323 19.386 4.5865 4.5873 0.7275 9.9695-7.1494 9.9699-8.7284 7e-4 -17.779 7.7262-19.235 16.201-1.5557 9.0569 4.1456 18.122 11.752 23.279 17.105 11.596 38.507 12.022 58.269 11.242 12.87-0.5082 25.584-1.5091 37.968-4.9648 7.4255-2.072 14.33-3.6043 21.411-6.6823 8.3733-3.6398 16.747-7.2797 25.12-10.92 2.3638-1.0277 17.745-9.4743 17.591-3.1131-0.0211 0.8712-0.4398 1.6798-0.8921 2.4246-4.6116 7.594-13.938 13.565-20.4 19.59-7.7734 7.2476-15.442 14.607-23.049 22.029-15.383 15.007-30.512 30.271-45.762 45.412-57.178 56.764-120.89 132.79-207.25 138.56-28.837 1.9279-61.769 0.5839-85.733-16.403-25.281-17.92-45.964-42.946-56.135-72.433-13.386-38.809-6.7717-85.037 20.62-115.62 27.392-30.579 75.8-41.826 112.04-22.534 26.652 14.189 44.143 42.551 49.153 72.326 4.0009 23.774 0.1037 49.92-15.454 68.337-15.557 18.417-44.228 26.407-65.013 14.191-8.3875-4.9298-15.458-14.801-12.181-23.962 2.7172-7.597 12.873-11.412 19.92-7.4826 7.0472 3.929 9.1409 14.573 4.1071 20.879 14.77-1.4569 27.669-14.108 29.413-28.846s-7.8469-30.05-21.869-34.913c-26.639-9.2394-52.027 18.932-52.028 43.562-0.0011 47.889 53.764 65.937 92.187 44.842 46.947-25.776 48.456-101.48 24.394-142.73-13.875-23.787-36.789-41.739-62.623-50.93-23.908-8.5074-50.495-8.249-74.096 1.1802-24.942 9.965-44.008 28.122-56.65 50.315z"/> <path d="m4.407 2381.3c7.7737 28.352 25.347 54.466 48.83 73.267 42.358 33.911 103.01 41.213 152.8 20.311 51.835-21.76 84.813-71.517 100.46-123.76 7.5935-25.349 9.9314-53.579 12.712-79.862 2.6025-24.602 4.143-49.317 4.6121-74.052 0.4757-25.082 3.2872-50.226 3.2872-75.325 0.7692-17.155 0.7671-33.903 0.6705-50.956-0.0778-13.876 0.3862-27.754 1.3857-41.594 1.9996-27.68 6.1421-55.205 12.379-82.247 5.5777-24.184 13.072-48.144 20.712-71.631 4.0016-12.302 9.6487-23.985 15.311-35.588 5.5567-11.386 10.549-21.77 18.809-31.472 17.735-20.83 10.931-22.337-10.637-2.3544-13.628 12.626-20.675 26.796-28.834 43.266-8.08 16.312-18.065 31.598-28.26 46.678-11.55 17.083-23.403 33.96-35.554 50.621-5.3535 7.3407-10.627 14.788-16.756 21.515-5.8774 6.4507-13.221 11.067-19.309 17.155-10.252 7.7823-29.836 24.596-43.52 37.365-22.246 20.757-24.881 24.086-24.88 31.442 3e-4 5.0251-2.9678 11.196-7.6242 15.852-4.193 4.1931-9.8846 13.461-12.648 20.594-2.7633 7.1333-6.118 15.254-7.4561 18.044-2.7293 5.6951 4.9493 15.074 12.342 15.074 6.4869 7e-4 7.5639 6.5352 1.9944 12.105-6.1714 6.1724-7.1084 18.035-2.1452 25.057 5.3041 7.5044 15.746 9.8831 24.771 8.1509 20.294-3.8953 35.73-18.728 49.151-33.253 8.7412-9.46 17.024-19.158 23.337-30.358 3.7854-6.7158 7.5841-12.681 10.414-19.865 3.3471-8.4946 6.6942-16.989 10.041-25.484 0.9448-2.3982 5.8484-19.247 10.237-14.64 0.6011 0.631 0.8768 1.4988 1.0837 2.3453 2.1089 8.6306-0.2637 19.448-0.5727 28.277-0.3718 10.622-0.59 21.248-0.7213 31.875-0.2654 21.489-0.1701 42.98-0.2482 64.47-0.2927 80.569 8.413 179.38-48.568 244.52-19.028 21.754-43.264 44.09-72.221 49.024-30.548 5.2046-62.869 2.1338-90.911-11.525-36.907-17.977-64.919-55.342-67.172-96.333-2.2538-40.992 24.023-83.174 63.288-95.156 28.879-8.8123 61.302-1.1257 85.899 16.386 19.64 13.982 35.372 35.225 37.394 59.249 2.0221 24.023-12.602 49.947-35.936 56.006-9.4167 2.4451-21.396 0.4641-25.557-8.3301-3.4505-7.2935 1.0328-17.172 8.7944-19.376 7.7613-2.2048 16.768 3.8408 17.668 11.859 9.4138-11.474 9.5892-29.541 0.4006-41.196-9.1887-11.655-26.797-15.7-40.151-9.2236-25.37 12.303-23.401 50.176-5.9858 67.592 33.862 33.864 84.641 8.6077 96.894-33.478 14.971-51.423-37.495-106.02-83.68-118.18-26.631-7.009-55.528-3.4998-80.294 8.2676-22.921 10.89-41.538 29.872-51.559 53.228-10.59 24.682-11.234 51.004-4.4799 75.636z"/> <path d="m651.41 4180.7c25.545 14.552 56.437 20.591 86.336 17.279 53.93-5.9727 101.98-43.697 122.41-93.685 21.266-52.04 9.4016-110.54-16.472-158.55-12.555-23.294-30.863-44.909-47.483-65.46-15.556-19.237-31.943-37.802-49.102-55.624-17.399-18.072-33.191-37.84-50.939-55.587-11.586-12.674-23.43-24.515-35.557-36.506-9.8666-9.7566-19.352-19.898-28.431-30.391-18.159-20.987-34.693-43.379-49.404-66.911-13.157-21.045-24.8-43.287-36.005-65.297-5.8691-11.528-10.138-23.783-14.338-35.992-4.1219-11.98-7.9343-22.853-8.9539-35.554-2.1888-27.27-8.0654-23.524-9.1865 5.8567-0.7086 18.564 4.3282 33.567 10.205 50.982 5.8206 17.247 9.5693 35.117 13.024 52.989 3.9127 20.246 7.4648 40.562 10.654 60.935 1.405 8.9761 2.9423 17.971 3.3651 27.062 0.4054 8.7173-1.5232 17.175-1.5232 25.784-1.746 12.752-3.7047 38.489-4.3525 57.194-1.053 30.407-0.562 34.624 4.6398 39.826 3.5536 3.5532 5.818 10.015 5.818 16.6 0 5.9297 2.5287 16.508 5.6188 23.506 3.09 6.998 6.46 15.112 7.487 18.032 2.097 5.957 14.159 7.1594 19.386 1.9324 4.5873-4.5864 9.9695-0.7275 9.9699 7.1494 7e-4 8.7285 7.7262 17.779 16.201 19.235 9.0569 1.5557 18.122-4.1458 23.279-11.752 11.596-17.105 12.022-38.508 11.242-58.269-0.5082-12.87-1.5091-25.584-4.9648-37.968-2.072-7.4255-3.6043-14.33-6.6823-21.411-3.6398-8.3735-7.2797-16.747-10.92-25.12-1.0277-2.364-9.4743-17.745-3.1131-17.591 0.8712 0.021 1.6798 0.4397 2.4246 0.8921 7.594 4.6116 13.565 13.938 19.59 20.4 7.2476 7.7734 14.607 15.442 22.029 23.049 15.007 15.383 30.271 30.512 45.412 45.763 56.764 57.178 132.79 120.89 138.56 207.25 1.9279 28.837 0.5839 61.769-16.403 85.733-17.92 25.281-42.946 45.964-72.433 56.134-38.809 13.386-85.037 6.772-115.62-20.62-30.579-27.392-41.826-75.8-22.534-112.04 14.189-26.652 42.551-44.143 72.326-49.153 23.774-4.001 49.92-0.1038 68.337 15.454 18.417 15.557 26.407 44.228 14.191 65.013-4.9298 8.3875-14.801 15.458-23.962 12.181-7.597-2.7173-11.412-12.873-7.4826-19.92 3.929-7.0474 14.573-9.1411 20.879-4.1072-1.4569-14.77-14.108-27.669-28.846-29.413s-30.05 7.8469-34.913 21.869c-9.2394 26.639 18.932 52.027 43.562 52.028 47.889 1e-3 65.937-53.764 44.842-92.187-25.776-46.948-101.48-48.456-142.73-24.394-23.787 13.875-41.739 36.789-50.93 62.623-8.5074 23.908-8.249 50.495 1.1802 74.096 9.965 24.942 28.122 44.008 50.315 56.65z"/> <path d="m2381.3 4995.6c28.352-7.7739 54.466-25.348 73.267-48.831 33.911-42.358 41.213-103.01 20.311-152.8-21.76-51.835-71.517-84.813-123.76-100.46-25.349-7.5933-53.579-9.9312-79.862-12.711-24.602-2.6025-49.317-4.1431-74.052-4.6123-25.082-0.4756-50.226-3.2871-75.325-3.2871-17.155-0.769-33.903-0.7671-50.956-0.6704-13.876 0.0776-27.754-0.3862-41.594-1.3857-27.68-2-55.205-6.1421-82.247-12.379-24.184-5.5776-48.144-13.072-71.631-20.712-12.302-4.002-23.985-9.6489-35.588-15.312-11.386-5.5566-21.77-10.549-31.472-18.809-20.83-17.735-22.337-10.931-2.3544 10.637 12.626 13.628 26.796 20.675 43.266 28.834 16.312 8.0801 31.598 18.065 46.678 28.26 17.083 11.55 33.96 23.403 50.621 35.554 7.3407 5.3535 14.788 10.627 21.515 16.756 6.4507 5.8774 11.067 13.221 17.155 19.309 7.7823 10.252 24.596 29.835 37.365 43.52 20.757 22.246 24.086 24.881 31.442 24.88 5.0251 0 11.196 2.9678 15.852 7.6245 4.1931 4.1929 13.461 9.8843 20.594 12.648 7.1333 2.7632 15.254 6.1182 18.044 7.4561 5.6951 2.729 15.074-4.9492 15.074-12.342 7e-4 -6.4868 6.5352-7.564 12.105-1.9941 6.1724 6.1714 18.035 7.1084 25.057 2.145 7.5044-5.3037 9.8831-15.746 8.1509-24.771-3.8953-20.294-18.728-35.73-33.253-49.151-9.46-8.7412-19.158-17.023-30.358-23.337-6.7158-3.7856-12.681-7.584-19.865-10.415-8.4946-3.3472-16.989-6.6943-25.484-10.042-2.3982-0.9448-19.247-5.8486-14.64-10.237 0.631-0.6011 1.4988-0.877 2.3453-1.0835 8.6306-2.1089 19.448 0.2637 28.277 0.5723 10.622 0.3721 21.248 0.5903 31.875 0.7217 21.489 0.2651 42.98 0.1699 64.47 0.248 80.569 0.2925 179.38-8.4131 244.52 48.568 21.754 19.028 44.09 43.264 49.024 72.221 5.2046 30.548 2.1338 62.869-11.525 90.911-17.977 36.908-55.342 64.919-96.333 67.172-40.992 2.2539-83.174-24.023-95.156-63.288-8.8123-28.879-1.1257-61.302 16.386-85.899 13.982-19.64 35.225-35.372 59.249-37.394 24.023-2.022 49.947 12.602 56.006 35.936 2.4451 9.4165 0.4641 21.396-8.3301 25.557-7.2935 3.4507-17.172-1.0327-19.376-8.7944-2.2048-7.7612 3.8408-16.768 11.859-17.668-11.474-9.4141-29.541-9.5894-41.196-0.4009-11.655 9.189-15.7 26.797-9.2236 40.151 12.303 25.37 50.176 23.401 67.592 5.9858 33.864-33.862 8.6077-84.641-33.478-96.894-51.423-14.971-106.02 37.495-118.18 83.679-7.009 26.632-3.4998 55.528 8.2676 80.294 10.89 22.921 29.872 41.538 53.228 51.56 24.682 10.59 51.004 11.233 75.636 4.4799z"/> <path d="m4180.7 4348.6c14.552-25.545 20.591-56.436 17.279-86.335-5.9727-53.931-43.697-101.98-93.685-122.41-52.04-21.266-110.54-9.4014-158.55 16.473-23.294 12.555-44.909 30.863-65.46 47.482-19.237 15.556-37.802 31.943-55.624 49.102-18.072 17.399-37.84 33.191-55.587 50.939-12.674 11.586-24.515 23.43-36.506 35.557-9.7566 9.8667-19.898 19.352-30.391 28.431-20.987 18.159-43.379 34.693-66.911 49.404-21.045 13.157-43.287 24.8-65.297 36.005-11.528 5.8691-23.783 10.138-35.992 14.338-11.98 4.1216-22.853 7.9341-35.554 8.9536-27.27 2.189-23.524 8.0654 5.8567 9.1865 18.564 0.7085 33.567-4.3281 50.982-10.205 17.247-5.8208 35.117-9.5693 52.989-13.024 20.246-3.9126 40.562-7.4648 60.935-10.654 8.9761-1.4048 17.971-2.9419 27.062-3.3647 8.7173-0.4058 17.175 1.5229 25.784 1.5229 12.752 1.7461 38.489 3.7046 57.194 4.3525 30.407 1.0532 34.624 0.562 39.826-4.6396 3.5532-3.5537 10.015-5.8184 16.6-5.8184 5.9297 0 16.508-2.5283 23.506-5.6187 6.998-3.0898 15.112-6.46 18.032-7.4868 5.957-2.0972 7.1594-14.159 1.9324-19.386-4.5864-4.5869-0.7275-9.9692 7.1494-9.9697 8.7285-5e-4 17.779-7.7261 19.235-16.201 1.5557-9.0566-4.1458-18.122-11.752-23.279-17.105-11.596-38.508-12.022-58.269-11.242-12.87 0.5078-25.584 1.5088-37.968 4.9648-7.4255 2.0718-14.33 3.604-21.411 6.6821-8.3735 3.6396-16.747 7.2798-25.12 10.92-2.364 1.0273-17.745 9.4741-17.591 3.1128 0.021-0.8711 0.4397-1.6797 0.8921-2.4248 4.6116-7.5938 13.938-13.565 20.4-19.589 7.7734-7.248 15.442-14.607 23.049-22.029 15.383-15.007 30.512-30.271 45.763-45.411 57.178-56.764 120.89-132.79 207.25-138.56 28.837-1.9277 61.769-0.5835 85.733 16.403 25.281 17.92 45.964 42.946 56.134 72.434 13.386 38.809 6.772 85.037-20.62 115.62-27.392 30.579-75.8 41.826-112.04 22.535-26.652-14.19-44.143-42.551-49.153-72.326-4.001-23.774-0.1038-49.92 15.454-68.337 15.557-18.417 44.228-26.407 65.013-14.191 8.3875 4.9297 15.458 14.801 12.181 23.962-2.7173 7.5972-12.873 11.412-19.92 7.4824-7.0474-3.9287-9.1411-14.573-4.1072-20.878-14.77 1.457-27.669 14.107-29.413 28.846s7.8469 30.05 21.869 34.913c26.639 9.2393 52.027-18.932 52.028-43.562 1e-3 -47.889-53.764-65.936-92.187-44.842-46.948 25.776-48.456 101.48-24.394 142.73 13.875 23.787 36.789 41.739 62.623 50.931 23.908 8.5073 50.495 8.249 74.096-1.1802 24.942-9.9649 44.008-28.122 56.65-50.315z"/> <path d="m4995.6 2618.7c-7.7739-28.352-25.348-54.466-48.831-73.267-42.358-33.911-103.01-41.213-152.8-20.311-51.835 21.76-84.813 71.517-100.46 123.76-7.5933 25.349-9.9312 53.579-12.711 79.862-2.6025 24.602-4.1431 49.317-4.6123 74.052-0.4756 25.082-3.2871 50.226-3.2871 75.325-0.769 17.155-0.7671 33.903-0.6704 50.956 0.0776 13.876-0.3862 27.754-1.3857 41.594-2 27.68-6.1421 55.205-12.379 82.247-5.5776 24.184-13.072 48.144-20.712 71.631-4.002 12.302-9.6489 23.986-15.312 35.588-5.5566 11.386-10.549 21.77-18.809 31.472-17.735 20.83-10.931 22.337 10.637 2.3545 13.628-12.626 20.675-26.796 28.834-43.266 8.0801-16.312 18.065-31.598 28.26-46.678 11.55-17.083 23.403-33.96 35.554-50.621 5.3535-7.3406 10.627-14.788 16.756-21.515 5.8774-6.4509 13.221-11.067 19.309-17.155 10.252-7.7822 29.835-24.596 43.52-37.365 22.246-20.757 24.881-24.086 24.88-31.442 0-5.0251 2.9678-11.196 7.6245-15.852 4.1929-4.1931 9.8843-13.461 12.648-20.594 2.7632-7.1333 6.1182-15.254 7.4561-18.044 2.729-5.6951-4.9492-15.074-12.342-15.074-6.4868-7e-4 -7.564-6.5352-1.9941-12.105 6.1714-6.1724 7.1084-18.035 2.145-25.057-5.3037-7.5044-15.746-9.8831-24.771-8.1509-20.294 3.8953-35.73 18.728-49.151 33.253-8.7412 9.46-17.023 19.158-23.337 30.358-3.7856 6.7158-7.584 12.681-10.415 19.865-3.3472 8.4946-6.6943 16.989-10.042 25.484-0.9448 2.3982-5.8486 19.247-10.237 14.64-0.6011-0.6309-0.877-1.4988-1.0835-2.3452-2.1089-8.6306 0.2637-19.448 0.5723-28.277 0.3721-10.622 0.5903-21.248 0.7217-31.875 0.2651-21.489 0.1699-42.98 0.248-64.47 0.2925-80.569-8.4131-179.38 48.568-244.52 19.028-21.754 43.264-44.09 72.221-49.024 30.548-5.2046 62.869-2.1338 90.911 11.525 36.908 17.977 64.919 55.342 67.172 96.333 2.2539 40.992-24.023 83.174-63.288 95.156-28.879 8.8123-61.302 1.1257-85.899-16.386-19.64-13.982-35.372-35.225-37.394-59.249-2.022-24.023 12.602-49.947 35.936-56.006 9.4165-2.4451 21.396-0.4641 25.557 8.3301 3.4507 7.2935-1.0327 17.172-8.7944 19.376-7.7612 2.2048-16.768-3.8408-17.668-11.859-9.4141 11.474-9.5894 29.541-0.4009 41.196 9.189 11.655 26.797 15.7 40.151 9.2236 25.37-12.303 23.401-50.176 5.9858-67.592-33.862-33.864-84.641-8.6077-96.894 33.478-14.971 51.423 37.495 106.02 83.679 118.18 26.632 7.009 55.528 3.4998 80.294-8.2676 22.921-10.89 41.538-29.872 51.56-53.228 10.59-24.682 11.233-51.004 4.4799-75.636z"/> <path d="m3328.4 500.03c0.3508 0.0455 0.7019 0.0912 1.0527 0.1373 30.933 4.0579 61.899 11.827 92.468 18.341 30.763 6.5548 61.424 13.59 91.967 21.102 0.6821 0.1679 1.3647 0.3358 2.0466 0.5043 79.438 19.597 153.62 63.296 210.06 122.36 17.248 18.053 33.6 37.72 48.138 57.958 16.726 23.282 32.72 46.167 41.599 73.787 13.273 41.286 8.6653 91.73-25.276 122.19-9.1646 8.2253-20.181 15.6-31.388 20.67-41.239 18.65-93.993 9.0359-115.77-33.336-11.876-23.102-11.417-52.114 1.1826-74.829 14.082-25.387 43.886-42.28 72.812-42.28 19.13 0 22.821 0.9996 33.981 9.2072 23.94 17.606 27.531 50.656 7.4285 68.359-12.399 10.919-35.979 10.346-46.993-1.1418-9.1765-9.5709-8.1252-25.402-0.054-35.323 3.7092-4.5593 9.0664-7.8452 15.082-7.7385 7.0576 0.1252 15.32 4.558 14.894 12.625-0.2671 5.0532-4.7085 9.5321-4.4387 14.542 0.2388 4.4319 4.8723 6.6119 8.8635 5.849 4.1013-0.784 7.3286-4.4993 9.3035-7.9466 3.2559-5.684 2.5569-14.998 0.9954-21.276-3.9551-15.9-22.715-20.8-37.175-21.581-15.876-0.8575-32.167 3.981-44.514 14.114-19.348 15.877-27.858 43.786-20.662 67.758 20.254 67.466 115.6 50.264 144.4-0.4899 8.6104-15.171 8.0347-37.71 6.5393-54.687-1.1707-13.286-4.0342-26.418-8.4636-38.997-4.0447-11.488-10.075-21.62-16.659-31.945-11.244-17.634-23.929-34.35-37.89-49.923-14.127-15.758-26.957-32.578-42.33-47.323-56.341-54.04-126.26-89.992-201.41-109.25-20.16-5.1653-40.505-9.6054-60.981-13.32-39.328-7.1331-79.141-11.586-119.07-13.35-29.482-26.988-60.782-51.991-93.636-74.757-17.105-11.853-34.631-23.099-52.538-33.702-66.754-39.523-141.61-63.541-219.67-65.168-21.297-0.4439-42.262 2.3771-63.394 3.5304-20.883 1.1398-41.672 3.9904-62.092 8.5088-11.956 2.6456-23.385 5.5461-34.368 10.809-12.027 5.7625-23.337 13.024-33.56 21.59-13.062 10.948-29.407 26.478-34.046 43.294-15.521 56.256 39.736 135.84 101.76 102.46 22.039-11.862 35.756-37.614 33.302-62.522-1.5659-15.895-9.6646-30.837-21.497-41.456-10.777-9.6723-27.506-19.473-41.546-11.027-5.5427 3.3345-12.623 9.4267-14.34 15.748-1.0413 3.834-1.3862 8.7432 0.9595 12.198 2.2827 3.3617 7.1006 5.0967 10.403 2.1316 3.7334-3.3521 3.76-9.6597 7.1443-13.422 5.4023-6.0055 14.379-3.2975 19.458 1.6044 4.3291 4.1781 5.7935 10.29 5.1926 16.136-1.3079 12.722-11.759 24.66-25.015 24.939-15.911 0.3347-32.99-15.933-34.037-32.422-1.6965-26.733 24.213-47.563 53.59-43.085 13.695 2.0879 17.012 3.9906 30.538 17.518 20.454 20.454 29.583 53.474 21.589 81.383-7.1528 24.972-27.343 45.81-52.076 53.748-45.362 14.56-89.464-15.944-105.44-58.293-4.3398-11.508-6.915-24.514-7.5791-36.81-2.4592-45.541 29.952-84.469 68.531-104.28 25.809-13.252 53.301-18.124 81.591-22.76 24.59-4.0299 50.059-6.3742 75.021-6.9436 81.672-1.8626 165.03 19.694 235.06 62.008 0.6013 0.3631 1.2026 0.7272 1.8037 1.0907 26.91 16.285 53.565 32.991 79.952 50.109 26.222 17.01 53.612 33.413 78.354 52.416 0.2804 0.2156 0.5606 0.4313 0.8411 0.6473z"/> <path d="m4500 1671.6c0.2163 0.2803 0.4321 0.5608 0.6475 0.8414 19.003 24.742 35.406 52.132 52.416 78.354 17.118 26.388 33.823 53.043 50.109 79.952 0.3633 0.601 0.7275 1.2025 1.0908 1.8038 42.314 70.028 63.87 153.38 62.007 235.06-0.5693 24.962-2.9136 50.431-6.9438 75.021-4.6357 28.29-9.5083 55.782-22.76 81.591-19.808 38.579-58.736 70.99-104.28 68.531-12.297-0.6641-25.302-3.2393-36.81-7.5791-42.348-15.973-72.852-60.074-58.292-105.44 7.938-24.733 28.777-44.923 53.748-52.076 27.909-7.9939 60.929 1.1353 81.383 21.589 13.527 13.527 15.43 16.843 17.518 30.538 4.479 29.377-16.351 55.287-43.084 53.59-16.489-1.0464-32.756-18.126-32.422-34.037 0.2793-13.256 12.217-23.707 24.939-25.015 5.8467-0.6008 11.958 0.8635 16.137 5.1926 4.9019 5.0789 7.6099 14.056 1.604 19.458-3.7617 3.3843-10.069 3.4109-13.421 7.1443-2.9653 3.3027-1.23 8.1206 2.1313 10.403 3.4546 2.3457 8.3638 2.0007 12.198 0.9595 6.3213-1.717 12.414-8.7976 15.748-14.34 8.4463-14.04-1.3545-30.77-11.027-41.546-10.62-11.832-25.56-19.931-41.456-21.497-24.908-2.4539-50.66 11.263-62.522 33.302-33.384 62.027 46.2 117.28 102.46 101.76 16.816-4.6389 32.346-20.984 43.294-34.046 8.5664-10.222 15.828-21.533 21.59-33.56 5.2632-10.983 8.1636-22.412 10.809-34.368 4.5186-20.42 7.3691-41.21 8.5088-62.092 1.1533-21.132 3.9746-42.098 3.5308-63.394-1.6274-78.051-25.645-152.91-65.168-219.67-10.602-17.908-21.849-35.433-33.702-52.538-22.766-32.853-47.769-64.153-74.757-93.636-1.7637-39.93-6.2163-79.743-13.35-119.07-3.7139-20.476-8.1543-40.821-13.319-60.981-19.255-75.149-55.206-145.07-109.25-201.41-14.745-15.373-31.565-28.203-47.323-42.33-15.572-13.961-32.288-26.645-49.922-37.889-10.325-6.5836-20.458-12.614-31.945-16.659-12.579-4.4296-25.711-7.2931-38.997-8.4637-16.978-1.4954-39.517-2.0712-54.688 6.5392-50.754 28.804-67.956 124.15-0.4897 144.4 23.972 7.1964 51.88-1.314 67.758-20.662 10.132-12.347 14.971-28.638 14.113-44.514-0.7813-14.46-5.6802-33.22-21.581-37.175-6.2773-1.5614-15.592-2.2604-21.276 0.9956-3.4473 1.9747-7.1626 5.202-7.9463 9.3033-0.7632 3.9912 1.417 8.6249 5.8486 8.8634 5.0107 0.2698 9.4893-4.1715 14.542-4.4387 8.0669-0.4264 12.5 7.8361 12.624 14.894 0.1069 6.0154-3.1792 11.373-7.7383 15.082-9.9209 8.0713-25.752 9.1226-35.323-0.054-11.488-11.014-12.062-34.594-1.1421-46.993 17.704-20.103 50.754-16.511 68.359 7.4285 8.2075 11.16 9.207 14.851 9.207 33.981 0 28.926-16.893 58.73-42.28 72.812-22.715 12.6-51.727 13.058-74.829 1.1826-42.372-21.781-51.986-74.535-33.336-115.77 5.0691-11.206 12.444-22.223 20.669-31.388 30.464-33.941 80.908-38.549 122.19-25.276 27.62 8.8792 50.505 24.874 73.787 41.599 20.238 14.538 39.904 30.89 57.958 48.138 59.068 56.434 102.77 130.62 122.36 210.06 0.1685 0.682 0.3364 1.3647 0.5044 2.0468 7.5122 30.544 14.547 61.204 21.102 91.967 6.5137 30.57 14.283 61.536 18.341 92.469 0.0463 0.3507 0.0922 0.7016 0.1376 1.0526z"/> <path d="m4500 3328.4c-0.0454 0.3508-0.0913 0.7019-0.1372 1.0527-4.0576 30.933-11.827 61.899-18.341 92.468-6.5547 30.763-13.59 61.424-21.102 91.967-0.168 0.6821-0.3359 1.3647-0.5044 2.0466-19.597 79.438-63.296 153.62-122.36 210.06-18.053 17.248-37.72 33.6-57.958 48.138-23.282 16.726-46.167 32.72-73.787 41.599-41.286 13.273-91.73 8.6653-122.19-25.276-8.2253-9.1646-15.6-20.181-20.669-31.388-18.65-41.239-9.0359-93.993 33.336-115.77 23.102-11.876 52.114-11.417 74.829 1.1826 25.387 14.082 42.28 43.886 42.28 72.812 0 19.13-0.9995 22.821-9.207 33.981-17.606 23.94-50.656 27.531-68.359 7.4285-10.919-12.399-10.346-35.979 1.1421-46.993 9.5708-9.1765 25.402-8.1252 35.323-0.054 4.5591 3.7092 7.8452 9.0664 7.7383 15.082-0.125 7.0576-4.5576 15.32-12.624 14.894-5.0532-0.2671-9.5317-4.7085-14.542-4.4387-4.4316 0.2388-6.6118 4.8723-5.8486 8.8635 0.7837 4.1013 4.499 7.3286 7.9463 9.3035 5.6841 3.2559 14.998 2.5569 21.276 0.9954 15.9-3.9551 20.799-22.715 21.581-37.175 0.8574-15.876-3.981-32.167-14.113-44.514-15.877-19.348-43.786-27.858-67.758-20.662-67.467 20.254-50.264 115.6 0.4897 144.4 15.171 8.6104 37.71 8.0347 54.688 6.5393 13.286-1.1707 26.418-4.0342 38.997-8.4636 11.488-4.0447 21.62-10.075 31.945-16.659 17.634-11.244 34.35-23.929 49.922-37.89 15.758-14.127 32.578-26.957 47.323-42.33 54.04-56.341 89.991-126.26 109.25-201.41 5.165-20.16 9.6055-40.505 13.319-60.981 7.1333-39.328 11.586-79.141 13.35-119.07 26.988-29.482 51.991-60.782 74.757-93.636 11.852-17.105 23.099-34.631 33.702-52.538 39.523-66.754 63.541-141.61 65.168-219.67 0.4438-21.297-2.3774-42.262-3.5308-63.394-1.1396-20.883-3.9902-41.672-8.5088-62.092-2.6455-11.956-5.5459-23.385-10.809-34.368-5.7622-12.027-13.023-23.337-21.59-33.56-10.948-13.062-26.478-29.407-43.294-34.046-56.256-15.521-135.84 39.736-102.46 101.76 11.862 22.039 37.614 35.756 62.522 33.302 15.896-1.5659 30.836-9.6646 41.456-21.497 9.6724-10.777 19.473-27.506 11.027-41.546-3.3345-5.5427-9.4268-12.623-15.748-14.34-3.834-1.0413-8.7432-1.3862-12.198 0.9595-3.3613 2.2827-5.0967 7.1006-2.1313 10.403 3.3521 3.7334 9.6597 3.76 13.421 7.1443 6.0059 5.4023 3.2979 14.379-1.604 19.458-4.1782 4.3291-10.29 5.7935-16.137 5.1926-12.722-1.3079-24.66-11.759-24.939-25.015-0.3345-15.911 15.933-32.99 32.422-34.037 26.733-1.6965 47.564 24.213 43.084 53.59-2.0874 13.695-3.9902 17.012-17.518 30.538-20.454 20.454-53.474 29.583-81.383 21.589-24.971-7.1528-45.81-27.343-53.748-52.076-14.56-45.362 15.944-89.464 58.292-105.44 11.509-4.3398 24.514-6.915 36.81-7.5791 45.54-2.4592 84.469 29.952 104.28 68.531 13.252 25.809 18.124 53.301 22.76 81.591 4.0303 24.59 6.3745 50.059 6.9438 75.021 1.8628 81.672-19.693 165.03-62.007 235.06-0.3633 0.6013-0.7275 1.2026-1.0908 1.8037-16.286 26.91-32.991 53.565-50.109 79.952-17.01 26.222-33.413 53.612-52.416 78.354-0.2158 0.2804-0.4316 0.5606-0.6479 0.8411z"/> <path d="m3328.4 4500c-0.2805 0.2163-0.5608 0.4321-0.8416 0.6475-24.742 19.003-52.132 35.406-78.354 52.416-26.388 17.118-53.043 33.823-79.952 50.109-0.6011 0.3633-1.2024 0.7275-1.8037 1.0908-70.029 42.314-153.38 63.87-235.06 62.007-24.962-0.5693-50.431-2.9136-75.021-6.9438-28.29-4.6357-55.782-9.5083-81.591-22.76-38.579-19.808-70.99-58.736-68.531-104.28 0.6641-12.297 3.2393-25.302 7.5791-36.81 15.973-42.348 60.074-72.852 105.44-58.292 24.733 7.938 44.923 28.777 52.076 53.748 7.9939 27.909-1.1353 60.929-21.589 81.383-13.527 13.527-16.843 15.43-30.538 17.518-29.377 4.479-55.287-16.351-53.59-43.084 1.0464-16.489 18.126-32.756 34.037-32.422 13.256 0.2793 23.707 12.217 25.015 24.939 0.6008 5.8467-0.8635 11.958-5.1926 16.137-5.0789 4.9019-14.056 7.6099-19.458 1.604-3.3843-3.7617-3.4109-10.069-7.1443-13.421-3.3027-2.9653-8.1206-1.23-10.403 2.1313-2.3457 3.4546-2.0007 8.3638-0.9595 12.198 1.717 6.3213 8.7976 12.414 14.34 15.748 14.04 8.4463 30.77-1.3545 41.546-11.027 11.832-10.62 19.931-25.56 21.497-41.456 2.4539-24.908-11.263-50.66-33.302-62.522-62.027-33.384-117.28 46.2-101.76 102.46 4.6389 16.816 20.984 32.346 34.046 43.294 10.222 8.5664 21.533 15.828 33.56 21.59 10.983 5.2632 22.412 8.1636 34.368 10.809 20.42 4.5186 41.21 7.3691 62.092 8.5088 21.132 1.1533 42.098 3.9746 63.394 3.5308 78.051-1.6274 152.91-25.645 219.67-65.168 17.908-10.602 35.433-21.849 52.538-33.702 32.853-22.766 64.153-47.769 93.636-74.757 39.93-1.7637 79.743-6.2163 119.07-13.35 20.476-3.7139 40.822-8.1543 60.981-13.319 75.149-19.255 145.07-55.206 201.41-109.25 15.373-14.745 28.203-31.565 42.33-47.323 13.961-15.572 26.645-32.288 37.89-49.922 6.5835-10.325 12.614-20.458 16.659-31.945 4.4294-12.579 7.293-25.711 8.4636-38.997 1.4954-16.978 2.071-39.517-6.5393-54.688-28.804-50.754-124.15-67.956-144.4-0.4897-7.1963 23.972 1.3142 51.88 20.662 67.758 12.347 10.132 28.638 14.971 44.514 14.113 14.46-0.7813 33.22-5.6802 37.175-21.581 1.5615-6.2773 2.2605-15.592-0.9954-21.276-1.9749-3.4473-5.2021-7.1626-9.3035-7.9463-3.9912-0.7632-8.6248 1.417-8.8635 5.8486-0.2698 5.0107 4.1716 9.4893 4.4387 14.542 0.4265 8.0669-7.8359 12.5-14.894 12.624-6.0154 0.1069-11.373-3.1792-15.082-7.7383-8.0713-9.9209-9.1226-25.752 0.054-35.323 11.014-11.488 34.594-12.062 46.993-1.1421 20.103 17.704 16.511 50.754-7.4285 68.359-11.16 8.2075-14.851 9.207-33.981 9.207-28.926 0-58.73-16.893-72.812-42.28-12.6-22.715-13.059-51.727-1.1826-74.829 21.78-42.372 74.535-51.986 115.77-33.336 11.206 5.0691 22.223 12.444 31.388 20.669 33.941 30.464 38.549 80.908 25.276 122.19-8.8792 27.62-24.874 50.505-41.599 73.787-14.538 20.238-30.89 39.904-48.138 57.958-56.434 59.068-130.62 102.77-210.06 122.36-0.6819 0.1685-1.3645 0.3364-2.0466 0.5044-30.544 7.5122-61.204 14.547-91.967 21.102-30.57 6.5137-61.536 14.283-92.468 18.341-0.3502 0.0463-0.7013 0.0922-1.0522 0.1376z"/> <path d="m1671.6 4500c-0.351-0.0454-0.7019-0.0913-1.0527-0.1372-30.933-4.0576-61.899-11.827-92.469-18.341-30.763-6.5547-61.424-13.59-91.967-21.102-0.682-0.168-1.3647-0.3359-2.0468-0.5044-79.438-19.597-153.62-63.296-210.06-122.36-17.248-18.053-33.6-37.72-48.138-57.958-16.726-23.282-32.72-46.167-41.599-73.787-13.273-41.286-8.6652-91.73 25.276-122.19 9.1647-8.2253 20.182-15.6 31.388-20.669 41.239-18.65 93.993-9.0359 115.77 33.336 11.876 23.102 11.417 52.114-1.1826 74.829-14.082 25.387-43.886 42.28-72.812 42.28-19.13 0-22.821-0.9995-33.981-9.207-23.94-17.606-27.531-50.656-7.4285-68.359 12.399-10.919 35.979-10.346 46.993 1.1421 9.1765 9.5708 8.1252 25.402 0.054 35.323-3.7092 4.5591-9.0664 7.8452-15.082 7.7383-7.0576-0.125-15.32-4.5576-14.894-12.624 0.2672-5.0532 4.7085-9.5317 4.4387-14.542-0.2385-4.4316-4.8722-6.6118-8.8634-5.8486-4.1013 0.7837-7.3286 4.499-9.3033 7.9463-3.256 5.6841-2.557 14.998-0.9956 21.276 3.9553 15.9 22.715 20.799 37.175 21.581 15.876 0.8574 32.167-3.981 44.514-14.113 19.348-15.877 27.858-43.786 20.662-67.758-20.254-67.467-115.6-50.264-144.4 0.4897-8.6104 15.171-8.0345 37.71-6.5392 54.688 1.1707 13.286 4.0342 26.418 8.4637 38.997 4.0446 11.488 10.075 21.62 16.659 31.945 11.244 17.634 23.929 34.35 37.889 49.922 14.127 15.758 26.957 32.578 42.33 47.323 56.341 54.04 126.26 89.991 201.41 109.25 20.16 5.165 40.505 9.6055 60.981 13.319 39.328 7.1333 79.141 11.586 119.07 13.35 29.482 26.988 60.783 51.991 93.636 74.757 17.105 11.852 34.631 23.099 52.538 33.702 66.754 39.523 141.61 63.541 219.67 65.168 21.297 0.4438 42.262-2.3774 63.394-3.5308 20.883-1.1396 41.672-3.9902 62.092-8.5088 11.956-2.6455 23.385-5.5459 34.368-10.809 12.027-5.7622 23.337-13.023 33.56-21.59 13.062-10.948 29.407-26.478 34.046-43.294 15.521-56.256-39.736-135.84-101.76-102.46-22.039 11.862-35.756 37.614-33.302 62.522 1.5659 15.896 9.6646 30.836 21.497 41.456 10.777 9.6724 27.506 19.473 41.546 11.027 5.5427-3.3345 12.623-9.4268 14.34-15.748 1.0413-3.834 1.3862-8.7432-0.9595-12.198-2.2827-3.3613-7.1006-5.0967-10.403-2.1313-3.7334 3.3521-3.76 9.6597-7.1443 13.421-5.4023 6.0059-14.379 3.2979-19.458-1.604-4.3291-4.1782-5.7935-10.29-5.1926-16.137 1.3079-12.722 11.759-24.66 25.015-24.939 15.911-0.3345 32.99 15.933 34.037 32.422 1.6965 26.733-24.213 47.564-53.59 43.084-13.695-2.0874-17.012-3.9902-30.538-17.518-20.454-20.454-29.583-53.474-21.589-81.383 7.1528-24.971 27.343-45.81 52.076-53.748 45.362-14.56 89.464 15.944 105.44 58.292 4.3398 11.509 6.915 24.514 7.5791 36.81 2.4592 45.54-29.952 84.469-68.531 104.28-25.809 13.252-53.301 18.124-81.591 22.76-24.59 4.0303-50.059 6.3745-75.021 6.9438-81.672 1.8628-165.03-19.693-235.06-62.007-0.6013-0.3633-1.2029-0.7275-1.8038-1.0908-26.91-16.286-53.565-32.991-79.952-50.109-26.222-17.01-53.612-33.413-78.354-52.416-0.2805-0.2158-0.5611-0.4316-0.8413-0.6479z"/> <path d="m500.03 3328.4c-0.216-0.2805-0.4318-0.5608-0.6473-0.8416-19.003-24.742-35.406-52.132-52.416-78.354-17.118-26.388-33.824-53.043-50.109-79.952-0.3635-0.6011-0.7275-1.2024-1.0907-1.8037-42.314-70.029-63.87-153.38-62.008-235.06 0.5694-24.962 2.9137-50.431 6.9436-75.021 4.6361-28.29 9.5086-55.782 22.76-81.591 19.808-38.579 58.736-70.99 104.28-68.531 12.296 0.6641 25.302 3.2393 36.81 7.5791 42.348 15.973 72.853 60.074 58.293 105.44-7.9382 24.733-28.777 44.923-53.748 52.076-27.909 7.9939-60.929-1.1353-81.383-21.589-13.527-13.527-15.43-16.843-17.518-30.538-4.4789-29.377 16.352-55.287 43.085-53.59 16.489 1.0464 32.756 18.126 32.422 34.037-0.2789 13.256-12.216 23.707-24.939 25.015-5.8467 0.6008-11.958-0.8635-16.136-5.1926-4.9019-5.0789-7.6099-14.056-1.6044-19.458 3.762-3.3843 10.07-3.4109 13.422-7.1443 2.9651-3.3027 1.2301-8.1206-2.1316-10.403-3.4544-2.3457-8.3636-2.0007-12.198-0.9595-6.3214 1.717-12.414 8.7976-15.748 14.34-8.4465 14.04 1.3545 30.77 11.027 41.546 10.619 11.832 25.561 19.931 41.456 21.497 24.908 2.4539 50.66-11.263 62.522-33.302 33.384-62.027-46.2-117.28-102.46-101.76-16.816 4.6389-32.346 20.984-43.294 34.046-8.5666 10.222-15.828 21.533-21.59 33.56-5.263 10.983-8.1635 22.412-10.809 34.368-4.5184 20.42-7.369 41.21-8.5088 62.092-1.1532 21.132-3.9742 42.098-3.5304 63.394 1.6273 78.051 25.645 152.91 65.168 219.67 10.603 17.908 21.849 35.433 33.702 52.538 22.765 32.853 47.769 64.153 74.757 93.636 1.7639 39.93 6.2165 79.743 13.35 119.07 3.7141 20.476 8.1542 40.822 13.32 60.981 19.255 75.149 55.206 145.07 109.25 201.41 14.745 15.373 31.565 28.203 47.323 42.33 15.573 13.961 32.288 26.645 49.923 37.89 10.325 6.5835 20.458 12.614 31.945 16.659 12.579 4.4294 25.711 7.293 38.997 8.4636 16.978 1.4954 39.516 2.071 54.687-6.5393 50.754-28.804 67.956-124.15 0.4899-144.4-23.972-7.1963-51.88 1.3142-67.758 20.662-10.132 12.347-14.971 28.638-14.114 44.514 0.781 14.46 5.6802 33.22 21.581 37.175 6.2772 1.5615 15.592 2.2605 21.276-0.9954 3.4473-1.9749 7.1626-5.2021 7.9466-9.3035 0.7629-3.9912-1.4171-8.6248-5.849-8.8635-5.0103-0.2698-9.4893 4.1716-14.542 4.4387-8.0666 0.4265-12.499-7.8359-12.625-14.894-0.1067-6.0154 3.1793-11.373 7.7385-15.082 9.9208-8.0713 25.752-9.1226 35.323 0.054 11.488 11.014 12.061 34.594 1.1418 46.993-17.704 20.103-50.754 16.511-68.359-7.4285-8.2075-11.16-9.2072-14.851-9.2072-33.981 0-28.926 16.893-58.73 42.28-72.812 22.715-12.6 51.727-13.059 74.829-1.1826 42.372 21.78 51.986 74.535 33.336 115.77-5.069 11.206-12.444 22.223-20.67 31.388-30.463 33.941-80.908 38.549-122.19 25.276-27.62-8.8792-50.505-24.874-73.787-41.599-20.238-14.538-39.904-30.89-57.958-48.138-59.068-56.434-102.77-130.62-122.36-210.06-0.1685-0.6819-0.3364-1.3645-0.5043-2.0466-7.5124-30.544-14.548-61.204-21.102-91.967-6.5136-30.57-14.283-61.536-18.341-92.468-0.046-0.3502-0.0918-0.7013-0.1373-1.0522z"/> <path d="m500.03 1671.6c0.0455-0.351 0.0912-0.7019 0.1373-1.0527 4.0579-30.933 11.827-61.899 18.341-92.469 6.5548-30.763 13.59-61.424 21.102-91.967 0.1679-0.682 0.3358-1.3647 0.5043-2.0468 19.597-79.438 63.296-153.62 122.36-210.06 18.053-17.248 37.72-33.6 57.958-48.138 23.282-16.726 46.167-32.72 73.787-41.599 41.286-13.273 91.73-8.6652 122.19 25.276 8.2253 9.1647 15.6 20.182 20.67 31.388 18.65 41.239 9.0359 93.993-33.336 115.77-23.102 11.876-52.114 11.417-74.829-1.1826-25.387-14.082-42.28-43.886-42.28-72.812 0-19.13 0.9996-22.821 9.2072-33.981 17.606-23.94 50.656-27.531 68.359-7.4285 10.919 12.399 10.346 35.979-1.1418 46.993-9.5709 9.1765-25.402 8.1252-35.323 0.054-4.5593-3.7092-7.8452-9.0664-7.7385-15.082 0.1252-7.0576 4.558-15.32 12.625-14.894 5.0532 0.2672 9.5321 4.7085 14.542 4.4387 4.4319-0.2385 6.6119-4.8722 5.849-8.8634-0.784-4.1013-4.4993-7.3286-7.9466-9.3033-5.684-3.256-14.998-2.557-21.276-0.9956-15.9 3.9553-20.8 22.715-21.581 37.175-0.8575 15.876 3.981 32.167 14.114 44.514 15.877 19.348 43.786 27.858 67.758 20.662 67.466-20.254 50.264-115.6-0.4899-144.4-15.171-8.6104-37.71-8.0345-54.687-6.5392-13.286 1.1707-26.418 4.0342-38.997 8.4637-11.488 4.0446-21.62 10.075-31.945 16.659-17.634 11.244-34.35 23.929-49.923 37.889-15.758 14.127-32.578 26.957-47.323 42.33-54.04 56.341-89.992 126.26-109.25 201.41-5.1653 20.16-9.6054 40.505-13.32 60.981-7.1331 39.328-11.586 79.141-13.35 119.07-26.988 29.482-51.991 60.783-74.757 93.636-11.853 17.105-23.099 34.631-33.702 52.538-39.523 66.754-63.541 141.61-65.168 219.67-0.4439 21.297 2.3771 42.262 3.5304 63.394 1.1398 20.883 3.9904 41.672 8.5088 62.092 2.6456 11.956 5.5461 23.385 10.809 34.368 5.7625 12.027 13.024 23.337 21.59 33.56 10.948 13.062 26.478 29.407 43.294 34.046 56.256 15.521 135.84-39.736 102.46-101.76-11.862-22.039-37.614-35.756-62.522-33.302-15.895 1.5659-30.837 9.6646-41.456 21.497-9.6723 10.777-19.473 27.506-11.027 41.546 3.3345 5.5427 9.4267 12.623 15.748 14.34 3.834 1.0413 8.7432 1.3862 12.198-0.9595 3.3617-2.2827 5.0967-7.1006 2.1316-10.403-3.3521-3.7334-9.6597-3.76-13.422-7.1443-6.0055-5.4023-3.2975-14.379 1.6044-19.458 4.1781-4.3291 10.29-5.7935 16.136-5.1926 12.722 1.3079 24.66 11.759 24.939 25.015 0.3347 15.911-15.933 32.99-32.422 34.037-26.733 1.6965-47.563-24.213-43.085-53.59 2.0879-13.695 3.9906-17.012 17.518-30.538 20.454-20.454 53.474-29.583 81.383-21.589 24.972 7.1528 45.81 27.343 53.748 52.076 14.56 45.362-15.944 89.464-58.293 105.44-11.508 4.3398-24.514 6.915-36.81 7.5791-45.541 2.4592-84.469-29.952-104.28-68.531-13.252-25.809-18.124-53.301-22.76-81.591-4.0299-24.59-6.3742-50.059-6.9436-75.021-1.8626-81.672 19.694-165.03 62.008-235.06 0.3631-0.6013 0.7272-1.2029 1.0907-1.8038 16.285-26.91 32.991-53.565 50.109-79.952 17.01-26.222 33.413-53.612 52.416-78.354 0.2156-0.2805 0.4313-0.5611 0.6473-0.8413z"/> <path d="m1671.6 500.03c0.2803-0.216 0.5608-0.4318 0.8414-0.6473 24.742-19.003 52.132-35.406 78.354-52.416 26.388-17.118 53.043-33.824 79.952-50.109 0.601-0.3635 1.2025-0.7275 1.8038-1.0907 70.028-42.314 153.38-63.87 235.06-62.008 24.962 0.5694 50.431 2.9137 75.021 6.9436 28.29 4.6361 55.782 9.5086 81.591 22.76 38.579 19.808 70.99 58.736 68.531 104.28-0.6641 12.296-3.2393 25.302-7.5791 36.81-15.973 42.348-60.074 72.853-105.44 58.293-24.733-7.9382-44.923-28.777-52.076-53.748-7.9939-27.909 1.1353-60.929 21.589-81.383 13.527-13.527 16.843-15.43 30.538-17.518 29.377-4.4789 55.287 16.352 53.59 43.085-1.0464 16.489-18.126 32.756-34.037 32.422-13.256-0.2789-23.707-12.216-25.015-24.939-0.6008-5.8467 0.8635-11.958 5.1926-16.136 5.0789-4.9019 14.056-7.6099 19.458-1.6044 3.3843 3.762 3.4109 10.07 7.1443 13.422 3.3027 2.9651 8.1206 1.2301 10.403-2.1316 2.3457-3.4544 2.0007-8.3636 0.9595-12.198-1.717-6.3214-8.7976-12.414-14.34-15.748-14.04-8.4465-30.77 1.3545-41.546 11.027-11.832 10.619-19.931 25.561-21.497 41.456-2.4539 24.908 11.263 50.66 33.302 62.522 62.027 33.384 117.28-46.2 101.76-102.46-4.6389-16.816-20.984-32.346-34.046-43.294-10.222-8.5666-21.533-15.828-33.56-21.59-10.983-5.263-22.412-8.1635-34.368-10.809-20.42-4.5184-41.21-7.369-62.092-8.5088-21.132-1.1532-42.098-3.9742-63.394-3.5304-78.051 1.6273-152.91 25.645-219.67 65.168-17.908 10.603-35.433 21.849-52.538 33.702-32.853 22.765-64.153 47.769-93.636 74.757-39.93 1.7639-79.743 6.2165-119.07 13.35-20.476 3.7141-40.821 8.1542-60.981 13.32-75.149 19.255-145.07 55.206-201.41 109.25-15.373 14.745-28.203 31.565-42.33 47.323-13.961 15.573-26.645 32.288-37.889 49.923-6.5836 10.325-12.614 20.458-16.659 31.945-4.4296 12.579-7.2931 25.711-8.4637 38.997-1.4954 16.978-2.0712 39.516 6.5392 54.687 28.804 50.754 124.15 67.956 144.4 0.4899 7.1964-23.972-1.314-51.88-20.662-67.758-12.347-10.132-28.638-14.971-44.514-14.114-14.46 0.781-33.22 5.6802-37.175 21.581-1.5614 6.2772-2.2604 15.592 0.9956 21.276 1.9747 3.4473 5.202 7.1626 9.3033 7.9466 3.9912 0.7629 8.6249-1.4171 8.8634-5.849 0.2698-5.0103-4.1715-9.4893-4.4387-14.542-0.4264-8.0666 7.8361-12.499 14.894-12.625 6.0154-0.1067 11.373 3.1793 15.082 7.7385 8.0713 9.9208 9.1226 25.752-0.054 35.323-11.014 11.488-34.594 12.061-46.993 1.1418-20.103-17.704-16.511-50.754 7.4285-68.359 11.16-8.2075 14.851-9.2072 33.981-9.2072 28.926 0 58.73 16.893 72.812 42.28 12.6 22.715 13.058 51.727 1.1826 74.829-21.781 42.372-74.535 51.986-115.77 33.336-11.206-5.069-22.223-12.444-31.388-20.67-33.941-30.463-38.549-80.908-25.276-122.19 8.8792-27.62 24.874-50.505 41.599-73.787 14.538-20.238 30.89-39.904 48.138-57.958 56.434-59.068 130.62-102.77 210.06-122.36 0.682-0.1685 1.3647-0.3364 2.0468-0.5043 30.544-7.5124 61.204-14.548 91.967-21.102 30.57-6.5136 61.536-14.283 92.469-18.341 0.3507-0.046 0.7016-0.0918 1.0526-0.1373z"/> <path d="m4427.4 1701.6c11.15 4.0688 21.922 9.25 32.056 15.332 1.5093 0.9059 3.0049 1.8318 4.4849 2.777 37.925 24.218 67.136 59.944 91.801 97.58-26.997-19.838-54.438-39.072-82.296-57.684-25.295-16.9-52.507-33.814-82.892-35.304-7.7119-0.3782-15.436 0.3516-22.945 2.0654 6.5215-4.0973 12.5-9.0436 17.685-14.764 20.432-22.539 27.713-53.741 33.65-83.578 6.5381-32.858 12.341-65.863 17.404-98.98 9.1709 44.053 13.778 89.971 4.0859 133.91-0.3784 1.715-0.7808 3.427-1.2075 5.1349-2.8654 11.466-6.819 22.747-11.826 33.508z"/> <path d="m4427.4 3298.4c5.0068 10.761 8.9604 22.042 11.826 33.508 0.4268 1.708 0.8291 3.4199 1.2075 5.135 9.6924 43.942 5.085 89.859-4.0859 133.91-5.0625-33.118-10.866-66.122-17.404-98.98-5.9365-29.837-13.218-61.039-33.65-83.578-5.1855-5.7205-11.164-10.667-17.685-14.764 7.5088 1.7139 15.233 2.4436 22.945 2.0654 30.385-1.49 57.597-18.404 82.892-35.304 27.857-18.611 55.299-37.846 82.296-57.684-24.665 37.636-53.876 73.362-91.801 97.58-1.48 0.9451-2.9756 1.8711-4.4849 2.7769-10.133 6.0819-20.906 11.263-32.056 15.332z"/> <path d="m3298.4 4427.4c-4.0691 11.15-9.25 21.922-15.332 32.056-0.9058 1.5093-1.8318 3.0049-2.7769 4.4849-24.218 37.925-59.945 67.136-97.58 91.801 19.838-26.997 39.072-54.438 57.684-82.296 16.9-25.295 33.814-52.507 35.304-82.892 0.3782-7.7119-0.3516-15.436-2.0654-22.945 4.0972 6.5215 9.0435 12.5 14.764 17.685 22.539 20.432 53.741 27.713 83.578 33.65 32.858 6.5381 65.862 12.341 98.98 17.404-44.053 9.1709-89.971 13.778-133.91 4.0859-1.7151-0.3784-3.427-0.7808-5.135-1.2075-11.466-2.8654-22.747-6.819-33.508-11.826z"/> <path d="m1701.6 4427.4c-10.761 5.0068-22.042 8.9604-33.508 11.826-1.7079 0.4268-3.4199 0.8291-5.1349 1.2075-43.942 9.6924-89.859 5.085-133.91-4.0859 33.118-5.0625 66.122-10.866 98.98-17.404 29.836-5.9365 61.039-13.218 83.578-33.65 5.7205-5.1855 10.667-11.164 14.764-17.685-1.7139 7.5088-2.4436 15.233-2.0654 22.945 1.4901 30.385 18.404 57.597 35.304 82.892 18.611 27.857 37.846 55.299 57.684 82.296-37.636-24.665-73.362-53.876-97.58-91.801-0.9452-1.48-1.8711-2.9756-2.777-4.4849-6.0819-10.133-11.263-20.906-15.332-32.056z"/> <path d="m572.56 3298.4c-11.15-4.0691-21.923-9.25-32.056-15.332-1.5094-0.9058-3.0046-1.8318-4.4848-2.7769-37.925-24.218-67.136-59.945-91.801-97.58 26.997 19.838 54.438 39.072 82.296 57.684 25.296 16.9 52.508 33.814 82.892 35.304 7.7117 0.3782 15.437-0.3516 22.945-2.0654-6.5211 4.0972-12.499 9.0435-17.685 14.764-20.432 22.539-27.713 53.741-33.65 83.578-6.538 32.858-12.341 65.862-17.403 98.98-9.1713-44.053-13.779-89.971-4.086-133.91 0.3783-1.7151 0.7808-3.427 1.2076-5.135 2.8648-11.466 6.8185-22.747 11.826-33.508z"/> <path d="m572.56 1701.6c-5.0071-10.761-8.9609-22.042-11.826-33.508-0.4268-1.7079-0.8293-3.4199-1.2076-5.1349-9.6926-43.942-5.0853-89.859 4.086-133.91 5.0624 33.118 10.865 66.122 17.403 98.98 5.9367 29.836 13.218 61.039 33.65 83.578 5.1856 5.7205 11.164 10.667 17.685 14.764-7.5083-1.7139-15.233-2.4436-22.945-2.0654-30.385 1.4901-57.597 18.404-82.892 35.304-27.857 18.611-55.298 37.846-82.296 57.684 24.665-37.636 53.876-73.362 91.801-97.58 1.4802-0.9452 2.9754-1.8711 4.4848-2.777 10.134-6.0819 20.906-11.263 32.056-15.332z"/> <path d="m1701.6 572.56c4.0688-11.15 9.25-21.923 15.332-32.056 0.9059-1.5094 1.8318-3.0046 2.777-4.4848 24.218-37.925 59.944-67.136 97.58-91.801-19.838 26.997-39.072 54.438-57.684 82.296-16.9 25.296-33.814 52.508-35.304 82.892-0.3782 7.7117 0.3516 15.437 2.0654 22.945-4.0973-6.5211-9.0436-12.499-14.764-17.685-22.539-20.432-53.741-27.713-83.578-33.65-32.858-6.538-65.863-12.341-98.98-17.403 44.053-9.1713 89.971-13.779 133.91-4.086 1.715 0.3783 3.427 0.7808 5.1349 1.2076 11.466 2.8648 22.747 6.8185 33.508 11.826z"/> <path d="m3298.4 572.56c10.761-5.0071 22.042-8.9609 33.508-11.826 1.708-0.4268 3.4199-0.8293 5.135-1.2076 43.942-9.6926 89.859-5.0853 133.91 4.086-33.118 5.0624-66.122 10.865-98.98 17.403-29.837 5.9367-61.039 13.218-83.578 33.65-5.7205 5.1856-10.667 11.164-14.764 17.685 1.7139-7.5083 2.4436-15.233 2.0654-22.945-1.49-30.385-18.404-57.597-35.304-82.892-18.611-27.857-37.846-55.298-57.684-82.296 37.636 24.665 73.362 53.876 97.58 91.801 0.9451 1.4802 1.8711 2.9754 2.7769 4.4848 6.0819 10.134 11.263 20.906 15.332 32.056z"/> </svg>