<?xml version='1.0' encoding='utf-8'?>
<svg xmlns="http://www.w3.org/2000/svg" enable-background="new 0 0 4890.333 5000" version="1.1" viewBox="0 0 4890.3 5e3"> <path d="m576.6 852.46c-7.198-1.877-226.3-72.362-291.6-72.362-44.045 0-45.751-250.39-1.936-284.22 42.036-32.455 139.56 55.069 119.53 107.27-9.345 24.35-51.808 14.154-46.26-11.108 10.849-49.397-19.174-69.496-57.479-38.48-21.935 17.762-25.076 73.674-5.384 95.87 9.323 10.51 11.453 23.357 8.606 51.904-4.537 45.481 8.439 63.114 35.708 48.521 13.363-7.152 15.429-13.099 11.619-33.416-4.551-24.259-4.042-24.811 27.511-29.857 32.814-5.247 73.57-35.698 73.57-54.969 0-11.794 21.003-7.358 75.29-0.157 0-36.714 3.771-43.609-26.535-57.991-15.075-7.153-34.963-26.221-46.051-44.149-120.24-194.44-251.73-141.18-260.74 105.61-5.071 138.97 3.833 127.59-88.918 113.72-102.06-15.262-112-8.996-99.035 62.458 25.052 138.09 29.819 4050.4 51.091 4152.7 9.066 43.598 40.275 49.095 53.155 9.361l-2e-3 1e-3c19.34-59.657-21.166-906.03-17.514-4157.3l42.123 4.95c65.078 7.649 53.08-31.709 55.879 501.32 23.581 0 31.749 3.389 44.363-28.234 16.467-41.287 233.68-268.81 254.11-298.53 30.161-43.864 127.97-132.76 88.895-142.96zm-128.21 101.64c-82.771 90.388-175.93 197.69-185.99 214.23-20.076 33.002-22.727 19.954-22.661-111.54 2.968-0.742-5.202-85.983 9.762-210.62 75.916 8.589 79.883 7.198 202.87 39.926 36.971 9.839 36.133 24.195-3.977 67.995z"/> <path d="m790.36 506.66c27.866-21.809 25.455-36.429-8.941-54.216-37.108-19.189-59.94 12.195-59.94 82.396 0 18.407-1.287 18.933-34.993 14.314-37.502-5.14-38.987-1.855-20.701 45.794 3.312 8.633 0.158 11.993-11.262 11.993-8.724 0-15.863-3.208-15.863-7.126 0-2.654-4.959-12.234-263.52-278.51 0-72.931-6.111-143.9 51.626-189.54l19.9-15.729 2.548 21.463c7.082 59.638 68.978 46.028 68.978-15.166 0-81.375-154.43-110.66-214.36-40.641-33.996 39.716-34.7 67.598-3.011 119.1 17.424 28.317 21.359 40.492 15.108 46.744-12.838 12.837-51.238-27.776-57.42-60.727-16.235-86.537-110.71-169.24-210.88-184.62-85.811-13.173-28.668 34.185-3.849 111.6 58.374 182.13 163.81 99.732 199.89 139.61 25.431 28.101-18.082 41.216-61.543 18.55-31.129-16.235-44.165-14.175-73.546 11.623-77.837 68.343-56.557 230.82 28.15 214.93 48.619-9.122 56.466-65.312 9.897-70.874-41.531-4.96-13.334-40.711 57.791-73.272 49.828-22.813 54.092-18.775 127.68-9.579 295.31 290.7 299.44 288.11 265.42 296.65-10.203 2.561-20.596 11.096-23.094 18.966-3.465 10.917-11.68 14.31-34.645 14.31-73.621 0-120.54 57.96-78.724 97.247 25.357 23.822 44.937 18.095 49.61-14.513l3.764-26.266 45.174 0.13c81.99 0.234 326.18 148.65 432.68 262.97 21.503 23.081 69.772 25.328 73.913 3.44 1.27-6.709-38.871-60.029-90.688-120.46-192.14-224.09-242.79-325.48-185.15-370.58z"/> <path d="m4760.8 2.06c-70.709 0.956-3881.6 11.131-3945.2 10.533-43.404-0.408-45.525 5.266-31.449 84.078 6.944 38.879 12.626 72.534 12.626 74.787 0 4.233-73.059 11.912-193.34 20.321-169.67 11.862-192.21 176.58-36.64 267.75 22.868 13.402 33.506 25.249 36.61 40.765 7.27 36.345 56.024 40.166 46.161-10.853-3.728-19.289-0.075-24.811 31.912-48.225 21.348-15.628 37.685-34.105 39.945-45.174 6.476-31.735 19.225-46.286 45.209-51.6 69.305-14.174 29.743-82.619-42.489-37.976l-25.466 15.738-21.736-23.267c-30.951-33.134-77.239-28.66-102.51 9.908-23.495 35.858 11.086 73.531 41.9 45.645 25.899-23.439 53.106 7.854 28.35 32.609-40.231 40.233-144.85-46.317-120.52-99.709 18.001-39.51 208.21-36.255 291.22-38.072 81.373 380.38 71.739 283.84 71.739 315.32 0 33.653 24.227 37.54 40.803 6.547h5e-3c16.124-30.147 316.72-332.43 367.65-369.71 60.749-44.467 57.442-100.23-4.614-77.787-52.072 18.83-279.05 30.083-373.32 46.849-50.095 8.908-67.053-10.374-67.978-77.286-0.173-12.29 86.021-13.034 1548.9-13.396 2395.9-0.594 1853.8-13.607 2358.9-14.764 91.631-0.21 103.77-1.785 118.32-15.347 37.588-35.019 3.178-49.283-115.02-47.684zm-3876.5 242.13c3.874-6.491 64.66-11.31 180.99-26.044 135.7-17.187 135.24-21.052 12.143 101.61-58.896 58.693-110.68 113.44-115.08 121.66-8.283 15.478-26.096 19.912-33.281 8.285-11.718-18.954-50.326-196.2-44.767-205.51z"/> </svg>