<?xml version='1.0' encoding='utf-8'?>
<svg xmlns="http://www.w3.org/2000/svg" enable-background="new 0 0 5000 1071.1219" version="1.1" viewBox="0 0 5e3 1071.1"> <g transform="translate(1222.9 -13.062)"> <path d="m3060.4 488.86c54.656-0.496 89.543-12.777 118.47-41.706 23.376-23.375 29.858-42.823 29.9-89.62 0.0298-33.408-0.1184-33.805-12.246-33.805-6.75 0-18.815 3.9578-26.81 8.7954-36.799 22.264-155.98 41.924-164.25 115.08-4.1844 37.01 2.101 41.73 54.936 41.251zm-1.0093-79.873c13.678-14.235 27.89-22.368 58.343-33.387 54.205-19.614 58.425-19.252 58.425 5.0147 0 21.302-21.48 58.296-42.828 73.76-25.607 18.55-61.29 28.908-86.561 25.129-10.899-1.6301-19.816-4.4501-19.816-6.2666 0-14.01 17.534-48.739 32.438-64.25z"/> <path d="m2756.3 704.33c99.497-8.4209 182.81-69.992 200.3-148.02 6.2236-27.771 11.589-109.22 7.6177-115.64-6.7224-10.877-27.361-4.8425-47.766 13.966-19.081 17.588-34.475 25.821-132.57 70.904-58.447 26.86-101.76 74.875-108.47 120.25-2.615 17.676-1.4639 23.462 6.7444 33.897 17.531 22.287 34.67 27.983 74.148 24.642zm-42.151-56.606c14.108-76.639 89.662-105.53 163.32-135.47 21.652-8.8003 40.302-16.001 41.446-16.001 7.0476 0-4.9146 59.942-16.98 85.086-27.813 57.965-64.138 86.341-127.41 99.534-51.21 10.678-66.857 2.0858-60.37-33.15z"/> <path d="m1409 812.73c-29.457-9.4705-54.515-10.835-72.614-3.9532-16.444 6.2518-12.454 9.5471 13.319 11.002 26.567 1.4998 63.294 24.415 85.279 53.208 54.096 70.847 29.599 188.79-35.18 169.38-36.692-10.993-54.065-54.178-32.693-81.264 9.4277-11.948 10.994-12.446 18.307-5.8283 8.7759 7.942 23.582 9.7676 23.582 2.9076 0-7.0139-13.79-18.756-25.468-21.687-13.015-3.2668-36.462 8.0054-46.52 22.365-10.54 15.049-9.1622 47.986 2.9067 69.46 18.928 33.678 65.986 45.495 118.76 29.823 109.35-32.473 90.983-200.19-49.68-245.41z"/> <path d="m2331.8 857.12c-19.134-2.5383-22.919-1.8134-22.919 4.3903 0 11.395 15.261 17.084 45.829 17.084 133.62 0 297.59-162.34 295.67-292.75-0.7329-49.864-28.956-83.979-86.45-104.5-18.263-6.5179-33.45-8.208-61.548-6.8494-49.944 2.415-99.81 20.29-130.37 61.69-57.331 77.654 30.97 143.76 92.651 123.4 18.055-5.9587 35.393-24.444 35.393-37.736 0-21.674-31.746-30.455-51.697-14.3l-10.766 8.7178c16.437 5.2171 26.945 6.8921 14.904 18.934-14.445 14.444-24.305-3.041-29.777-15.808-6.0249-14.056-5.4163-30.378-0.3896-44.633 4.437-12.583 10.364-25.903 17.929-36.975 26.344-38.553 85.325-46.46 123.79-2.6563 85.767 97.683-90.144 340.84-232.24 321.99z"/> <path d="m1199.1 808.47c-3.7722-2.3857-19.061-4.3718-33.974-4.4091-54.627-0.1437-126.38 46.339-151.39 98.069-39.452 81.609 8.4719 158.08 100.26 159.98 42.2 0.8745 64.886-10.448 79.585-39.72 9.1361-18.194 10.019-24.109 6.1604-41.282-8.8207-39.258-43.499-57.317-68.519-35.682-12.214 10.562-12.729 12.077-5.109 15.038 4.6608 1.8108 13.506 0.5993 19.657-2.6925 16.355-8.7533 25.489 0.5917 25.489 26.08 0 25.824-6.7705 40.424-23.264 50.167-39.552 23.364-83.587-10.857-83.874-65.181-0.1494-28.199 16.18-75.323 34.884-100.67 22.687-30.743 47.582-46.207 76.938-47.791 26.124-1.4095 33.645-5.2774 23.158-11.91z"/> <path d="m3193.8 463.14c-2.7354 26.797 40.402 33.096 60.782 28.545 17.783-3.9713 41.191-20.824 30.663-41.872-13.922-27.831-87.171-28.544-91.444 13.327z"/> <path d="m2150.1 853.81c2.7078-7.2191 4.9216-26.103 4.9197-41.964-0.0042-32.082-16.504-73.631-42.05-105.88-46.699-58.962 42.106-133.08 82.021-90.007 21.02 22.681 20.61 49.318-1.0703 69.411-13.872 12.856-11.84 25.423 4.0859 25.269 16.68-0.1605 47.67-16.103 58.796-30.248 24.939-31.705 3.7429-77.76-43.496-94.508-24.279-8.6079-67.582-6.3668-95.412 4.9384-29.87 12.134-44.178 30.244-48.93 61.931-3.0671 20.455-3.8413 21.37-15.586 18.422-76.725-19.257-136.1-12.294-170.54 19.998-16.125 15.121-30.642 44.906-30.783 63.16-0.1667 21.639 13.807 45.443 30.858 52.568 20.642 8.625 57.698 8.185 70.58-0.8381 13.297-9.3137 13.552-28.008 0.478-35.005-8.109-4.3397-12.315-3.4933-23.413 4.7122-16.162 11.949-22.654 9.226-22.654-9.5004 0-87.361 135.86-107.1 179.37-2.9708 8.8743 21.238 9.261 68.555 0.7278 88.978-9.7852 23.419-34.458 48.874-60.778 62.705-21.772 11.441-28.165 12.465-77.354 12.391-48.024-0.072-58.078-1.6245-96.33-14.872-129.82-44.962-307.12-173.63-465.86-173.75-50.427-0.039-80.871 8.9354-97.548 28.755-20.518 24.384-2.9022 31.158 25.172 9.6797 15.839-12.118 19.321-12.795 63.386-12.328 41.213 0.4371 52.311 2.5084 95.585 17.838 99.305 35.181 250.17 131.9 343.96 159.08 149.78 43.404 297.25 4.3163 331.86-87.962z"/> <path d="m2281.6 799c17.191-8.7701 18.609-10.619 11.288-14.716-14.131-7.9084-50.089-1.5948-71.459 12.547-51.54 34.108-51.158 87.906 0.8555 120.15 69.448 43.046 166.18 29.386 278.92-39.392 104.04-63.47 158.84-96.907 281.76-96.907-4.052 48.862-6.1956 48.909 9.9702 65.075 15.327 15.327 28.531 17.477 57.653 9.3879 22.406-6.2233 47.407-34.041 43.17-48.035-4.8665-16.075-20.414-30.234-42.435-38.643-19.396-7.4072-20.011-8.2066-12.611-16.383 14.425-15.939 50.499-35.969 88.027-48.877 33.24-11.433 44.155-12.86 100.25-13.116 69.507-0.3165 101.24 5.8966 152.74 29.907 35.335 16.474 76.199 53.95 89.364 81.958 20.689 44.013 8.5547 95.911-29.149 124.67-17.802 13.579-21.788 12.378-21.788-6.5646 0-45.995-53.753 17.25-23.456 44.669 10.768 9.7451 45.535 10.619 67.589 1.6993 35.868-14.507 73.683-58.493 79.405-92.36 1.9631-11.621 0.1487-28.36-5.103-47.079-19.082-68.006-105.68-126.28-217.94-146.65-109.16-19.808-236.15 5.8721-300.22 60.712-51.074 43.719-93.862-21.869-330.41 115.64-101.63 59.076-159.77 71.72-210.59 45.795-46.215-23.577-43.978-78.911 4.1827-103.48zm528.56 0.3782c3.9338-17.911 13.688-20.525 28.631-7.6721 14.998 12.901 12.885 30.244-5.1208 42.042-11.272 7.3856-11.778 7.2057-19.001-6.7623-4.609-8.9128-6.3173-19.373-4.5089-27.608z"/> <path d="m3262.4 1040.1c-62.142 8.9698-275.8 11.626-426.63 5.3044-280.01-11.735-1068.9-26.796-1135.2-15.854-82.382 13.608 137.91 18.862 230.54 21.941 365.33 12.14 486.58-3.3536 925.61 29.903 42.593 3.2269 263.15 3.1624 317.06-0.0928 105.83-6.3904 238.53-29.494 311.16-54.176 114.29-38.838 163.15-66.029 220.72-122.84 53.017-52.314 67.999-80.312 70.765-132.24 1.7063-32.031 0.5698-38.175-11.292-61.027-15.59-30.035-38.473-49.506-72.428-61.627-31.198-11.137-78.916-9.3-104.75 4.0317-39.451 20.359-52.285 68.529-24.491 91.917 26.713 22.478 70.056 12.466 48.611-11.23-18.248-20.164 5.4949-60.627 35.574-60.627 17.585 0 48.335 27.768 55.847 50.431 15.638 47.179-3.4771 106.06-50.471 155.45-87.242 91.706-263.72 142.41-390.66 160.74z"/> <path d="m3337.8 437.28c35.975-15.268 4.8135-50.082-23.979-42.85-6.4827 1.6283-12.739 5.0173-16.618 10.461-15.814 22.19 22.605 40.025 40.597 32.389z"/> <path d="m3229.4 647.88c42.246-20.206 45.325-22.874 70.297-60.895 25.323-38.554 23.082-45.497-13.328-41.305-32.852 3.7829-62.09-11.306-92.772-20.16-46.012-13.278-105.56-17.458-150.3 2.6795-49.619 22.332-60.787 54.461-68.653 72.828l20.338 17.723c64.687 56.37 154.21 67.494 234.42 29.128zm-198.58-71.22c32.971-46.304 91.54-42.936 145.36-24.588 61 20.798 83.928 16.711 83.928 26.598 0 3.6384-10.09 16.706-22.424 29.039-30.824 30.824-66.219 44.055-110.46 41.29-48.606-3.0372-57.558-14.156-106.71-57.865l10.307-14.475z"/> <path d="m2127.7 463.14c-8.5439 25.373-6.7642 62.954 3.5862 75.722 8.1675 10.076 12.411 11.002 50.124 10.941 35.203-0.0573 45.348-1.9739 69.691-13.167 34.431-15.831 67.557-48.268 81.722-80.019 8.4307-18.898 10.458-32.221 10.708-70.349 0.2185-33.375-1.5508-49.286-6.0913-54.786-9.1318-11.061-16.718-9.6856-34.971 6.3409-44.446 39.024-150.06 51.948-174.77 125.32zm57.673-39.528c19.392-14.792 111.31-48.593 112.62-48.593 1.0276 0 16.826 41.131-13.867 99.517-21.818 41.502-56.792 63.676-100.43 63.676-26.711 0-33.129-5.655-36.709-32.349-3.2211-24.013 15.984-65.166 38.384-82.251z"/> <path d="m-363.44 641.65c88.498 79.567 229.13 87.061 229.13 12.209 0-48.566-46.968-102.18-115.61-131.97-82.888-35.97-115.61-53.312-131.26-69.568-16.558-17.194-38.918-22.679-43.524-10.676-3.9242 10.226 1.504 78.67 8.7596 110.45 8.7334 38.254 23.539 63.506 52.508 89.551zm-10.487-140.57c10.488 0.1938 87.725 30.679 120.72 47.646 45.102 23.196 81.597 71.684 81.597 108.41 0 21.589-10.309 28.044-43.847 27.455-76.22-1.3398-156.36-77.873-164.54-157.14-2.4682-23.915-1.868-26.521 6.0734-26.374z"/> <path d="m-50.554 737.96c39.485 53.034 78.658 86.375 134.79 114.73 57.782 29.183 154.09 32.664 143.55 5.188-4.8777-12.711-5.1431 2.0861-45.903 2.0163-125.47-0.2304-321.36-274.02-177.72-346.76 36.447-18.456 81.994 2.3661 105.14 48.066 14.666 28.956 15.814 41.634 5.5617 61.46-5.7017 11.026-9.8794 13.729-19.457 12.591-15.336-1.8228-18.908-11.061-5.6206-14.536 12.916-3.3777 9.4505-13.646-6.5099-19.287-14.755-5.2148-34.784 0.6742-42.136 12.389-3.8789 6.1801-2.8365 10.936 4.5989 20.982 13.327 18.005 31.903 25.979 60.522 25.979 93.565 0 105.42-104.73 18.297-161.69-113.08-73.934-344.24 11.712-175.12 238.87z"/> <path d="m-633.83 449.63c27.414 26.395 57.031 37.494 108.61 40.7 38.811 2.4124 40.858 2.0396 52.455-9.5575 17.728-17.728 16.07-37.432-5.5631-66.112-38.679-51.281-134.37-68.64-157.09-84.502-12.341-8.615-28.782-8.1284-32.268 0.9551-5.0941 13.275-2.9756 46.39 4.6194 72.209 5.5102 18.732 13.123 30.788 29.242 46.307zm50.776-75.061c57.344 19.961 85.368 45.215 92.592 83.439 3.5397 18.731 2.6216 19.749-20.63 22.867-44.722 5.9982-102.22-31.172-115.05-74.376-3.8934-13.111-7.0791-28.703-7.0791-34.649 0-13.727 3.4577-13.539 50.166 2.7187z"/> <path d="m-584.26 513c-24.741 3.6912-45.208 4.149-87.466 19.057-23.307 8.222-44.473 12.102-68.345 12.53-22.499 0.4033-35.241 2.5983-36.468 6.2822-2.8254 8.4775 37.524 68.344 53.942 80.035 43.333 30.856 103.96 45.589 154.74 37.605 56.806-8.9312 130.48-52.405 130.48-76.997 0-27.689-60.062-68.882-111-76.128-14.6-2.0768-30.742-3.1502-35.871-2.385zm95.43 64.558c6.1633 11.516 5.5423 13.158-11.824 31.258-66.054 68.845-167.93 42.342-211.92-19.439l-9.7818-13.738c22.419-10.015 48.027-22.609 88.717-33.143 19.003-4.9197 43.132-8.8043 53.621-8.6326 38.604 0.6312 78.327 19.666 91.187 43.695z"/> <path d="m207.32 459.61c17.106 34.834 50.389 63.552 81.838 77.884 21.463 9.7806 49.855 13.654 72.648 13.506 49.528-0.3192 60.889-18.382 56.585-56.419-6.6992-59.213-36.359-89.882-115.59-119.53-33.902-12.684-58.251-32.436-80.069-45.423-12.599-7.5005-14.316-7.358-21.926 1.8214-4.4916 5.4174-6.3992 21.75-6.3992 54.786-1e-4 41.993 1.3927 49.904 12.918 73.372zm81.261-66.361c66.233 26.134 90.814 47.878 104.04 92.038 3.359 11.212 2.8387 26.143-0.543 37.377-2.2013 7.3116-4.5343 10.575-11.906 13.307-7.2911 2.7025-15.282 3.2574-22.986 2.7172-86.073-6.0378-123.16-67.773-123.16-154.03 1e-4 -8.347 19.325-5.3016 54.546 8.5955z"/> <path d="m2087.3 370.29c38.069 23.528 82.949-1.9392 104.94-59.55 11.134-29.164 11.845-48.874 2.699-74.796-8.8564-25.102-41.211-78.526-59.077-97.547-23.428-24.944-29.871-21.004-47.91 29.304-40.999 114.34-41.204 177.53-0.6536 202.59zm19.2-144.78c9.5479-20.346 18.793-36.992 20.546-36.992s9.1379 10.935 16.412 24.3c18.656 34.278 22.02 87.783 7.1621 113.93-12.102 21.296-30.616 36.162-40.373 32.417-3.8416-1.4742-11.331-12.505-16.642-24.513-13.227-29.902-9.505-61.408 12.895-109.14z"/> <path d="m423.93 379.68c18.846 0 32.249-11.133 46.698-38.791 10.428-19.96 12.628-30.227 12.666-59.124 0.0407-30.568-2.1458-39.739-17.369-72.861-24.12-52.478-19.676-58.859-24.664-75.178-0.9798-3.2056-8.1526-5.8283-15.94-5.8283-12.078 0-17.569 4.624-37.372 31.473-59.126 80.163-65.812 136.01-22.212 185.54 21.144 24.02 39.131 34.767 58.193 34.767zm-27.395-160.85c7.8022-16.673 15.104-30.314 16.226-30.314 11.449 0 41.359 80.548 41.657 112.18 0.2618 27.781-14.112 60.336-26.639 60.336-10.602 0-30.547-19.004-40.576-38.662-13.148-25.772-9.829-62.596 9.3319-103.54z"/> <path d="m-1208.1 831.96c29.332 60.007 90.332 113.51 176 154.37 196.61 93.777 444.17 116.59 907.12 83.579 168.58-12.02 954.01-15.901 981.46-26.435 10.134-3.8887 8.6307-9.8687-3.4711-13.809-11.671-3.8002-496.03-3.7455-584 0.0657-30.774 1.3334-362.41 8.6062-389.33 9.752-338.06 14.386-494.24 14.347-592.16-0.146-180.65-26.739-341.28-97.441-400.96-176.49-54.809-72.594-55.187-145.29-0.9414-181.07 26.238-17.304 52.82-6.6098 62.311 25.067 5.3384 17.817 5.0026 19.674-5.0286 27.796-18.152 14.698-9.5747 24.332 19.202 21.567 68.172-6.5503 53.53-85.568-7.5934-108.24-23.434-8.6923-76.616-6.4866-101.89 4.2264-23.597 10.003-53.1 37.316-65.402 60.547-7.6896 14.52-10.041 27.171-10.088 53.939-0.0369 29.872 2.1163 39.388 14.771 65.277z"/> <path d="m-755.24 412.36c-3.2232-30.556-59.987-21.64-57.674 6.6093 2.518 30.749 60.842 23.426 57.674-6.6093z"/> <path d="m-656.5 476.85c18.677-29.391-29.661-51.722-52.45-49.469-15.959 1.5779-42.992 13.922-39.013 34.028 6.6419 33.564 72.352 45.517 91.464 15.442z"/> <path d="m1664.5 625.87c4.3519-4.3519 5.5953-3.001 5.5953 6.0793 0 16.429-26.6 40.575-53.676 48.724-27.975 8.4192-58.415 8.5871-89.614 0.4943-26.882-6.9732-39.415-3.6931-29.863 7.8159 9.913 11.945 49.864 18.444 97.935 15.931 114.1-5.9637 179.09-74.247 113-118.74-19.495-13.123-66.738-15.054-83.367-3.4065-12.387 8.6765-13.66 27.997-2.6461 40.167 8.7599 9.6795 34.147 11.425 42.64 2.9316z"/> <path d="m1832.3 272.16c26.149 21.736 29.787 52.948 16.904 145.01-12.846 91.794-2.3593 130.27 45.011 165.14 33.056 24.335 98.344 47.156 122.14 42.692 25.013-4.6926 43.386-30.843 53.294-52.334 11.066-24.005 11.471-51.978 8.4907-77.898-8.4478-73.479-55.109-131.06-113.45-173.26-25.711-18.595-42.888-17.259-72.254-59.898-36.339-52.762-79.843-47.448-87.674-34.778-4.6426 7.5117 8.9359 29.857 27.541 45.322zm73.965 125.01c6.8739-32.697 13.951-59.449 15.728-59.449 1.776 0 12.14 6.4547 23.031 14.344 14.488 10.495 42.198 39.067 47.07 45.834 17.008 23.629 37.131 67.113 42.108 98.119 5.6049 34.916 2.6196 59.876-10.487 87.675-12.68 26.893-24.618 29.264-56.246 11.168-32.521-18.607-58.541-44.71-70.014-70.238-10.886-24.222-9.9023-38.446 8.8101-127.45z"/> <path d="m998.71 576.71c66.345-0.8631 108.82-18.027 238.79-68.806l14.014 16.319c31.286 36.433 49.097 99.904 36.895 131.48-11.367 29.411-45.466 34.379-58.814 8.5674-11.589-22.41-9.1481-30.575 11.572-38.714 21.607-8.4875 23.22-14.193 7.0145-24.811-21.125-13.842-57.178 0.9036-67.3 27.525-2.9045 7.64-2.7639 17.869 0.4038 29.342 19.643 71.142 143.97 64.019 166.82-9.5584 6.217-20.02 6.1014-25.162-1.1893-52.961-11.889-45.331-37.769-77.345-64.802-108.22 39.691-16.584 29.348-19.08 91.935 8.3873 54.862 24.078 94.732 33.636 140.18 33.603 46.704-0.0327 67.864-5.9075 85.769-23.812 27.253-27.253 14.922-58.828-31.315-80.184-31.89-14.729-116.66-14.269-175.43 0.9528-41.092 10.643-41.502 10.656-53.621 1.7072-21.553-15.916-68.929-75.995-90.641-114.94-61.947-111.13-58.678-219.09 7.8634-259.67 51.653-31.497 121.37 27.263 144.64 121.91 9.382 38.162 9.4294 53.949 0.2689 89.301-3.9905 15.4-5.9879 29.266-4.439 30.815 5.6127 5.6126 18.923-7.181 29.609-28.46 36.503-72.686-1.88-199-71.536-235.41-7.6935-4.0218-22.381-10.101-32.639-13.51-24.755-8.226-73.43-4.7722-101.27 7.1855-32.313 13.879-60.871 42.507-75.974 76.162-25.032 55.778-15.448 122.65 29.259 204.18 62.841 114.59 133.07 144.09 117.57 154.15-18.162 11.782-28.994 10.117-73.739-11.335-69.859-33.493-134.7-42.876-196.18-28.385-67.523 15.916-120.03 53.434-124.82 89.196-2.0396 15.207-0.2982 20.874 10.276 33.44 22.07 26.23 45.53 35.159 90.823 34.57zm404.49-134.52c35.83-10.818 109.72-13.438 133.19-4.7236 30.984 11.506 41.028 25.815 32.931 46.918-8.519 22.2-68.424 28.23-116.44 11.721-28.266-9.7192-76.498-36.499-76.498-42.474-1e-4 -1.8407 12.065-6.9895 26.81-11.442zm-260.44 7.7174c23.091 8.1978 70.436 35.146 70.436 40.091 0 4.032-49.335 23.838-100.25 40.244-90.317 29.105-138.17 32.771-160.18 12.269-47.287-44.054 79.1-131.97 189.99-92.604z"/> <path d="m455.24 857.47c-10.5-21.461-12.226-29.995-10.144-50.162 3.1436-30.454 21.362-71.686 38.956-88.166 51.298-48.05 136.97-28.601 148.5 33.714 2.0834 11.255 0.7883 18.993-4.2657 25.487-6.8116 8.7521-7.5583 8.8239-12.149 1.1656-6.0222-10.047-29.081-10.787-37.047-1.189-8.8712 10.689 5.431 28.795 28.112 35.591 16.34 4.8958 21.75 4.4421 40.706-3.4141 57.243-23.724 56.133-84.576-2.2664-124.28-72.925-49.576-152.44-12.785-172.65-12.785-0.642 0-1.1674-4.2637-1.1674-9.475 0-27.864-27.046-64.94-58.283-79.896-39.474-18.901-108.27-2.2625-130.42 31.542-19.335 29.508-11.663 69.072 16.187 83.473 17.916 9.2645 53.81 14.236 57.671 7.9872 1.621-2.623-4.3969-13.56-13.373-24.304-17.258-20.656-19.235-29.032-11.595-49.126 8.3589-21.985 22.872-30.647 47.947-28.617 25.349 2.0524 46.518 18.18 57.474 43.786 9.761 22.813 7.893 33.527-9.5595 54.826-37.376 45.613-51.714 97.293-38.565 139.01 20.883 66.248 77.062 104.03 171.81 115.55 47.152 5.733 89.922 1.4861 151.67-15.061 166.36-44.577 419.28-250.4 523.39-158.27 13.688 12.112 21.309 10.544 21.309-4.3829 0-23.848-45.711-42.389-104.14-42.241-84.808 0.216-165.12 28.175-346.63 120.68-111.97 57.061-146.61 68.514-206.66 68.322-76.375-0.2442-121.42-21.943-144.81-69.76z"/> <path d="m894.47 698.72c51.185 13.134 126.74 8.3944 145.59-9.133 12.362-11.498 1.3594-15.842-20.908-8.2552-57.741 19.674-151.29-13.284-150.86-53.148 0.1207-11.107 0.8447-11.828 4.8943-4.8747 6.0014 10.304 31.078 10.804 45.216 0.9013 14.05-9.8408 13.198-27.136-1.9227-39.03-23.519-18.5-85.393-8.6335-101.67 16.213-23.16 35.346 13.721 80.406 79.661 97.327z"/> <path d="m-200.62 776.01c52.698 0 138.23 34.87 218.67 89.149 83.749 56.513 144.76 77.333 213.15 72.734 50.355-3.386 82.945-14.729 105.66-36.775 16.113-15.637 18.399-20.493 18.399-39.075 0-11.67-3.0721-27.159-6.8266-34.42-15.462-29.901-57.211-50.845-89.337-44.818-22.618 4.2432-23.276 10.723-1.6805 16.538 48.252 12.993 49.259 82.275 1.5251 104.93-53.648 25.458-122.39 6.4137-234.73-65.032-107.66-68.465-171.8-90.506-248.99-85.552-31.908 2.0476-35.819 1.2926-47.91-9.2487-33.848-29.51-84.883-53.537-136.72-64.365-44.182-9.2291-145.19-5.5739-195.84 7.0873-78.805 19.698-157.31 68.223-183.97 113.72-32.822 56.011-11.68 118.64 50.297 148.99 39.549 19.365 88.97 16.537 100.91-5.7746 7.1682-13.394-1.2658-27.306-21.742-35.861-19.15-8.0015-24.538-5.173-16.046 8.4237 9.9354 15.91-0.7801 21.774-20.44 11.186-79.924-43.042-57.574-223.98 184.24-238.79 78.039-4.7802 170.82 19.098 206.31 53.093 16.176 15.498 16.07 18.069-0.8865 21.46-19.008 3.8015-41.682 25.762-45.115 43.695-2.382 12.442-0.5453 17.287 10.889 28.721 26.017 26.017 73.935 30.575 95.432 9.0789 8.2527-8.2527 9.3017-13.599 7.2049-36.723-2.8547-31.482-1.8325-32.363 37.543-32.363zm-75.882 53.106c-6.2931 8.3127-7.3389 8.3725-18.502 1.058-14.031-9.1935-15.532-26.057-3.3052-37.122 8.8165-7.979 20.244-10.031 25.666-4.6083 5.4971 5.4971 3.0223 31.584-3.8584 40.673z"/> <path d="m481.28 591.28c19.159 30.211 38.933 39.041 71.927 32.12 55.228-11.584 117.63-55.238 137.43-96.138 12.482-25.786 12.454-58.488-0.0996-115.16-16.005-72.244-7.8449-121.82 23.753-144.32 7.7706-5.5332 17.229-16.056 21.018-23.382 6.1317-11.857 6.0876-14.124-0.4033-20.614-10.491-10.491-35.388-8.9758-53.543 3.2588-8.6116 5.8033-24.721 22.476-35.798 37.05-44.25 58.218-125 78.867-165.12 164.6-28.687 61.302-28.404 116.48 0.8317 162.58zm54.688-174.22c15.041-25.898 50.193-63.949 67.206-72.746 7.0057-3.6225 14.415-6.5737 16.466-6.5549 5.2116 0.0444 29.788 128.22 29.56 154.17-0.2928 33.352-20.39 68.244-51.477 89.37-14.104 9.5854-33.446 19.864-42.982 22.842-20.956 6.5435-26.87 2.7961-40.713-25.799-18.736-38.705-9.4043-107.31 21.939-161.28z"/> </g> </svg>