<?xml version='1.0' encoding='utf-8'?>
<svg xmlns="http://www.w3.org/2000/svg" enable-background="new 0 0 5000 5000" version="1.1" viewBox="0 0 5e3 5e3"> <path d="m4826.7 2290.9c0-21.447-0.087-42.91 0.052-64.357 2.629 4.463 4.895 9.53 9.529 12.297 11.208 7.852 27.119 4.584 36.806-4.185 17.037-15.929 16.119-46.594-1.54-61.729-12.349-10.135-29.714-12.314-44.848-8.146-0.087-15.773 0.069-31.565-0.087-47.338 82.986-15.766 138.1 38.62 120.26 116.35-13.551 57.534-78.281 80.452-120.17 57.11zm-2535.9-2117.6c-21.447 0-42.91 0.087-64.357-0.053 4.463-2.629 9.53-4.895 12.297-9.529 7.852-11.208 4.584-27.119-4.185-36.806-15.929-17.037-46.594-16.119-61.729 1.539-10.135 12.349-12.314 29.714-8.146 44.848-15.773 0.087-31.565-0.069-47.338 0.087-15.766-82.986 38.62-138.1 116.35-120.26 57.534 13.553 80.452 78.283 57.11 120.17zm-2117.6 2535.9c0 21.447 0.087 42.91-0.053 64.357-2.629-4.463-4.895-9.53-9.529-12.297-11.208-7.852-27.119-4.584-36.806 4.185-17.037 15.929-16.119 46.594 1.539 61.729 12.349 10.135 29.714 12.314 44.848 8.146 0.087 15.773-0.069 31.565 0.087 47.338-82.986 15.766-138.1-38.62-120.26-116.35 13.553-57.534 78.283-80.452 120.17-57.11zm2535.9 2117.6c21.447 0 42.91-0.087 64.357 0.052-4.463 2.629-9.53 4.895-12.297 9.529-7.852 11.208-4.584 27.119 4.185 36.806 15.929 17.037 46.594 16.119 61.729-1.54 10.135-12.349 12.314-29.714 8.146-44.848 15.773-0.087 31.565 0.069 47.338-0.087 15.766 82.986-38.62 138.1-116.35 120.26-57.534-13.551-80.452-78.281-57.11-120.17zm2237.8-2060.5c17.846 77.728-37.271 132.11-120.26 116.35 0.156-15.773 0-31.565 0.087-47.338 15.134 4.169 32.499 1.989 44.848-8.146 17.659-15.134 18.576-45.8 1.54-61.729-9.687-8.769-25.597-12.037-36.806-4.185-4.635 2.767-6.9 7.834-9.529 12.297-0.139-21.447-0.052-42.91-0.052-64.357 41.887-23.342 106.62-0.424 120.17 57.11zm-2180.6-2713.1c77.728-17.846 132.11 37.271 116.35 120.26-15.773-0.156-31.565 0-47.338-0.087 4.169-15.134 1.989-32.499-8.146-44.848-15.134-17.659-45.8-18.576-61.729-1.539-8.769 9.687-12.037 25.597-4.185 36.806 2.767 4.635 7.834 6.9 12.297 9.529-21.447 0.139-42.91 0.053-64.357 0.053-23.342-41.889-0.424-106.62 57.11-120.17zm-2713.1 2180.6c-17.846-77.728 37.271-132.11 120.26-116.35-0.156 15.773 0 31.565-0.087 47.338-15.134-4.169-32.499-1.989-44.848 8.146-17.659 15.134-18.576 45.8-1.539 61.729 9.687 8.769 25.597 12.037 36.806 4.185 4.635-2.767 6.9-7.834 9.529-12.297 0.139 21.447 0.053 42.91 0.053 64.357-41.889 23.342-106.62 0.424-120.17-57.11zm2180.6 2713.1c-77.728 17.846-132.11-37.271-116.35-120.26 15.773 0.156 31.565 0 47.338 0.087-4.169 15.134-1.989 32.499 8.146 44.848 15.134 17.659 45.8 18.576 61.729 1.54 8.769-9.687 12.037-25.597 4.185-36.806-2.767-4.635-7.834-6.9-12.297-9.529 21.447-0.139 42.91-0.052 64.357-0.052 23.342 41.887 0.424 106.62-57.11 120.17zm2713.1-3557.2c17.846 77.729-37.271 132.12-120.26 116.35 0.156-15.774 0-31.565 0.087-47.338 15.134 4.169 32.499 1.989 44.848-8.146 17.659-15.134 18.576-45.798 1.54-61.729-9.685-8.769-25.597-12.037-36.806-4.185-4.635 2.767-6.901 7.836-9.529 12.297-0.138-21.447-0.052-42.911-0.052-64.357 41.887-23.342 106.62-0.424 120.17 57.11zm-3557.2-1336.6c77.729-17.846 132.12 37.271 116.35 120.26-15.774-0.156-31.565 0-47.338-0.087 4.169-15.134 1.989-32.499-8.146-44.848-15.134-17.659-45.798-18.576-61.729-1.539-8.769 9.685-12.037 25.597-4.185 36.806 2.767 4.635 7.836 6.901 12.297 9.529-21.447 0.138-42.911 0.053-64.357 0.053-23.342-41.889-0.424-106.62 57.11-120.17zm-1336.6 3557.2c-17.846-77.729 37.271-132.12 120.26-116.35-0.156 15.774 0 31.565-0.087 47.338-15.134-4.169-32.499-1.989-44.848 8.146-17.659 15.134-18.576 45.798-1.539 61.729 9.685 8.769 25.597 12.037 36.806 4.185 4.635-2.767 6.901-7.835 9.529-12.296 0.138 21.447 0.053 42.911 0.053 64.356-41.889 23.342-106.62 0.424-120.17-57.11zm3557.2 1336.6c-77.729 17.846-132.12-37.271-116.35-120.26 15.774 0.156 31.565 0 47.338 0.087-4.169 15.134-1.989 32.499 8.146 44.848 15.134 17.659 45.798 18.576 61.729 1.54 8.769-9.685 12.037-25.597 4.185-36.806-2.767-4.635-7.835-6.901-12.296-9.529 21.447-0.138 42.911-0.052 64.356-0.052 23.342 41.887 0.424 106.62-57.11 120.17zm1216.4-1279.4c0-21.445-0.086-42.91 0.052-64.356 2.628 4.461 4.894 9.529 9.529 12.296 11.208 7.852 27.121 4.584 36.806-4.185 17.037-15.93 16.119-46.595-1.54-61.729-12.349-10.135-29.714-12.315-44.848-8.146-0.087-15.773 0.069-31.564-0.087-47.338 82.986-15.767 138.1 38.618 120.26 116.35-13.551 57.534-78.281 80.452-120.17 57.11zm-1159.3-3494.2c-21.445 0-42.91 0.086-64.356-0.053 4.461-2.628 9.529-4.894 12.296-9.529 7.852-11.208 4.584-27.12-4.185-36.806-15.93-17.037-46.595-16.119-61.729 1.539-10.135 12.349-12.315 29.714-8.146 44.848-15.773 0.087-31.564-0.069-47.338 0.087-15.767-82.986 38.618-138.1 116.35-120.26 57.534 13.553 80.452 78.283 57.11 120.17zm-3494.2 1159.3c0 21.445 0.086 42.91-0.053 64.357-2.628-4.461-4.894-9.529-9.529-12.297-11.208-7.852-27.12-4.584-36.806 4.185-17.037 15.93-16.119 46.595 1.539 61.729 12.349 10.135 29.714 12.315 44.848 8.146 0.087 15.773-0.069 31.564 0.087 47.338-82.986 15.767-138.1-38.618-120.26-116.35 13.553-57.534 78.283-80.452 120.17-57.11zm1159.3 3494.2c21.445 0 42.91-0.086 64.357 0.052-4.461 2.628-9.529 4.894-12.297 9.529-7.852 11.208-4.584 27.121 4.185 36.806 15.93 17.037 46.595 16.119 61.729-1.54 10.135-12.349 12.315-29.714 8.146-44.848 15.773-0.087 31.564 0.069 47.338-0.087 15.767 82.986-38.618 138.1-116.35 120.26-57.534-13.551-80.452-78.281-57.11-120.17zm3494.1-2655.6c16.759-5.829 38.742-2.629 48.791 13.335 12.193 18.126 5.862 48.671-16.638 55.07-12.764 5.465-28.209-2.889-31.911-15.878-0.501-17.487 0.07-35.025-0.242-52.527zm-2655.5-1997.8c-5.829-16.759-2.629-38.742 13.335-48.79 18.126-12.193 48.671-5.863 55.07 16.638 5.465 12.764-2.889 28.209-15.878 31.911-17.487 0.5-35.025-0.071-52.527 0.241zm-1997.8 2655.5c-16.759 5.829-38.742 2.629-48.79-13.335-12.193-18.126-5.863-48.671 16.638-55.07 12.764-5.465 28.209 2.889 31.911 15.878 0.5 17.487-0.071 35.025 0.241 52.527zm2655.5 1997.8c5.829 16.759 2.629 38.742-13.335 48.791-18.126 12.193-48.671 5.862-55.07-16.638-5.465-12.764 2.889-28.209 15.878-31.911 17.487-0.501 35.025 0.07 52.527-0.242zm1998-2050.3c3.702-12.989 19.147-21.343 31.911-15.878 22.5 6.399 28.831 36.944 16.638 55.07-10.048 15.965-32.032 19.164-48.791 13.335 0.312-17.502-0.259-35.04 0.242-52.527zm-2050.5-2603.2c-12.989-3.703-21.343-19.147-15.878-31.911 6.399-22.501 36.944-28.831 55.07-16.638 15.965 10.048 19.164 32.031 13.335 48.79-17.502-0.312-35.04 0.259-52.527-0.241zm-2603.2 2050.5c-3.703 12.989-19.147 21.343-31.911 15.878-22.501-6.399-28.831-36.944-16.638-55.07 10.048-15.965 32.031-19.164 48.79-13.335-0.312 17.502 0.259 35.04-0.241 52.527zm2050.5 2603.2c12.989 3.702 21.343 19.147 15.878 31.911-6.399 22.5-36.944 28.831-55.07 16.638-15.965-10.048-19.164-32.032-13.335-48.791 17.502 0.312 35.04-0.259 52.527 0.242zm2603.2-3427.1c3.701-12.989 19.146-21.343 31.912-15.878 22.502 6.4 28.832 36.944 16.638 55.07-10.048 15.963-32.031 19.164-48.791 13.335 0.311-17.504-0.26-35.041 0.241-52.527zm-3427.1-1226.6c-12.989-3.701-21.343-19.146-15.878-31.911 6.4-22.502 36.944-28.832 55.07-16.638 15.963 10.048 19.164 32.031 13.335 48.79-17.504-0.311-35.041 0.26-52.527-0.241zm-1226.6 3427.1c-3.701 12.989-19.146 21.344-31.911 15.878-22.502-6.399-28.832-36.944-16.638-55.07 10.048-15.963 32.031-19.164 48.79-13.335-0.311 17.504 0.26 35.041-0.241 52.527zm3427.1 1226.6c12.989 3.701 21.344 19.146 15.878 31.912-6.399 22.502-36.944 28.832-55.07 16.638-15.963-10.048-19.164-32.031-13.335-48.791 17.504 0.311 35.041-0.26 52.527 0.241zm1226.4-1279.2c16.759-5.828 38.743-2.628 48.791 13.335 12.194 18.126 5.864 48.671-16.638 55.07-12.766 5.466-28.21-2.889-31.912-15.878-0.5-17.485 0.071-35.022-0.241-52.527zm-1278.9-3374.4c-5.828-16.759-2.628-38.742 13.335-48.79 18.126-12.194 48.671-5.864 55.07 16.638 5.466 12.766-2.889 28.21-15.878 31.911-17.485 0.5-35.022-0.071-52.527 0.241zm-3374.4 1278.9c-16.759 5.828-38.742 2.628-48.79-13.335-12.194-18.126-5.864-48.671 16.638-55.07 12.766-5.465 28.21 2.889 31.911 15.878 0.5 17.485-0.071 35.022 0.241 52.527zm1278.9 3374.4c5.828 16.759 2.628 38.743-13.335 48.791-18.126 12.194-48.671 5.864-55.07-16.638-5.465-12.766 2.889-28.21 15.878-31.912 17.485-0.5 35.022 0.071 52.527-0.241zm3360.2-2546.2c-34.622-35.947-24.632-80.843 0.017-101.72 1e-3 33.917 0.052 67.816-0.017 101.72zm-2532-2092.9c-35.947 34.622-80.843 24.632-101.72-0.017 33.917-1e-3 67.816-0.052 101.72 0.017zm-2092.9 2532c34.622 35.947 24.632 80.843-0.017 101.72-1e-3 -33.917-0.052-67.816 0.017-101.72zm2532 2092.9c35.947-34.622 80.843-24.632 101.72 0.017-33.917 1e-3 -67.816 0.052-101.72-0.017zm2092.9-1991.2c-24.648-20.873-34.638-65.769-0.017-101.72 0.069 33.9 0.018 67.799 0.017 101.72zm-1991.2-2633.8c-20.873 24.648-65.769 34.638-101.72 0.017 33.9-0.069 67.799-0.018 101.72-0.017zm-2633.8 1991.2c24.648 20.873 34.638 65.769 0.017 101.72-0.069-33.9-0.018-67.799-0.017-101.72zm1991.2 2633.8c20.873-24.648 65.769-34.638 101.72-0.017-33.9 0.069-67.799 0.018-101.72 0.017zm2633.8-3367.8c-24.65-20.873-34.64-65.769-0.017-101.72 0.068 33.898 0.017 67.798 0.017 101.72zm-3367.8-1257.2c-20.873 24.65-65.769 34.64-101.72 0.016 33.898-0.067 67.798-0.016 101.72-0.016zm-1257.2 3367.8c24.65 20.873 34.64 65.769 0.016 101.72-0.067-33.899-0.016-67.799-0.016-101.72zm3367.8 1257.2c20.873-24.65 65.769-34.64 101.72-0.017-33.899 0.068-67.799 0.017-101.72 0.017zm1257.2-1155.5c-34.624-35.946-24.633-80.843 0.017-101.72-1e-3 33.917 0.05 67.817-0.017 101.72zm-1155.5-3469.5c-35.946 34.624-80.843 24.633-101.72-0.016 33.917 0 67.817-0.051 101.72 0.016zm-3469.5 1155.5c34.624 35.946 24.633 80.843-0.016 101.72 0-33.916-0.051-67.816 0.016-101.72zm1155.5 3469.5c35.946-34.624 80.843-24.633 101.72 0.017-33.916-1e-3 -67.816 0.05-101.72-0.017zm3378-2367.1c-17.388-87.15-20.732-205.72 31.529-277.53 14.891-20.945 35.819-37.566 59.946-46.576 0 16.569 0.087 33.156-0.053 49.724-37.817 23.833-43.604 87.78 0.018 122.5 0.138 50.209-0.034 100.44 0.087 150.65-30.144-5.603-61.572-5.568-91.527 1.228zm-2275.7-2166.4c-87.15 17.388-205.72 20.732-277.53-31.529-20.945-14.891-37.566-35.819-46.576-59.946 16.569 0 33.156-0.087 49.724 0.053 23.833 37.817 87.78 43.604 122.5-0.018 50.209-0.138 100.44 0.034 150.65-0.087-5.603 30.144-5.568 61.572 1.228 91.527zm-2166.4 2275.7c17.388 87.15 20.732 205.72-31.529 277.53-14.891 20.945-35.819 37.566-59.946 46.576 0-16.569-0.087-33.156 0.053-49.724 37.817-23.833 43.604-87.78-0.018-122.5-0.138-50.209 0.034-100.44-0.087-150.65 30.144 5.603 61.572 5.568 91.527-1.228zm2275.7 2166.4c87.15-17.388 205.72-20.732 277.53 31.529 20.945 14.891 37.566 35.819 46.576 59.946-16.569 0-33.156 0.087-49.724-0.053-23.833-37.817-87.78-43.604-122.5 0.018-50.209 0.138-100.44-0.034-150.65 0.087 5.603-30.144 5.568-61.572-1.228-91.527zm2257.9-2165.1c-0.121 50.21 0.051 100.44-0.087 150.65-43.622 34.725-37.835 98.672-0.018 122.5 0.14 16.569 0.053 33.156 0.053 49.724-24.127-9.011-45.055-25.632-59.946-46.576-52.262-71.802-48.917-190.38-31.529-277.53 29.954 6.796 61.382 6.831 91.527 1.228zm-2256.7-2368.4c50.21 0.121 100.44-0.051 150.65 0.087 34.725 43.621 98.672 37.835 122.5 0.018 16.569-0.139 33.156-0.053 49.724-0.053-9.011 24.127-25.632 45.055-46.576 59.946-71.802 52.261-190.38 48.917-277.53 31.529 6.796-29.954 6.831-61.382 1.228-91.527zm-2368.4 2256.7c0.121-50.21-0.051-100.44 0.087-150.65 43.621-34.725 37.835-98.672 0.018-122.5-0.139-16.569-0.053-33.156-0.053-49.724 24.127 9.011 45.055 25.632 59.946 46.576 52.261 71.802 48.917 190.38 31.529 277.53-29.954-6.796-61.382-6.831-91.527-1.228zm2256.7 2368.4c-50.21-0.121-100.44 0.051-150.65-0.087-34.725-43.622-98.672-37.835-122.5-0.018-16.569 0.14-33.156 0.053-49.724 0.053 9.011-24.127 25.632-45.055 46.576-59.946 71.802-52.262 190.38-48.917 277.53-31.529-6.796 29.954-6.831 61.382-1.228 91.527zm2368.4-3633.3c-0.121 50.209 0.053 100.44-0.087 150.64-43.622 34.725-37.835 98.672-0.018 122.51 0.138 16.569 0.053 33.156 0.053 49.724-24.127-9.011-45.055-25.632-59.946-46.578-52.262-71.802-48.919-190.38-31.529-277.53 29.954 6.799 61.382 6.833 91.527 1.23zm-3633.3-991.85c50.209 0.121 100.44-0.053 150.64 0.087 34.725 43.622 98.672 37.835 122.51 0.018 16.569-0.138 33.156-0.053 49.724-0.053-9.011 24.127-25.632 45.055-46.578 59.946-71.802 52.261-190.38 48.919-277.53 31.529 6.799-29.954 6.833-61.382 1.23-91.527zm-991.85 3633.3c0.121-50.208-0.053-100.44 0.087-150.64 43.622-34.725 37.835-98.672 0.018-122.51-0.138-16.569-0.053-33.156-0.053-49.725 24.127 9.011 45.055 25.632 59.946 46.578 52.261 71.802 48.919 190.38 31.529 277.53-29.954-6.798-61.382-6.833-91.527-1.229zm3633.3 991.85c-50.208-0.121-100.44 0.053-150.64-0.087-34.725-43.622-98.672-37.835-122.51-0.018-16.569 0.138-33.156 0.053-49.725 0.053 9.011-24.127 25.632-45.055 46.578-59.946 71.802-52.262 190.38-48.919 277.53-31.529-6.798 29.954-6.833 61.382-1.229 91.527zm900.32-990.62c-17.39-87.15-20.732-205.72 31.529-277.53 14.892-20.946 35.819-37.567 59.946-46.578 0 16.569 0.085 33.156-0.053 49.725-37.817 23.833-43.604 87.78 0.018 122.51 0.14 50.21-0.034 100.44 0.087 150.64-30.144-5.604-61.572-5.569-91.527 1.229zm-899.09-3543c-87.15 17.39-205.72 20.732-277.53-31.529-20.946-14.892-37.567-35.819-46.578-59.946 16.569 0 33.156-0.086 49.725 0.053 23.833 37.817 87.78 43.604 122.51-0.018 50.21-0.139 100.44 0.034 150.64-0.087-5.604 30.144-5.569 61.572 1.229 91.527zm-3543 899.09c17.39 87.15 20.732 205.72-31.529 277.53-14.892 20.946-35.819 37.567-59.946 46.578 0-16.569-0.086-33.156 0.053-49.724 37.817-23.833 43.604-87.78-0.018-122.51-0.139-50.21 0.034-100.44-0.087-150.64 30.144 5.602 61.572 5.568 91.527-1.23zm899.09 3543c87.15-17.39 205.72-20.732 277.53 31.529 20.946 14.892 37.567 35.819 46.578 59.946-16.569 0-33.156 0.085-49.724-0.053-23.833-37.817-87.78-43.604-122.51 0.018-50.21 0.14-100.44-0.034-150.64 0.087 5.602-30.144 5.568-61.572-1.23-91.527zm2952.3-3851.4c42.975 31.253 91.186 55.458 142.42 69.778 130.82 38.487 269.85 26.61 370.75-16.447-9.409 10.862-17.936 22.605-23.955 35.732-5.984 13.386-13.629 26.255-16.88 40.697-3.839 18.558-4.167 37.722-2.093 56.505-113.98 42.849-270.02 52.041-375.08-10.534-65.727-39.11-101.7-98.768-106.29-164.61-65.839-4.593-125.5-40.566-164.61-106.29-62.574-105.05-53.383-261.09-10.534-375.07 18.783 2.075 37.947 1.746 56.505-2.093 14.442-3.252 27.311-10.897 40.697-16.881 13.127-6.019 24.87-14.545 35.732-23.955-43.058 100.9-54.935 239.93-16.448 370.75 14.322 51.236 38.527 99.447 69.78 142.42zm0 3260.8c-31.253 42.975-55.458 91.186-69.778 142.42-38.487 130.82-26.61 269.85 16.448 370.75-10.862-9.409-22.605-17.936-35.732-23.955-13.386-5.984-26.256-13.629-40.697-16.88-18.558-3.839-37.722-4.167-56.505-2.093-42.849-113.98-52.041-270.02 10.534-375.08 39.11-65.727 98.768-101.7 164.61-106.29 4.593-65.839 40.566-125.5 106.29-164.61 105.05-62.574 261.09-53.383 375.08-10.534-2.075 18.783-1.747 37.947 2.093 56.505 3.251 14.442 10.896 27.311 16.88 40.697 6.019 13.127 14.545 24.87 23.955 35.732-100.9-43.058-239.93-54.935-370.75-16.448-51.237 14.322-99.448 38.527-142.42 69.78zm-3260.8 0c-42.975-31.253-91.186-55.458-142.42-69.778-130.82-38.487-269.85-26.61-370.75 16.448 9.409-10.862 17.936-22.605 23.955-35.732 5.984-13.386 13.629-26.256 16.881-40.697 3.839-18.558 4.167-37.722 2.093-56.505 113.98-42.849 270.02-52.041 375.07 10.534 65.727 39.11 101.7 98.768 106.29 164.61 65.839 4.593 125.5 40.566 164.61 106.29 62.574 105.05 53.383 261.09 10.534 375.08-18.783-2.075-37.947-1.747-56.505 2.093-14.442 3.251-27.311 10.896-40.697 16.88-13.127 6.019-24.87 14.545-35.732 23.955 43.058-100.9 54.935-239.93 16.447-370.75-14.321-51.237-38.526-99.448-69.779-142.42zm0-3260.8c31.253-42.975 55.458-91.186 69.778-142.42 38.487-130.82 26.61-269.85-16.447-370.75 10.862 9.409 22.605 17.936 35.732 23.955 13.386 5.984 26.255 13.629 40.697 16.881 18.558 3.839 37.722 4.167 56.505 2.093 42.849 113.98 52.041 270.02-10.534 375.07-39.11 65.727-98.768 101.7-164.61 106.29-4.593 65.839-40.566 125.5-106.29 164.61-105.05 62.574-261.09 53.383-375.07 10.534 2.075-18.783 1.746-37.947-2.093-56.505-3.252-14.442-10.897-27.311-16.881-40.697-6.019-13.127-14.545-24.87-23.955-35.732 100.9 43.058 239.93 54.935 370.75 16.447 51.236-14.321 99.447-38.526 142.42-69.779zm3930.4 27.194c-41.026 66.986-104.97 118.58-176.69 149.68-1.833-17.78 1.055-35.457 3.407-53.028 1.54-26.618 16.449-50.66 35.076-68.923 36.08-34.401 91.634-42.963 138.21-27.726zm-3903.2-696.77c66.986 41.026 118.58 104.97 149.68 176.69-17.78 1.833-35.457-1.055-53.028-3.407-26.618-1.539-50.66-16.449-68.923-35.076-34.401-36.08-42.963-91.634-27.726-138.21zm-696.77 3903.2c41.026-66.986 104.97-118.58 176.69-149.68 1.833 17.78-1.055 35.457-3.407 53.028-1.539 26.618-16.449 50.66-35.076 68.923-36.08 34.402-91.634 42.964-138.21 27.726zm3903.2 696.77c-66.986-41.026-118.58-104.97-149.68-176.69 17.78-1.833 35.457 1.055 53.028 3.407 26.618 1.54 50.66 16.449 68.923 35.076 34.402 36.08 42.964 91.634 27.726 138.21zm558.56-724.5c-18.627-18.263-33.537-42.304-35.076-68.923-2.352-17.572-5.241-35.248-3.407-53.028 71.726 31.097 135.67 82.691 176.69 149.68-46.577 15.237-102.13 6.675-138.21-27.726zm-586.29-3737.3c-18.263 18.627-42.304 33.536-68.923 35.076-17.572 2.352-35.248 5.241-53.028 3.407 31.097-71.726 82.691-135.67 149.68-176.69 15.237 46.577 6.675 102.13-27.726 138.21zm-3737.3 586.29c18.627 18.263 33.536 42.304 35.076 68.923 2.352 17.572 5.241 35.248 3.407 53.028-71.726-31.098-135.67-82.691-176.69-149.68 46.577-15.237 102.13-6.675 138.21 27.726zm586.29 3737.3c18.263-18.627 42.304-33.537 68.923-35.076 17.572-2.352 35.248-5.241 53.028-3.407-31.098 71.726-82.691 135.67-149.68 176.69-15.237-46.577-6.675-102.13 27.726-138.21zm3739.5-2161.8c12.053-10.13 26.756-18.545 44.021-24.554 1.877 8.307 3.847 16.477 5.935 24.554-2.088 8.077-4.058 16.247-5.935 24.554-17.265-6.009-31.968-14.424-44.021-24.554zm-2164 2164c10.13 12.053 18.545 26.756 24.554 44.021-8.307 1.877-16.477 3.847-24.554 5.935-8.077-2.088-16.247-4.058-24.554-5.935 6.009-17.265 14.424-31.968 24.554-44.021zm-2164-2164c-12.053 10.13-26.756 18.545-44.021 24.554-1.877-8.307-3.847-16.477-5.934-24.554 2.088-8.077 4.058-16.247 5.934-24.554 17.265 6.009 31.968 14.424 44.021 24.554zm2164-2164c-10.13-12.053-18.545-26.756-24.554-44.021 8.307-1.877 16.477-3.847 24.554-5.934 8.077 2.088 16.247 4.058 24.554 5.934-6.009 17.265-14.424 31.968-24.554 44.021zm2126.7 727.45c74.146-34.851 139.02-92.083 176.54-165.54 3.407 1.505 6.797 3.045 10.169 4.635-59.667 96-86.932 164.19-105.3 245.48-45.323-15.773-72.991-48.13-81.41-84.575zm-3563.3-690.06c-34.851-74.147-92.083-139.02-165.54-176.54 1.505-3.407 3.045-6.797 4.635-10.17 96 59.668 164.19 86.932 245.48 105.3-15.773 45.323-48.13 72.991-84.575 81.41zm-690.06 3563.3c-74.147 34.851-139.02 92.083-176.54 165.54-3.407-1.505-6.797-3.045-10.17-4.635 59.668-96 86.932-164.19 105.3-245.48 45.323 15.774 72.991 48.13 81.41 84.575zm3563.3 690.06c34.851 74.146 92.083 139.02 165.54 176.54-1.505 3.407-3.045 6.797-4.635 10.169-96-59.667-164.19-86.932-245.48-105.3 15.774-45.323 48.13-72.991 84.575-81.41zm771.47-774.64c18.365 81.284 45.629 149.48 105.3 245.48-3.373 1.59-6.762 3.13-10.169 4.635-37.513-73.454-102.39-130.69-176.54-165.54 8.42-36.444 36.088-68.8 81.41-84.575zm-856.04-3560.1c81.284-18.365 149.48-45.629 245.48-105.3 1.59 3.373 3.13 6.762 4.635 10.17-73.454 37.513-130.69 102.39-165.54 176.54-36.444-8.42-68.8-36.088-84.575-81.41zm-3560.1 856.04c-18.365-81.284-45.629-149.48-105.3-245.48 3.373-1.59 6.762-3.13 10.17-4.635 37.513 73.454 102.39 130.69 176.54 165.54-8.42 36.444-36.088 68.801-81.41 84.575zm856.04 3560.1c-81.284 18.365-149.48 45.629-245.48 105.3-1.59-3.373-3.13-6.762-4.635-10.169 73.454-37.513 130.69-102.39 165.54-176.54 36.444 8.42 68.801 36.088 84.575 81.41zm3585.8-2208.1c-2.587-9.466-5.121-19.293-7.591-29.522 28.348-6.032 57.975-5.72 86.306 0.264 0 9.753-2e-3 19.506-3e-3 29.258 1e-3 9.752 3e-3 19.505 3e-3 29.258-28.331 5.984-57.958 6.296-86.306 0.264 2.47-10.229 5.004-20.056 7.591-29.522zm-2233.8 2233.8c9.466-2.587 19.293-5.121 29.522-7.591 6.032 28.348 5.72 57.975-0.264 86.306-9.753 0-19.506-2e-3 -29.258-3e-3 -9.752 1e-3 -19.505 3e-3 -29.258 3e-3 -5.984-28.331-6.296-57.958-0.264-86.306 10.229 2.47 20.056 5.004 29.522 7.591zm-2233.8-2233.8c2.587 9.466 5.121 19.293 7.591 29.522-28.349 6.032-57.975 5.72-86.306-0.264 0-9.753 2e-3 -19.506 3e-3 -29.258-1e-3 -9.752-3e-3 -19.505-3e-3 -29.258 28.33-5.984 57.957-6.296 86.306-0.264-2.47 10.229-5.004 20.056-7.591 29.522zm2233.8-2233.8c-9.466 2.587-19.293 5.121-29.522 7.591-6.032-28.349-5.72-57.975 0.264-86.306 9.753 0 19.506 2e-3 29.258 3e-3 9.752-1e-3 19.505-3e-3 29.258-3e-3 5.984 28.33 6.296 57.957 0.264 86.306-10.229-2.47-20.056-5.004-29.522-7.591zm2226.2 886.74c27.751-114.92 63.57-179.22 91.789-248.49 21.965 12.246 41.354 30.492 51.109 54.031 11.328 26.6 11 59.065-4.704 83.85-7.143 11.658-19.302 19.164-32.015 23.418-7.074 2.611-14.944-0.917-21.914 2.265-43.491-5.616-45.37-73.13-5.535-80.858 20.316-1.831 30.178-0.102 40.957 17.693-3.65-9.754-12.764-16.638-22.83-18.645-10.828-1.159-22.571-1.124-31.859 5.448-24.491 16.828-21.672 59.393 3.857 73.974 5.31 3.251 11.433 4.653 17.468 5.863-0.035 27.05-0.018 54.118-0.018 81.186-28.33 5.987-57.956 6.299-86.305 0.262zm-3573.3-879.15c-114.92-27.751-179.22-63.57-248.49-91.789 12.246-21.965 30.492-41.354 54.031-51.11 26.6-11.328 59.065-11 83.85 4.704 11.658 7.143 19.164 19.302 23.418 32.015 2.611 7.074-0.917 14.944 2.265 21.914-5.616 43.491-73.13 45.369-80.858 5.534-1.831-20.316-0.102-30.177 17.693-40.956-9.754 3.65-16.638 12.764-18.645 22.83-1.159 10.828-1.124 22.571 5.448 31.859 16.828 24.491 59.393 21.671 73.974-3.857 3.251-5.31 4.653-11.433 5.863-17.468 27.05 0.034 54.118 0.018 81.186 0.018 5.987 28.332 6.299 57.958 0.262 86.306zm-879.15 3573.3c-27.751 114.92-63.57 179.22-91.789 248.49-21.965-12.246-41.354-30.492-51.11-54.031-11.328-26.6-11-59.065 4.704-83.85 7.143-11.658 19.302-19.164 32.015-23.418 7.074-2.611 14.944 0.917 21.914-2.265 43.491 5.616 45.369 73.13 5.534 80.858-20.316 1.831-30.177 0.102-40.956-17.693 3.65 9.754 12.764 16.638 22.83 18.645 10.828 1.159 22.571 1.124 31.859-5.448 24.491-16.828 21.671-59.393-3.857-73.974-5.31-3.252-11.433-4.653-17.468-5.863 0.034-27.05 0.018-54.118 0.018-81.186 28.332-5.987 57.958-6.299 86.306-0.262zm3573.3 879.15c114.92 27.751 179.22 63.57 248.49 91.789-12.246 21.965-30.492 41.354-54.031 51.109-26.6 11.328-59.065 11-83.85-4.704-11.658-7.143-19.164-19.302-23.418-32.015-2.611-7.074 0.917-14.944-2.265-21.914 5.616-43.491 73.13-45.37 80.858-5.535 1.831 20.316 0.102 30.178-17.693 40.957 9.754-3.65 16.638-12.764 18.645-22.83 1.159-10.828 1.124-22.571-5.448-31.859-16.828-24.491-59.393-21.672-73.974 3.857-3.252 5.31-4.653 11.433-5.863 17.468-27.05-0.035-54.118-0.018-81.186-0.018-5.987-28.33-6.299-57.956-0.262-86.305zm965.46-878.89c0 27.068-0.017 54.136 0.018 81.186-6.035 1.21-12.159 2.611-17.468 5.863-25.529 14.581-28.348 57.146-3.857 73.974 9.288 6.572 21.031 6.606 31.859 5.448 10.066-2.007 19.18-8.891 22.83-18.645-10.779 17.795-20.641 19.524-40.957 17.693-39.835-7.728-37.956-75.242 5.535-80.858 6.97 3.182 14.84-0.346 21.914 2.265 12.713 4.254 24.872 11.76 32.015 23.418 15.704 24.785 16.032 57.25 4.704 83.85-9.755 23.539-29.144 41.786-51.109 54.031-28.219-69.272-64.038-133.57-91.789-248.49 28.348-6.037 57.974-5.725 86.305 0.262zm-965.2-3659.8c27.068 0 54.136 0.017 81.186-0.018 1.21 6.035 2.611 12.159 5.863 17.468 14.581 25.528 57.146 28.348 73.974 3.857 6.572-9.288 6.606-21.031 5.448-31.859-2.007-10.066-8.891-19.18-18.645-22.83 17.795 10.779 19.524 20.641 17.693 40.956-7.728 39.835-75.242 37.956-80.858-5.534 3.182-6.97-0.346-14.84 2.265-21.914 4.254-12.713 11.76-24.872 23.418-32.015 24.785-15.704 57.25-16.032 83.85-4.704 23.539 9.756 41.786 29.144 54.031 51.11-69.272 28.219-133.57 64.038-248.49 91.789-6.037-28.349-5.725-57.975 0.262-86.306zm-3659.8 965.2c0-27.068 0.017-54.136-0.018-81.186 6.035-1.21 12.159-2.611 17.468-5.863 25.528-14.581 28.348-57.146 3.857-73.974-9.288-6.572-21.031-6.606-31.859-5.448-10.066 2.007-19.18 8.891-22.83 18.645 10.779-17.795 20.641-19.524 40.956-17.693 39.835 7.728 37.956 75.242-5.534 80.858-6.97-3.182-14.84 0.346-21.914-2.265-12.713-4.254-24.872-11.76-32.015-23.418-15.704-24.785-16.032-57.25-4.704-83.85 9.756-23.539 29.144-41.786 51.11-54.031 28.219 69.272 64.038 133.57 91.789 248.49-28.349 6.037-57.975 5.725-86.306-0.262zm965.2 3659.8c-27.068 0-54.136-0.017-81.186 0.018-1.21-6.035-2.611-12.159-5.863-17.468-14.581-25.529-57.146-28.348-73.974-3.857-6.572 9.288-6.606 21.031-5.448 31.859 2.007 10.066 8.891 19.18 18.645 22.83-17.795-10.779-19.524-20.641-17.693-40.957 7.728-39.835 75.242-37.956 80.858 5.535-3.182 6.97 0.346 14.84-2.265 21.914-4.254 12.713-11.76 24.872-23.418 32.015-24.785 15.704-57.25 16.032-83.85 4.704-23.539-9.755-41.786-29.144-54.031-51.109 69.272-28.219 133.57-64.038 248.49-91.789 6.037 28.348 5.725 57.974-0.262 86.305zm3674-2312.5c0-8.562 0.012-17.125 0.057-25.69 19.663 6.06 36.998 14.786 52.197 25.69-15.2 10.904-32.534 19.63-52.197 25.69-0.045-8.565-0.056-17.128-0.057-25.69zm-2326.7 2326.7c8.562 0 17.125 0.012 25.69 0.057-6.06 19.663-14.786 36.998-25.69 52.197-10.904-15.2-19.63-32.534-25.69-52.197 8.565-0.045 17.128-0.056 25.69-0.057zm-2326.7-2326.7c0 8.562-0.012 17.125-0.057 25.69-19.663-6.06-36.997-14.786-52.197-25.69 15.2-10.904 32.534-19.63 52.197-25.69 0.045 8.565 0.057 17.128 0.057 25.69zm2326.7-2326.7c-8.562 0-17.125-0.012-25.69-0.057 6.06-19.663 14.786-36.997 25.69-52.197 10.904 15.2 19.63 32.534 25.69 52.197-8.565 0.045-17.128 0.057-25.69 0.057zm2145.8 180.86c83.044 7.241 163.27-31.655 220.63-94.774 46.801-51.057 80.754-112.92 104.29-177.8 8.479-23.714 15.371-48.028 20.372-72.718-24.69 5.001-49.004 11.893-72.718 20.372-64.876 23.539-126.74 57.492-177.8 104.29-63.118 57.36-102.02 137.58-94.774 220.63zm0 4291.7c-7.241 83.044 31.655 163.27 94.774 220.63 51.057 46.801 112.92 80.754 177.8 104.29 23.714 8.479 48.028 15.371 72.718 20.372-5.001-24.69-11.894-49.004-20.372-72.718-23.539-64.876-57.492-126.74-104.29-177.8-57.36-63.118-137.58-102.02-220.63-94.774zm-4291.7 0c-83.044-7.241-163.27 31.655-220.63 94.774-46.801 51.057-80.754 112.92-104.29 177.8-8.479 23.714-15.371 48.028-20.372 72.718 24.69-5.001 49.004-11.894 72.718-20.372 64.877-23.539 126.74-57.492 177.8-104.29 63.12-57.36 102.02-137.58 94.774-220.63zm0-4291.7c7.241-83.044-31.655-163.27-94.774-220.63-51.057-46.801-112.92-80.754-177.8-104.29-23.714-8.479-48.028-15.371-72.718-20.372 5.001 24.69 11.893 49.004 20.372 72.718 23.539 64.877 57.492 126.74 104.29 177.8 57.36 63.12 137.58 102.02 220.63 94.774zm3740 551.63c0.177 1.007 0.362 2.014 0.557 3.018 15.133 83.249 79.252 156.44 182.4 187.3 103.32 31.271 232 15.632 327.18-22.865 11.705 44.438 45.328 81.872 98.308 99.797-13.275 68.736-17.961 148.68 0.243 216.16 15.774 59.195 50.824 112.97 109.57 130.41 0.087 97.367 0.057 194.73 0.039 292.1 0.018 97.369 0.046 194.74-0.039 292.1-58.743 17.436-93.794 71.214-109.57 130.41-18.202 67.487-13.516 147.42-0.243 216.16-31.299 10.589-55.842 27.987-73.102 49.615 17.26 21.628 41.803 39.026 73.102 49.615-13.273 68.736-17.959 148.67 0.243 216.16 15.773 59.196 50.824 112.97 109.57 130.41 0.085 97.367 0.057 194.74 0.039 292.1 0.018 97.37 0.048 194.74-0.039 292.1-58.743 17.437-93.793 71.215-109.57 130.41-18.204 67.485-13.518 147.42-0.243 216.16-52.98 17.925-86.603 55.358-98.308 99.797-95.179-38.497-223.86-54.136-327.18-22.865-103.15 30.85-167.27 104.05-182.4 187.3-0.195 1.005-0.38 2.011-0.557 3.019-1.008 0.177-2.014 0.362-3.019 0.557-83.249 15.133-156.44 79.252-187.3 182.4-31.271 103.32-15.632 232 22.865 327.18-44.438 11.705-81.872 45.328-99.797 98.308-68.736-13.275-148.68-17.961-216.16 0.243-59.195 15.774-112.97 50.824-130.41 109.57-97.367 0.087-194.73 0.057-292.1 0.039-97.369 0.018-194.74 0.046-292.1-0.039-17.436-58.743-71.214-93.794-130.41-109.57-67.487-18.202-147.42-13.516-216.16-0.243-10.589-31.299-27.987-55.842-49.615-73.102-21.628 17.26-39.026 41.803-49.615 73.102-68.736-13.273-148.67-17.959-216.16 0.243-59.196 15.773-112.97 50.824-130.41 109.57-97.367 0.085-194.74 0.057-292.1 0.039-97.37 0.018-194.74 0.048-292.1-0.039-17.437-58.743-71.215-93.793-130.41-109.57-67.485-18.204-147.42-13.518-216.16-0.243-17.925-52.98-55.358-86.603-99.797-98.308 38.497-95.179 54.136-223.86 22.865-327.18-30.85-103.15-104.05-167.27-187.3-182.4-1.005-0.195-2.011-0.38-3.018-0.557-0.177-1.008-0.362-2.014-0.557-3.019-15.133-83.249-79.252-156.44-182.4-187.3-103.32-31.271-232-15.632-327.18 22.865-11.705-44.438-45.328-81.872-98.308-99.797 13.275-68.736 17.961-148.68-0.243-216.16-15.774-59.195-50.824-112.97-109.57-130.41-0.087-97.367-0.057-194.73-0.039-292.1-0.018-97.369-0.047-194.74 0.039-292.1 58.743-17.436 93.794-71.214 109.57-130.41 18.202-67.487 13.516-147.42 0.243-216.16 31.299-10.589 55.842-27.987 73.101-49.615-17.259-21.628-41.803-39.026-73.101-49.615 13.273-68.736 17.959-148.67-0.243-216.16-15.773-59.196-50.824-112.97-109.57-130.41-0.086-97.367-0.057-194.74-0.039-292.1-0.018-97.37-0.048-194.74 0.039-292.1 58.743-17.437 93.793-71.215 109.57-130.41 18.204-67.485 13.518-147.42 0.243-216.16 52.98-17.925 86.603-55.358 98.308-99.797 95.179 38.497 223.86 54.136 327.18 22.865 103.15-30.85 167.27-104.05 182.4-187.3 0.195-1.005 0.38-2.011 0.557-3.018 1.007-0.177 2.014-0.362 3.018-0.557 83.249-15.133 156.44-79.252 187.3-182.4 31.271-103.32 15.632-232-22.865-327.18 44.438-11.705 81.872-45.328 99.797-98.308 68.736 13.275 148.68 17.961 216.16-0.243 59.195-15.774 112.97-50.824 130.41-109.57 97.367-0.087 194.73-0.057 292.1-0.039 97.369-0.018 194.74-0.047 292.1 0.039 17.436 58.743 71.214 93.794 130.41 109.57 67.487 18.202 147.42 13.516 216.16 0.243 10.589 31.299 27.987 55.842 49.615 73.101 21.628-17.259 39.026-41.803 49.615-73.101 68.736 13.273 148.67 17.959 216.16-0.243 59.196-15.773 112.97-50.824 130.41-109.57 97.367-0.086 194.74-0.057 292.1-0.039 97.37-0.018 194.74-0.048 292.1 0.039 17.437 58.743 71.215 93.793 130.41 109.57 67.485 18.204 147.42 13.518 216.16 0.243 17.925 52.98 55.358 86.603 99.797 98.308-38.497 95.179-54.136 223.86-22.865 327.18 30.85 103.15 104.05 167.27 187.3 182.4 1.005 0.195 2.011 0.381 3.019 0.557zm825.78 1594.2c-24.816-24.852-55.773-43.364-93.325-52.901 0.035-48.203 0.087-96.406-0.034-144.61 58.119 28.334 146.75-14.187 136.83-111.78-5.519-59.646-59.32-102.65-136.9-90.3 0.173-96.232 0.168-192.46 0.148-288.7 0.021-96.232 0.025-192.46-0.148-288.7 77.575 12.345 131.38-30.656 136.9-90.3 9.927-97.595-78.707-140.12-136.83-111.78 0.121-48.203 0.069-96.406 0.034-144.61 100.66-25.564 153.93-115.62 168.56-219.4 5.085-38.068 6.503-76.81 2.283-115.05-4.428-38.5-13.716-76.395-26.756-112.87-23.539-64.877-57.491-126.74-104.29-177.8-68.746-75.65-170.34-116.51-270.26-84.835-9.184 3.027-10.74 14.857-19.51 18.437-30.526 12.955-58.478 31.496-83.4 53.288-16.47 14.84-36.794 23.507-56.478 25.088 1.581-19.684 10.248-40.008 25.088-56.478 21.792-24.923 40.333-52.874 53.288-83.4 3.58-8.77 15.41-10.326 18.437-19.51 31.671-99.928-9.185-201.52-84.835-270.26-51.057-46.803-112.92-80.754-177.8-104.29-36.476-13.04-74.372-22.328-112.87-26.756-38.24-4.22-76.983-2.802-115.05 2.283-103.78 14.634-193.83 67.905-219.4 168.56-48.203-0.035-96.406-0.087-144.61 0.034 28.334-58.119-14.187-146.75-111.78-136.83-59.644 5.519-102.64 59.32-90.3 136.9-96.232-0.172-192.46-0.168-288.7-0.148-96.232-0.021-192.46-0.025-288.7 0.148 12.346-77.575-30.655-131.38-90.3-136.9-97.595-9.927-140.12 78.707-111.78 136.83-48.203-0.121-96.406-0.069-144.61-0.034-9.537-37.552-28.049-68.509-52.901-93.325-24.852 24.816-43.364 55.773-52.901 93.325-48.203-0.034-96.406-0.087-144.61 0.034 28.334-58.119-14.187-146.75-111.78-136.83-59.646 5.519-102.65 59.32-90.3 136.9-96.232-0.172-192.46-0.168-288.7-0.148-96.232-0.021-192.46-0.025-288.7 0.148 12.345-77.575-30.656-131.38-90.3-136.9-97.595-9.927-140.12 78.707-111.78 136.83-48.203-0.121-96.406-0.069-144.61-0.034-25.567-100.66-115.62-153.93-219.4-168.57-38.068-5.085-76.81-6.503-115.05-2.283-38.5 4.428-76.395 13.716-112.87 26.756-64.877 23.539-126.74 57.491-177.8 104.29-75.65 68.746-116.51 170.34-84.835 270.26 3.027 9.184 14.857 10.74 18.437 19.51 12.955 30.526 31.496 58.477 53.288 83.4 14.84 16.47 23.507 36.795 25.088 56.478-19.684-1.581-40.008-10.248-56.478-25.088-24.923-21.792-52.874-40.333-83.4-53.288-8.77-3.58-10.326-15.41-19.51-18.437-99.928-31.671-201.52 9.185-270.26 84.835-46.803 51.057-80.754 112.92-104.29 177.8-13.042 36.478-22.33 74.373-26.758 112.87-4.22 38.24-2.802 76.983 2.283 115.05 14.634 103.78 67.905 193.83 168.56 219.4-0.035 48.203-0.087 96.406 0.034 144.61-58.119-28.334-146.75 14.186-136.83 111.78 5.519 59.644 59.32 102.64 136.9 90.3-0.172 96.232-0.168 192.46-0.148 288.7-0.021 96.232-0.025 192.46 0.148 288.7-77.575-12.346-131.38 30.655-136.9 90.3-9.927 97.595 78.707 140.12 136.83 111.78-0.121 48.203-0.069 96.406-0.034 144.61-37.552 9.537-68.509 28.049-93.325 52.901 24.816 24.852 55.773 43.364 93.325 52.901-0.034 48.203-0.087 96.406 0.034 144.61-58.119-28.334-146.75 14.187-136.83 111.78 5.519 59.646 59.32 102.65 136.9 90.3-0.172 96.232-0.168 192.46-0.148 288.7-0.021 96.232-0.025 192.46 0.148 288.7-77.575-12.345-131.38 30.656-136.9 90.3-9.927 97.595 78.707 140.12 136.83 111.78-0.121 48.203-0.069 96.406-0.034 144.61-100.66 25.567-153.93 115.62-168.56 219.4-5.085 38.068-6.503 76.811-2.283 115.05 4.428 38.5 13.716 76.396 26.756 112.87 23.539 64.876 57.491 126.74 104.29 177.8 68.746 75.65 170.34 116.51 270.26 84.835 9.184-3.027 10.74-14.857 19.51-18.437 30.526-12.955 58.477-31.497 83.4-53.288 16.47-14.84 36.795-23.507 56.478-25.088-1.581 19.684-10.248 40.008-25.088 56.478-21.792 24.923-40.333 52.874-53.288 83.4-3.58 8.77-15.41 10.326-18.437 19.51-31.671 99.928 9.185 201.52 84.835 270.26 51.057 46.803 112.92 80.754 177.8 104.29 36.476 13.04 74.372 22.328 112.87 26.756 38.24 4.22 76.983 2.802 115.05-2.283 103.78-14.633 193.83-67.905 219.4-168.56 48.203 0.035 96.406 0.087 144.61-0.034-28.334 58.119 14.186 146.75 111.78 136.83 59.644-5.519 102.64-59.32 90.3-136.9 96.232 0.173 192.46 0.168 288.7 0.148 96.232 0.021 192.46 0.025 288.7-0.148-12.346 77.575 30.655 131.38 90.3 136.9 97.595 9.927 140.12-78.707 111.78-136.83 48.203 0.121 96.406 0.069 144.61 0.034 9.537 37.552 28.049 68.509 52.901 93.325 24.852-24.816 43.364-55.773 52.901-93.325 48.203 0.035 96.406 0.087 144.61-0.034-28.334 58.119 14.187 146.75 111.78 136.83 59.646-5.519 102.65-59.32 90.3-136.9 96.232 0.173 192.46 0.168 288.7 0.148 96.232 0.021 192.46 0.025 288.7-0.148-12.345 77.575 30.656 131.38 90.3 136.9 97.595 9.927 140.12-78.707 111.78-136.83 48.203 0.121 96.406 0.069 144.61 0.034 25.564 100.66 115.62 153.93 219.4 168.56 38.068 5.085 76.811 6.503 115.05 2.283 38.5-4.428 76.396-13.716 112.87-26.756 64.876-23.539 126.74-57.491 177.8-104.29 75.65-68.746 116.51-170.34 84.835-270.26-3.027-9.184-14.857-10.74-18.437-19.51-12.955-30.526-31.497-58.478-53.288-83.4-14.84-16.47-23.507-36.794-25.088-56.478 19.684 1.581 40.008 10.248 56.478 25.088 24.923 21.792 52.874 40.333 83.4 53.288 8.77 3.58 10.326 15.41 19.51 18.437 99.928 31.671 201.52-9.185 270.26-84.835 46.803-51.057 80.754-112.92 104.29-177.8 13.04-36.476 22.328-74.372 26.756-112.87 4.22-38.24 2.802-76.983-2.283-115.05-14.633-103.78-67.905-193.83-168.56-219.4 0.035-48.203 0.087-96.406-0.034-144.61 58.119 28.334 146.75-14.187 136.83-111.78-5.519-59.644-59.32-102.64-136.9-90.3 0.173-96.232 0.168-192.46 0.148-288.7 0.021-96.232 0.025-192.46-0.148-288.7 77.575 12.346 131.38-30.655 136.9-90.3 9.927-97.595-78.707-140.12-136.83-111.78 0.121-48.203 0.069-96.406 0.034-144.61 37.556-9.538 68.513-28.05 93.329-52.902zm-81.247-2338.7c-8.124 30.784-23.816 59.247-44.959 80.665-21.884 22.137-50.147 37.26-80.352 44.646 7.386-30.205 22.509-58.468 44.646-80.352 21.418-21.143 49.881-36.835 80.665-44.959zm-4677.5 0c30.784 8.124 59.247 23.816 80.665 44.959 22.137 21.884 37.26 50.147 44.646 80.352-30.205-7.386-58.468-22.509-80.352-44.646-21.143-21.418-36.835-49.881-44.959-80.665zm0 4677.5c8.124-30.784 23.816-59.247 44.959-80.666 21.884-22.137 50.147-37.259 80.352-44.646-7.386 30.205-22.509 58.468-44.646 80.352-21.418 21.144-49.881 36.837-80.665 44.96zm4677.5 0c-30.784-8.124-59.247-23.816-80.666-44.959-22.137-21.884-37.259-50.147-44.646-80.352 30.205 7.386 58.468 22.509 80.352 44.646 21.144 21.418 36.837 49.881 44.96 80.665zm-150.9-4526.6c13.162-0.943 26.321-3.133 39.188-6.576 84.776-22.669 135.65-97.435 142.34-174.96-77.523 6.696-152.29 57.569-174.96 142.34-3.442 12.869-5.632 26.027-6.575 39.189zm-4375.7 0c-0.943-13.162-3.133-26.321-6.576-39.188-22.669-84.776-97.435-135.65-174.96-142.34 6.696 77.523 57.569 152.29 142.34 174.96 12.869 3.442 26.027 5.632 39.189 6.575zm0 4375.7c-13.162 0.943-26.321 3.133-39.188 6.576-84.776 22.669-135.65 97.435-142.34 174.96 77.523-6.696 152.29-57.569 174.96-142.34 3.442-12.868 5.632-26.027 6.575-39.189zm4375.7 0c0.943 13.162 3.133 26.321 6.576 39.188 22.669 84.776 97.435 135.65 174.96 142.34-6.696-77.523-57.569-152.29-142.34-174.96-12.868-3.442-26.027-5.632-39.189-6.575zm263.47-4639.2c-24.225 77.337-68.18 152.3-126.89 203.27-37.528 32.786-86.527 57.145-138.89 62.516 5.37-52.365 29.729-101.36 62.516-138.89 50.973-58.714 125.93-102.67 203.27-126.89zm-4902.6 0c77.337 24.225 152.3 68.18 203.27 126.89 32.786 37.528 57.145 86.527 62.516 138.89-52.365-5.37-101.36-29.729-138.89-62.516-58.714-50.973-102.67-125.93-126.89-203.27zm0 4902.6c24.225-77.337 68.18-152.3 126.89-203.27 37.528-32.787 86.527-57.146 138.89-62.516-5.37 52.365-29.729 101.36-62.516 138.89-50.973 58.714-125.93 102.67-203.27 126.89zm4902.6 0c-77.337-24.225-152.3-68.18-203.27-126.89-32.787-37.528-57.146-86.527-62.516-138.89 52.365 5.37 101.36 29.729 138.89 62.516 58.714 50.973 102.67 125.93 126.89 203.27zm-526.5-4376.1c21.249 1.539 44.615-4.351 66.044-18.656 12.043-7.848 42.996-37.802 92.152-56.678 5.812-2.283 11.467 1.315 16.967 2.767 5.016 1.764 10.119-0.502 14.979-1.608 77.476-19.369 155.38 10.378 209.47 57.629 85.367 74.111 139.54 198.93 147.22 308.04 5.509 120.18-29.809 246.98-144.89 282.44-0.138-26.151 0.034-52.285-0.104-78.419 15.428-3.614 30.838-11.069 40.108-24.386 28.355-39.959 20.635-112.18-45.904-149.62 2.559-5.534 5.137-11.103 6.608-17.036-3.667 4.86-6.642 10.204-9.875 15.341-3.545-1.712-7.109-3.391-10.69-5.016 3.373-6.831 6.572-13.836 7.99-21.36-3.217 6.97-6.746 13.802-10.55 20.495-42.357-16.396-92.237-12.677-131.45 10.36-6.226 3.355-11.312 8.855-18.281 10.706-120.17 36.684-251.01 38.483-371.7 3.164-45.964-13.23-87.594-31.421-132.95-63.298-31.878-45.357-50.069-86.987-63.299-132.95-35.319-120.69-33.52-251.53 3.165-371.7 1.851-6.969 7.351-12.055 10.706-18.281 23.038-39.21 26.756-89.091 10.36-131.45 6.693-3.805 13.525-7.333 20.495-10.55-7.523 1.418-14.529 4.617-21.36 7.99-1.625-3.581-3.304-7.144-5.016-10.69 5.137-3.233 10.481-6.209 15.341-9.876-5.934 1.47-11.502 4.049-17.037 6.608-37.45-66.539-109.66-74.259-149.62-45.904-13.317 9.27-20.772 24.68-24.386 40.108-26.134-0.138-52.268 0.035-78.419-0.103 35.464-115.08 162.26-150.4 282.44-144.89 109.11 7.685 233.93 61.853 308.04 147.22 47.251 54.084 76.998 131.99 57.629 209.47-1.106 4.86-3.373 9.962-1.608 14.978 1.453 5.5 5.05 11.156 2.767 16.968-18.877 49.156-48.831 80.109-56.678 92.152-14.306 21.429-20.196 44.795-18.656 66.044zm-3849.6 0c1.539-21.249-4.351-44.615-18.656-66.044-7.848-12.043-37.802-42.995-56.678-92.152-2.283-5.812 1.315-11.468 2.767-16.968 1.764-5.016-0.502-10.118-1.608-14.978-19.369-77.475 10.378-155.38 57.629-209.47 74.111-85.367 198.93-139.54 308.04-147.22 120.18-5.509 246.98 29.809 282.44 144.89-26.151 0.138-52.285-0.034-78.419 0.103-3.614-15.428-11.069-30.838-24.386-40.108-39.959-28.355-112.18-20.636-149.62 45.904-5.534-2.559-11.103-5.137-17.036-6.608 4.86 3.667 10.204 6.642 15.341 9.876-1.712 3.545-3.391 7.109-5.016 10.69-6.831-3.373-13.836-6.572-21.36-7.99 6.97 3.217 13.802 6.745 20.495 10.55-16.396 42.357-12.677 92.237 10.36 131.45 3.355 6.225 8.855 11.312 10.706 18.281 36.684 120.17 38.483 251.01 3.164 371.7-13.23 45.964-31.421 87.594-63.298 132.95-45.357 31.878-86.987 50.069-132.95 63.298-120.69 35.319-251.53 33.52-371.7-3.164-6.969-1.851-12.055-7.351-18.281-10.706-39.21-23.037-89.091-26.756-131.45-10.36-3.805-6.693-7.333-13.524-10.55-20.495 1.418 7.524 4.617 14.529 7.99 21.36-3.581 1.625-7.144 3.304-10.69 5.016-3.233-5.137-6.209-10.481-9.876-15.341 1.47 5.933 4.049 11.502 6.608 17.036-66.539 37.45-74.259 109.66-45.904 149.62 9.27 13.317 24.68 20.772 40.108 24.386-0.138 26.134 0.035 52.268-0.103 78.419-115.08-35.465-150.4-162.26-144.89-282.44 7.685-109.11 61.853-233.93 147.22-308.04 54.084-47.251 131.99-76.998 209.47-57.629 4.86 1.106 9.962 3.373 14.978 1.608 5.5-1.453 11.156-5.05 16.968-2.767 49.156 18.877 80.109 48.831 92.152 56.678 21.43 14.306 44.796 20.196 66.045 18.657zm0 3849.6c-21.249-1.54-44.615 4.351-66.044 18.656-12.043 7.848-42.995 37.801-92.152 56.678-5.812 2.283-11.468-1.314-16.968-2.767-5.016-1.765-10.118 0.502-14.978 1.608-77.475 19.369-155.38-10.377-209.47-57.629-85.367-74.111-139.54-198.93-147.22-308.04-5.509-120.18 29.809-246.98 144.89-282.44 0.138 26.151-0.034 52.285 0.103 78.419-15.428 3.614-30.838 11.069-40.108 24.386-28.355 39.959-20.636 112.18 45.904 149.62-2.559 5.534-5.137 11.103-6.608 17.037 3.667-4.86 6.642-10.204 9.876-15.341 3.545 1.712 7.109 3.391 10.69 5.016-3.373 6.831-6.572 13.836-7.99 21.36 3.217-6.97 6.745-13.802 10.55-20.495 42.357 16.396 92.237 12.678 131.45-10.36 6.225-3.354 11.312-8.854 18.281-10.706 120.17-36.684 251.01-38.483 371.7-3.165 45.964 13.23 87.594 31.421 132.95 63.299 31.878 45.357 50.069 86.987 63.298 132.95 35.319 120.69 33.52 251.53-3.164 371.7-1.851 6.969-7.351 12.055-10.706 18.281-23.037 39.21-26.756 89.09-10.36 131.45-6.693 3.805-13.524 7.333-20.495 10.55 7.524-1.418 14.529-4.617 21.36-7.99 1.625 3.581 3.304 7.145 5.016 10.69-5.137 3.233-10.481 6.209-15.341 9.875 5.933-1.471 11.502-4.049 17.036-6.608 37.45 66.539 109.66 74.259 149.62 45.904 13.317-9.27 20.772-24.68 24.386-40.108 26.134 0.138 52.268-0.035 78.419 0.104-35.464 115.08-162.26 150.4-282.44 144.89-109.11-7.685-233.93-61.853-308.04-147.22-47.251-54.083-76.998-131.99-57.629-209.47 1.106-4.86 3.373-9.962 1.608-14.979-1.453-5.5-5.05-11.156-2.767-16.967 18.877-49.156 48.831-80.109 56.678-92.152 14.305-21.43 20.195-44.795 18.656-66.044zm3849.6 0c-1.54 21.249 4.351 44.615 18.656 66.044 7.848 12.043 37.801 42.996 56.678 92.152 2.283 5.812-1.314 11.467-2.767 16.967-1.765 5.016 0.502 10.119 1.608 14.979 19.369 77.476-10.377 155.38-57.629 209.47-74.111 85.367-198.93 139.54-308.04 147.22-120.18 5.509-246.98-29.809-282.44-144.89 26.151-0.138 52.285 0.034 78.419-0.104 3.614 15.428 11.069 30.838 24.386 40.108 39.959 28.355 112.18 20.635 149.62-45.904 5.534 2.559 11.103 5.137 17.037 6.608-4.86-3.667-10.204-6.642-15.341-9.875 1.712-3.545 3.391-7.109 5.016-10.69 6.831 3.373 13.836 6.572 21.36 7.99-6.97-3.217-13.802-6.746-20.495-10.55 16.396-42.357 12.678-92.237-10.36-131.45-3.354-6.226-8.854-11.312-10.706-18.281-36.684-120.17-38.483-251.01-3.165-371.7 13.23-45.964 31.421-87.594 63.299-132.95 45.357-31.878 86.987-50.069 132.95-63.299 120.69-35.319 251.53-33.52 371.7 3.165 6.969 1.851 12.055 7.351 18.281 10.706 39.21 23.038 89.09 26.756 131.45 10.36 3.805 6.693 7.333 13.525 10.55 20.495-1.418-7.523-4.617-14.529-7.99-21.36 3.581-1.625 7.145-3.304 10.69-5.016 3.233 5.137 6.209 10.481 9.875 15.341-1.471-5.934-4.049-11.502-6.608-17.037 66.539-37.45 74.259-109.66 45.904-149.62-9.27-13.317-24.68-20.772-40.108-24.386 0.138-26.134-0.035-52.268 0.104-78.419 115.08 35.464 150.4 162.26 144.89 282.44-7.685 109.11-61.853 233.93-147.22 308.04-54.083 47.251-131.99 76.998-209.47 57.629-4.86-1.106-9.962-3.373-14.979-1.608-5.5 1.453-11.156 5.05-16.967 2.767-49.156-18.877-80.109-48.831-92.152-56.678-21.43-14.306-44.795-20.196-66.044-18.656zm-113.73-3735.9c2.02 0.604 3.998 1.261 5.93 1.97 43.765 15.806 68.624 74.438 53.496 115.1-11.192 30.965-46.264 37.6-66.692 28.105-15.1-6.833-23.436-25.857-17.918-41.544 3.113-9.823 11.952-18.489 22.589-19.042 9.011-0.657 19.717-0.657 26.082 6.884 5.812 4.773 5.293 12.815 4.878 19.579-0.225 5.259-4.029 9.34-6.331 13.785 7.212-6.936 8.371-17.192 6.78-26.6-2.317-6.642-8.129-11.934-14.839-13.905-5.362-0.899-10.862-0.778-16.293-0.675-7.99-0.312-15.375 4.428-20.132 10.568-14.593 19.907-3.967 52.584 26.204 57.248 37.308 5.183 64.372-19.88 65.152-59.825 0.759-40.883-22.801-82.931-60.459-100.1-17.166-37.659-59.215-61.219-100.1-60.459-39.945 0.781-65.008 27.845-59.825 65.153 4.664 30.171 37.341 40.797 57.249 26.203 6.14-4.756 10.88-12.142 10.568-20.132 0.104-5.431 0.225-10.931-0.674-16.293-1.971-6.71-7.263-12.522-13.905-14.839-9.408-1.591-19.664-0.432-26.6 6.78 4.445-2.301 8.526-6.106 13.785-6.331 6.763-0.415 14.806-0.934 19.579 4.878 7.54 6.365 7.54 17.071 6.884 26.082-0.553 10.637-9.219 19.475-19.042 22.589-15.687 5.518-34.711-2.818-41.544-17.918-9.495-20.428-2.86-55.5 28.105-66.692 40.666-15.127 99.297 9.731 115.1 53.496 0.707 1.931 1.364 3.909 1.968 5.93zm-3622.2 0c0.604-2.02 1.261-3.998 1.97-5.93 15.806-43.765 74.438-68.623 115.1-53.496 30.965 11.192 37.6 46.264 28.105 66.692-6.833 15.1-25.857 23.436-41.544 17.918-9.823-3.114-18.489-11.952-19.042-22.589-0.657-9.011-0.657-19.717 6.884-26.082 4.773-5.812 12.815-5.293 19.579-4.878 5.259 0.225 9.34 4.029 13.785 6.331-6.936-7.212-17.192-8.371-26.6-6.78-6.642 2.317-11.934 8.129-13.905 14.839-0.899 5.362-0.778 10.862-0.675 16.293-0.312 7.99 4.428 15.376 10.568 20.132 19.907 14.594 52.584 3.967 57.248-26.203 5.183-37.308-19.88-64.372-59.825-65.153-40.883-0.759-82.931 22.801-100.1 60.459-37.659 17.166-61.219 59.215-60.459 100.1 0.781 39.945 27.845 65.008 65.153 59.825 30.171-4.664 40.797-37.341 26.203-57.248-4.756-6.14-12.142-10.88-20.132-10.568-5.431-0.103-10.931-0.225-16.293 0.675-6.71 1.971-12.522 7.263-14.839 13.905-1.591 9.408-0.432 19.664 6.78 26.6-2.301-4.445-6.106-8.527-6.331-13.785-0.415-6.763-0.934-14.806 4.878-19.579 6.365-7.54 17.071-7.54 26.082-6.884 10.637 0.553 19.475 9.219 22.589 19.042 5.518 15.687-2.818 34.712-17.918 41.544-20.428 9.495-55.5 2.86-66.692-28.105-15.127-40.666 9.731-99.297 53.496-115.1 1.931-0.709 3.909-1.366 5.93-1.97zm0 3622.2c-2.02-0.604-3.998-1.262-5.93-1.97-43.765-15.806-68.623-74.438-53.496-115.1 11.192-30.965 46.264-37.601 66.692-28.105 15.1 6.833 23.436 25.857 17.918 41.544-3.114 9.823-11.952 18.489-22.589 19.042-9.011 0.656-19.717 0.656-26.082-6.884-5.812-4.773-5.293-12.815-4.878-19.579 0.225-5.259 4.029-9.34 6.331-13.785-7.212 6.936-8.371 17.192-6.78 26.6 2.317 6.642 8.129 11.934 14.839 13.905 5.362 0.899 10.862 0.778 16.293 0.674 7.99 0.312 15.376-4.428 20.132-10.568 14.594-19.907 3.967-52.584-26.203-57.249-37.308-5.183-64.372 19.88-65.153 59.825-0.759 40.883 22.801 82.932 60.459 100.1 17.166 37.659 59.215 61.219 100.1 60.459 39.945-0.781 65.008-27.845 59.825-65.152-4.664-30.171-37.341-40.797-57.248-26.204-6.14 4.757-10.88 12.142-10.568 20.132-0.103 5.431-0.225 10.931 0.675 16.293 1.971 6.709 7.263 12.521 13.905 14.839 9.408 1.591 19.664 0.432 26.6-6.78-4.445 2.301-8.527 6.105-13.785 6.331-6.763 0.415-14.806 0.934-19.579-4.878-7.54-6.365-7.54-17.071-6.884-26.082 0.553-10.637 9.219-19.476 19.042-22.589 15.687-5.518 34.712 2.818 41.544 17.918 9.495 20.428 2.86 55.5-28.105 66.692-40.666 15.127-99.297-9.731-115.1-53.496-0.709-1.929-1.366-3.908-1.97-5.928zm3622.2 0c-0.604 2.02-1.262 3.998-1.97 5.93-15.806 43.765-74.438 68.624-115.1 53.496-30.965-11.192-37.601-46.264-28.105-66.692 6.833-15.1 25.857-23.436 41.544-17.918 9.823 3.113 18.489 11.952 19.042 22.589 0.656 9.011 0.656 19.717-6.884 26.082-4.773 5.812-12.815 5.293-19.579 4.878-5.259-0.225-9.34-4.029-13.785-6.331 6.936 7.212 17.192 8.371 26.6 6.78 6.642-2.317 11.934-8.129 13.905-14.839 0.899-5.362 0.778-10.862 0.674-16.293 0.312-7.99-4.428-15.375-10.568-20.132-19.907-14.593-52.584-3.967-57.249 26.204-5.183 37.308 19.88 64.372 59.825 65.152 40.883 0.759 82.932-22.801 100.1-60.459 37.659-17.166 61.219-59.215 60.459-100.1-0.781-39.945-27.845-65.008-65.152-59.825-30.171 4.664-40.797 37.341-26.204 57.249 4.757 6.14 12.142 10.88 20.132 10.568 5.431 0.104 10.931 0.225 16.293-0.674 6.709-1.971 12.521-7.263 14.839-13.905 1.591-9.408 0.432-19.664-6.78-26.6 2.301 4.445 6.105 8.526 6.331 13.785 0.415 6.763 0.934 14.806-4.878 19.579-6.365 7.54-17.071 7.54-26.082 6.884-10.637-0.553-19.476-9.219-22.589-19.042-5.518-15.687 2.818-34.711 17.918-41.544 20.428-9.495 55.5-2.86 66.692 28.105 15.127 40.666-9.731 99.297-53.496 115.1-1.929 0.707-3.908 1.364-5.928 1.968zm29.151-3651.3c75.604 103.82 162.48 267.11 369.43 222.05 224.56-45.255 197.5-328.64 17.365-376.8-76.13-20.369-162.44 3.133-199.47 69.01-33.049 59.287-21.7 127.46 24.595 168.79 40.62 36.453 96.431 39.821 132.35 15.843 27.293-18.039 43.827-50.988 42.616-83.607-0.259-14.251-6.262-27.674-14.425-39.105-22.312-31.224-59.775-28.977-79.318-9.634-20.692 20.449-12.152 56.076 11 61.814 14.355 2.301 31.772-5.707 34.695-21.049-4.463 14.131-20.791 21.983-34.833 18.645-11.536-3.805-18.8-15.998-18.991-27.812-2.911-43.978 73.563-64.067 91.822 5.95 6.659 39.002-18.281 81.514-56.367 93.31-54.842 17.381-118.33-22.099-132.31-83.884-11.156-48.6 11.156-102.87 53.425-129.42 65.031-41.735 157.94-29.835 211.98 24.819 82.05 83.119 82.014 272.34-123.89 291.52-168.66 15.028-233.53-119.98-308.89-221.2-101.21-75.366-236.23-140.23-221.2-308.89 19.182-205.9 208.4-205.94 291.52-123.89 54.655 54.031 66.554 146.94 24.819 211.98-26.549 42.27-80.823 64.581-129.42 53.426-61.785-13.981-101.27-77.47-83.884-132.31 11.796-38.086 54.308-63.025 93.31-56.367 70.017 18.259 49.927 94.733 5.95 91.822-11.814-0.191-24.007-7.455-27.812-18.991-3.338-14.043 4.514-30.37 18.645-34.833-15.343 2.923-23.351 20.34-21.05 34.695 5.739 23.152 41.365 31.692 61.814 11 19.343-19.543 21.59-57.007-9.634-79.318-11.432-8.164-24.854-14.166-39.105-14.425-32.619-1.211-65.567 15.323-83.607 42.616-23.978 35.916-20.609 91.727 15.843 132.35 41.325 46.295 109.5 57.644 168.79 24.595 65.877-37.034 89.379-123.34 69.01-199.47-48.168-180.14-331.55-207.2-376.8 17.365-45.064 206.94 118.23 293.82 222.05 369.42zm-3680.5 0c103.82-75.604 267.11-162.48 222.05-369.43-45.255-224.56-328.64-197.5-376.8-17.365-20.369 76.13 3.133 162.44 69.01 199.47 59.287 33.049 127.46 21.7 168.79-24.595 36.453-40.62 39.821-96.431 15.843-132.35-18.039-27.293-50.988-43.827-83.607-42.616-14.251 0.259-27.674 6.262-39.105 14.425-31.224 22.312-28.977 59.775-9.634 79.318 20.449 20.692 56.076 12.152 61.814-11 2.301-14.355-5.707-31.772-21.049-34.695 14.131 4.463 21.983 20.79 18.645 34.833-3.805 11.537-15.998 18.801-27.812 18.991-43.978 2.911-64.067-73.563 5.95-91.822 39.002-6.659 81.514 18.281 93.31 56.367 17.381 54.842-22.099 118.33-83.884 132.31-48.6 11.156-102.87-11.156-129.42-53.426-41.735-65.031-29.835-157.94 24.819-211.98 83.119-82.05 272.34-82.014 291.52 123.89 15.028 168.66-119.98 233.53-221.2 308.89-75.367 101.22-140.23 236.23-308.89 221.2-205.9-19.182-205.94-208.4-123.89-291.52 54.031-54.655 146.94-66.554 211.98-24.819 42.27 26.549 64.581 80.823 53.426 129.42-13.981 61.785-77.47 101.27-132.31 83.884-38.086-11.796-63.025-54.308-56.367-93.31 18.259-70.016 94.733-49.927 91.822-5.95-0.191 11.814-7.455 24.007-18.991 27.812-14.043 3.338-30.37-4.514-34.833-18.645 2.923 15.343 20.34 23.35 34.695 21.049 23.152-5.739 31.692-41.365 11-61.814-19.543-19.343-57.007-21.59-79.318 9.634-8.164 11.432-14.166 24.854-14.425 39.105-1.211 32.619 15.323 65.568 42.616 83.607 35.916 23.978 91.727 20.609 132.35-15.843 46.295-41.325 57.644-109.5 24.595-168.79-37.034-65.877-123.34-89.379-199.47-69.01-180.14 48.168-207.2 331.55 17.365 376.8 206.95 45.063 293.82-118.23 369.43-222.05zm0 3680.5c-75.604-103.82-162.48-267.11-369.43-222.05-224.56 45.255-197.5 328.64-17.365 376.8 76.13 20.369 162.44-3.133 199.47-69.01 33.049-59.287 21.7-127.46-24.595-168.79-40.62-36.453-96.431-39.821-132.35-15.843-27.293 18.04-43.827 50.988-42.616 83.607 0.259 14.251 6.262 27.674 14.425 39.105 22.312 31.225 59.775 28.977 79.318 9.634 20.692-20.449 12.152-56.076-11-61.814-14.355-2.301-31.772 5.707-34.695 21.05 4.463-14.131 20.79-21.983 34.833-18.645 11.537 3.805 18.801 15.998 18.991 27.812 2.911 43.978-73.563 64.067-91.822-5.95-6.659-39.002 18.281-81.514 56.367-93.31 54.842-17.381 118.33 22.099 132.31 83.884 11.156 48.6-11.156 102.87-53.426 129.42-65.031 41.735-157.94 29.835-211.98-24.819-82.05-83.119-82.014-272.34 123.89-291.52 168.66-15.028 233.53 119.98 308.89 221.2 101.21 75.366 236.23 140.23 221.2 308.89-19.182 205.9-208.4 205.94-291.52 123.89-54.655-54.031-66.554-146.94-24.819-211.98 26.549-42.27 80.823-64.581 129.42-53.425 61.785 13.981 101.27 77.47 83.884 132.31-11.796 38.086-54.308 63.025-93.31 56.367-70.016-18.259-49.927-94.732-5.95-91.822 11.814 0.191 24.007 7.455 27.812 18.991 3.338 14.043-4.514 30.371-18.645 34.833 15.343-2.923 23.35-20.34 21.049-34.695-5.739-23.152-41.365-31.692-61.814-11-19.343 19.543-21.59 57.007 9.634 79.318 11.432 8.164 24.854 14.166 39.105 14.425 32.619 1.211 65.568-15.323 83.607-42.616 23.978-35.916 20.609-91.727-15.843-132.35-41.325-46.295-109.5-57.644-168.79-24.595-65.877 37.034-89.379 123.34-69.01 199.47 48.168 180.14 331.55 207.2 376.8-17.365 45.065-206.94-118.23-293.82-222.05-369.42zm3680.5 0c-103.82 75.604-267.11 162.48-222.05 369.43 45.255 224.56 328.64 197.5 376.8 17.365 20.369-76.13-3.133-162.44-69.01-199.47-59.287-33.049-127.46-21.7-168.79 24.595-36.453 40.62-39.821 96.431-15.843 132.35 18.04 27.293 50.988 43.827 83.607 42.616 14.251-0.259 27.674-6.262 39.105-14.425 31.225-22.312 28.977-59.775 9.634-79.318-20.449-20.692-56.076-12.152-61.814 11-2.301 14.355 5.707 31.772 21.05 34.695-14.131-4.463-21.983-20.791-18.645-34.833 3.805-11.536 15.998-18.8 27.812-18.991 43.978-2.911 64.067 73.563-5.95 91.822-39.002 6.659-81.514-18.281-93.31-56.367-17.381-54.842 22.099-118.33 83.884-132.31 48.6-11.156 102.87 11.156 129.42 53.425 41.735 65.031 29.835 157.94-24.819 211.98-83.119 82.05-272.34 82.014-291.52-123.89-15.028-168.66 119.98-233.53 221.2-308.89 75.366-101.21 140.23-236.23 308.89-221.2 205.9 19.182 205.94 208.4 123.89 291.52-54.031 54.655-146.94 66.554-211.98 24.819-42.27-26.549-64.581-80.823-53.425-129.42 13.981-61.785 77.47-101.27 132.31-83.884 38.086 11.796 63.025 54.308 56.367 93.31-18.259 70.017-94.732 49.927-91.822 5.95 0.191-11.814 7.455-24.007 18.991-27.812 14.043-3.338 30.371 4.514 34.833 18.645-2.923-15.343-20.34-23.351-34.695-21.05-23.152 5.739-31.692 41.365-11 61.814 19.543 19.343 57.007 21.59 79.318-9.634 8.164-11.432 14.166-24.854 14.425-39.105 1.211-32.619-15.323-65.567-42.616-83.607-35.916-23.978-91.727-20.609-132.35 15.843-46.295 41.325-57.644 109.5-24.595 168.79 37.034 65.877 123.34 89.379 199.47 69.01 180.14-48.168 207.2-331.55-17.365-376.8-206.94-45.064-293.82 118.23-369.42 222.05z"/> </svg>