<?xml version='1.0' encoding='utf-8'?>
<svg xmlns="http://www.w3.org/2000/svg" enable-background="new 0 0 4260.1128 5000" version="1.1" viewBox="0 0 4260.1 5e3"> <path d="m4120.3 3265c5.3623 15.357 27.512 28.878 59.492 18.994 62.591-19.337 95.483-89.54 73.564-151.21-25.674-72.209-110.3-119.97-207.92-84.614 51.873-358.32 46.966-449.02 55.586-793.05 21.144-439.99 172.96-398 148.41-468.51-3.5552-10.225-13.912-18.208-23.257-22.9-47.261-23.721-96.86-3.9113-142.66 12.27 75.019-120.07 138.25-248.36 138.01-393.42-0.439-271.6-167.27-418.71-263.91-418.11l-3.0471 3.6036c21.665 16.064 40.64 32.187 55.03 55.327 20.117 32.344 32.725 71.177 22.852 109.09-14.673 56.349-42.4 62.908-76.055 78.975-16.738 7.9934-32.881 17.339-48.823 26.802 102.41-206 14.412-500.87-182.27-616.22-30.952-18.154-63.921-31.934-97.807-43.526-47.954-16.401-92.198-28.12-142.45-14.751l38.564 22.363c35.981 23.449 69.892 69.962 81.982 131.7 6.2793 30.391 5.8398 63.55 3.0029 94.365-12.852-51.185-27.161-105.4-54.36-153.3-39.595-69.727-112.3-131.29-181.71-169.77-59.429-32.946-123.55-55.912-191.63-36.301 23.511 32.992 34.385 64.045 42.91 103.45l-23.11-39.155c-47.344-75.373-134.35-133.3-220.92-152.74-36.084-8.1031-72.056-7.0876-108.59-10.692-34.835-3.437-173.88-40.408-276.84 24.71 20.342 24.065 33.745 49.766 47.085 78.124-215.42-103.49-322.33-118.42-536.85-165.84-109.58-22.336-319.16-52.648-399.09-132.9 21.058-13.353 37.937-23.39 33.936-51.523-2.8988-20.412-38.53-48.508-83.071-42.138-57.144 8.1734-101.2 61.118-87.061 144.4-84.664-5.9618-105.47 18.314-227.42-4.2613 8.3007-5.6723 16.924-11.54 23.887-18.848 30.196-31.693 13.486-88.456-21.734-117.35-52.782-43.296-151.14-36.317-203.87 32.034-30.068 38.973-33.804 76.847-27.866 124-117.8-58.495-131.96 14.941-207.7-1.31-30.591-6.565-57.237-24.887-74.194-51.126-23.213-35.922-21.651-72.129-12.49-112.11-103.18 25.858-170.96 124.38-169.36 229.14-168.5-73.634-281.75-12.06-345.27-23.374-102-18.164-190.81-153.21-167.32-265.26h-8.5301c-250.36 216.7-127.56 683.19 331.21 812.34 70.863 19.948 90.581 19.998 124.69 21.323-11.148 12.231-20.737 23.266-26.973 38.916-17.734 44.488-1.0644 89.526-66.484 92.354-12.847 0.5566-18.667-1.4403-29.59-7.9296l-4.1895 2.5145c-1.88 19.961 7.6417 34.097 19.785 48.96 10.64 13.027 21.064 21.733 36.636 28.491-24.839 29.145-37.168 58.506-34.746 97.002 4.5554 72.519 69.821 158.15 169.58 148.76 57.955-5.4559 100.74-39.739 136.33-84.746 41.86 159.2 144.52 314.63 288.17 398.82 26.782 15.698 57.476 32.06 87.402 40.664-64.332 180.31 131.43 290.65 286.85 261.87-58.373 123.16 54.006 253.17 208.7 191.74 65.654-26.074 106.89-77.7 133.96-141.06 46.98-109.95 22.598-235.3 108.23-396.46 139.89-263.29 497.62-372.17 791.24-338.79 27.492 3.1235 76.492 7.7678 103.58 19.687-52.525-4.8923-104.13-15.522-157.05-18.037-434.35-20.599-762.15 258.91-795.86 645.65-13.999 160.53 30.522 354.17 135.73 479.07 170.07 201.9 487.38 268.76 683.87 99.56 64.043-55.156 114.96-151.24 120.58-236.24 14.298-216.14-214.31-405.5-431.51-234.97 24.703-94.493 2.0845-140.22-6.9187-171.54 42.52 6.7139 79.917 5.5958 116.23-20.513 27.719-19.931 36.822-37.563 48.96-65.698 51.671 39.085 145.53 35.606 178.56-15.537 8.1052-12.549 12.056-30.937 8.8135-45.581-5.7424-25.958-40.519-31.471-67.134-27.539 17.031-18.701 35.971-37.505 57.539-50.982 69.269-43.28 198.57-71.452 321.39-38.833 8.4575 2.2412 22.505 5.1465 29.361 10.43l1.553 1.4893c-19.488-2.2804-38.55-5.9863-58.213-6.8798-73.423-3.3352-148.96 10.893-207.42 57.119 39.367-14.247 45.105-17.574 100.08-25.068 45.492-6.2091 141.35-8.4257 175.69 8.6718-59.48-0.9121-108.73-13.26-192.7 37.022 18.11-2.5342 37.559-5.5421 55.835-4.9952-17.632 7.6321-35.522 15.484-51.572 26.128-61.411 40.737-117.13 115.38-144.47 183.85-6.45 16.162-15.498 34.702-7.4561 51.699 13.092 27.69 49.95 29.176 79.848 28.789 51.118-0.6692 93.882-15.308 141.15-33.154-5.1785 40.931-0.3474 73.901 28.057 108.66 50.914 62.311 135.8 56.262 157.95 61.176-43.179 33.789-81.289 75.977-88.706 132.85-14.027 107.42 61.171 69.786 130.03 77.3 106.79 11.65 217.52 81.748 287.83 160.69 184.76 207.46 246.81 552.5 229.39 822.02-0.8057 12.451-1.2744 24.936-4.3652 37.075-6.3623-49.653-9.6584-99.302-20.43-148.31-44.646-203.09-165.89-373.57-276.08-459.25-176.44-137.18-402.64-226.72-628.76-198.47-195.3 24.404-391.57 134.13-511.54 290.91-163.42 213.57-162.07 538.33 33.188 686.66 220.32 167.37 541.01 32.688 499.75-251.89l-10.454-49.111c56.035 29.946 120.63 55.503 184.48 35.137 47.222-15.059 80.127-46.997 105.22-88.526 22.842 29.707 44.253 50.61 82.818 56.386 24.384 3.6526 48.501-0.0146 71.094-9.7214 4.7803 24.199 7.5586 46.816 30.225 61.05 20.53 12.895 45.417 13.746 67.139-3.7207 7.9148 4.0723 15.449 19.365 20.244 26.963 23.589 37.379 54.377 88.924 66.88 131.87-157.38-141.19-431.18-137.93-592.52 43.926-80.806 91.084-113.22 193.19-105.47 314.01 8.6082 134.2 65.298 261.27 168.06 349.56 77.856 66.895 183.28 104.14 240.64 193.23 20.223 31.395 30.204 69.61 41.03 79.785 5.5469 5.21 8.4961 4.9854 15.869 4.8926 5.6838-4.2627 8.1252-6.2744 10.986-13.057 5.6348 3.5254 7.1438 12.646 8.457 19.141 3.7451 18.53 0.3711 34.19-5.6934 51.719l-5.2051 4.6533c-9.072-1.626-13.564-3.4082-20.752-9.2383-8.9795 1.8701-19.062 3.8281-24.575 11.987-5.8833 8.7158-7.6609 26.484-4.8386 36.372 12.763 44.77 87.902 53.203 134.7 34.839 29.209-11.465 48.691-28.818 69.951-51.504 2.7344-2.9199 0.9326-2.1387 5.8203-0.7031 8.7988 20.176 2.6855 47.524 4.5901 69.492 13.168 152.43 175.88 199.35 178.11 367.88 0.9573 72.444-15.856 99.441-36.621 144.9h25.928c87.51-53.125 165.26-125.11 216.49-214.36 54.532-94.99 88.032-211.04 78.481-321.06-2.6365-30.371-10.049-59.624-17.964-88.96 48.801 13.454 85.572 23.46 93.457 92.607l2.0901-0.625c19.882-20.205 42.944-40.474 59.6-63.403 46.758-64.394 51.299-148.7 18.706-220.35l-17.666-36.05c-6.5286-13.054-6.7844-6.6367 2.7002-19.468 21.294-28.744 18.49-47.756 20.483-74.6 20.921 20.17 29.743 29.084 28.584 81.358 7.9373-1.0952 47.678-42.347 53.125-48.184 59.708-63.976 73.871-145.52 8.1155-206.51 49.656-63.588 21.404-115.64 40.517-153.89 16.73-33.467 58.475-54.338 90.396-35.288 19.839 11.836 25.317 27.11 30.772 48.032 44.475-47.578 40.121-120.88 5.6636-176.09-29.633-47.476-70.254-62.48-122.04-74.326-13.413-87.666-49.795-171-1.4695-255.47 15.712-27.462 44.616-53.72 68.857-36.538-12.752 17.488-35.193 46.793-27.754 68.135zm-6.04-1459.1c27.378-14.595 48.862-14.014 78.31-11.098 7.4072 1.499 15.269 2.1775 21.402 6.8944-8.5718 9.462-13.538 4.345-47.568 43.574-120.78 139.25-117.56 411.95-119.66 586.38-3.6902 305.68-13.323 343.65-43.809 574.7-3.3887 22.075-4.7656 48.545-11.44 69.565-6.6602 20.971-18.706 41.782-26.758 62.568-60.902 157.2-62.84 191.67-95 353.73-35.556 148.27-109.53 298.33-135.45 318.65 6.8955-24.76 16.644-38.982 26.045-61.118l52.49-134.21c26.45-78.345 40.718-159.37 61.206-239.26 50.501-196.96 108.78-323.56 96.309-723.66-18.996-309.22-15.626-214.82-16.616-423.03 1.5947-165.68 13.815-345.47 160.54-423.69zm-95.576 1928.3h2.9202l0.7175 6.7139c0.5273 40.308 2.2656 74.131-24.204 108.04-152.77-65.88-355.57 128.34-383.14 137.84 11.587-15.132 27.886-27.842 42.075-40.522 253.82-226.86 293.38-83.296 361.63-212.08zm-774.35-3064.6c13.248-92.777 25.976-94.337 5.7229-183.55 87.533 23.316 206.42 103.43 262.54 201.3 66.239 115.52 43.113 234.89 29.59 350.75-4.7122 63.34-4.0188 124.24 1.8018 187.5 23.094-198.73 55.03-235.65 88.989-325.36 34.819-91.987 25.625-182.03-8.8577-272.16 103.92 36.807 182.7 114.28 229.78 213 48.828 102.39 61.304 246.32 22.373 353.82-42.216 116.58-99.263 137.64-117.15 312.49 8.4373-20.766 13.056-42.5 20.298-63.642 59.591-173.97 191.68-181.93 251.28-224.19 40.171-28.486 50.605-80.84 46.445-127.37 73.174 95.62 102.28 233.5 86.783 352.23-14.737 112.91-61.363 206.02-118.5 302.98-74.313 126.11-105.07 172.52-129.2 427.68-9.697-36.421-15.151-75.376-20.488-112.69-14.541-101.66-16.694-205.84-3.5305-307.75 31.191-241.39 121.88-274.15 181.16-386.23 5.4885-10.381 13.911-23.364 14.716-35.293-22.61 26.179-35.262 53.842-56.532 78.945l-79.571 86.909c-124 149.73-96.471 357.84-104.32 440.13-30.009-177.94-33.493-333.41 38.887-487.05 6.8167-14.458 19.756-32.695 23.188-48.057-2.5879 1.6893-1.8359 0.9764-4.0137 3.3591-60.693 66.338-99.722 159.43-108.24 248.47-4.2039 43.93-1.4695 89.336 0.1077 133.39-67.793-168.43-97.271-359.17-53.628-537.65 18.652-76.299 47.197-151.58 50.693-230.71 4.6387-105.1-20.356-199.58-91.875-278.33 7.7688 23.686 28.532 44.656 48.579 116.9 50.688 182.74-45.31 330.09-64.492 480.91-7.4316 58.467-8.4424 117.42-3.2034 176.12 1.9924 22.319 10.312 48.843 9.0383 70.459l-1.709-1.6405c-10.895-15.094-57.06-176.59-42.168-297.42 5.2383-42.516 21.555-80.44 29.033-120.73-9.3311 10.982-15.171 27.202-20.454 40.469-26.358 66.201-32.705 134.67-26.944 205.27l17.041 118.5c-61.083-105.36-126.28-307.68-149.82-415.03-31.016-141.43-18.374-295.68-83.252-428.34-16.03-32.774-33.731-61.206-62.276-84.702l-1.0254 2.1923c61.982 68.667 75.581 166.22 83.189 255.13 18.124 243.95 11.517 201.01 41.132 332.03l-1.45 1.0693c-61.306-161.96-70.376-375.63-83.032-397.62-25.12 118.08 5.3203 216.33 30.044 322.69-14.868-23.764-28.066-48.862-44.55-71.523-16.057-22.076-161.25-173.73-132.13-377.66zm-375.02-265.64c58.361 7.8526 122.04 1.0778 209.42 56.805 68.789 43.874 116.58 115.32 128.6 196.48 5.498 37.139 4.3555 75.508 8.2471 112.89 2.2898 21.943 8.3301 43.921 13.096 65.454-57.839-118.9-95.916-185.59-210.44-252.82-19.302-11.328-39.19-25.41-60.181-33.14 16.146 16.056 110.29 87.066 181.81 194.55 7.1191 10.698 19.141 25.005 22.861 36.894-12.314-5.687-21.416-22.659-60.41-50.967-94.203-68.356-231.01-69.243-281.78-199.57-8.5447-21.934-11.723-45.518-21.138-67.127-11.89-27.279-34.326-53.355-61.27-66.626-11.812-5.8175-24.951-8.0664-37.182-12.834 57.524-5.5314 112.4 12.479 168.36 20.01zm-1622.8-237.39c22.389 61.039 99.667 85.178 163.54 83.852 93.914-1.951 112.38-36.141 213.63 50.502l-1.582 3.055c-102.64 13.22-166.15 37.316-243.78 26.131-121.91-16.913-167.63-110.21-138.8-175.06 5.1856 0.6311 5.2733 6.8356 6.9871 11.516zm-75.185-17.114c12.236-26.225 32.578-36.17 58.301-45.671l3.7596 0.1053c-19.16 16.957-32.28 35.107-36.45 60.914-12.447 77.032 48.936 174.9 186.95 196.15-10.142 4.5862-21.758 6.5725-32.564 9.1824-124.02 28.889-223.44-127.54-179.99-220.68zm-124.82 93.113c48.878-1.157 84.275 33.592 112.46 69.356-31.587-9.0107-61.548-25.743-94.229-30.206-16.758-2.2894-34.819 0.5407-51.43 2.905 33.619 14.08 49.995 9.9838 96.24 42.829l-54.766-5.4698-54.063-15.562c41.467 37.719 46.692 31.49 85.869 43.792-9.8339 1.9576-28.325-2.2399-39.063-3.6685-56.216-7.4821-50.91-4.8345-102.17-71.052 38.32-9.2595 44.684-25.298 101.16-32.924zm69.336 156.63c-38.141 13.96-83.225 13.187-115.69 4.3373-38.594-10.518-57.031-26.53-76.748-60.971l53.564 7.983c29.087 5.1189 53.999 19.888 81.817 29.119 58.565 17.348 52.579 14.683 54.658 16.098 1.1521 0.7858 1.6014 2.2888 2.4023 3.4335zm-629.84 585.68c17.098-5.21 34.602 1.7769 57.373-5.3709 107.34-32.325 21.467-131.25 254.84-210.83-20.991 49.39-55.85 100.16-94.419 137.08-18.833 18.022-40.044 31.802-54.316 54.165 44.059-27.82 49.459-17.322 101.65-69.839-10.098 39.307-22.417 80.317-39.443 117.28-22.251 48.306-64.912 112.9-117.04 132.5-3.9942-3.877-4.546-7.3535-5.5031-12.686-3.554-19.763 2.9461-34.937 14.678-50.434 25.679-22.485 85.417-56.029 90.151-74.483 1.26-4.8974 1.1136-3.0613-1.6697-7.8027-23.173 5.3812-36.932 23.252-86.118 27.383-46.563 3.9059-84.365-6.7386-120.18-36.963zm296.67 85.962c-4.1862 66.778-75.84 149.77-151.39 146.58-44.454-1.8754-88.069-51.703-84.097-88.11 1.5333-14.077 17.354-57.192 28.667-66.582 5.1564-4.2772 13.555-3.0906 20.005-3.408l1.0596 2.0262c-27.978 25.131-40.405 54.972-41.133 77.602-0.5516 17.148 11.099 31.719 22.651 43.115 16.668 16.435 29.587 17.972 45.615 15.478l2.6758-3.6621c-15.068-14.673-27.476-18.452-33.97-40.283 4.5314-14.087 34.912-24.971 47.251-35.615 62.138-53.597 67.018-95.192 89.009-116.57-1.3329 13.1-9.8486 27.607-16.323 39.072-28.574 50.596-64.136 84.614-106.65 122.85l1.587 0.1417c19.981-9.8927 41.323-14.908 60.073-27.31 109.32-72.314 115.06-223.96 164.09-334.09 34.995-78.594 88.418-143.66 141.92-210.06-53.452 17.954-105.92 38.794-160.47 53.506-272.24 73.402-543.99-62.967-647.43-204.06-30.107-41.069-51.782-87.606-75.065-132.69 22.535 209.03 207.79 393.88 396.42 443.25 48.34 12.656 97.388 16.65 147.07 19.629-320.03 51.843-739.52-367.52-523.1-715.21l1.8941 28.495c13.184 166.65 166.22 237.47 254.56 230.9 28.169-2.0959 55.879-10.268 83.896-14.162 94.092-13.077 192.66 29.596 266.69 85.056-2.9876-15.881-32.36-96.983-15.098-166.06 15.268-58.005 43.223-91.416 93.101-132.46-6.3625 46.661-10.044 81.672 15.947 123.37 17.28 27.727 51.659 53.497 95.752 62.877l16.919 36.385c-28.337 10.886-19.429 11.693-31.084 16.6-25.869-20.007-45.527-39.842-65.239-66.022 14.009 59.223 46.889 102.11 51.812 112.01-37.758-15.579-73.729-73.128-84.907-106.56-2.0897-6.2492-3.1884-11.499-7.8711-16.435 7.4708 68.74 29.336 114.62 84.234 159.1 54.531 44.192 117.9 56.842 185.07 68.164-67.827 15.093-131.83 8.9442-191.42-28.721-58.818-37.177-109.58-105-125.49-173.33-3.0419-13.057-3.1836-26.817-6.6945-39.69-9.2529 60.715-0.6298 132.1 36.524 183.31 38.848 53.541 100.85 90.343 166.37 99.293 34.453 4.7067 66.23-3.1523 76.611-0.4147l-267.82 68.481c101.16 7.8654 208.45-29.394 225.24-32.046-24.186 15.757-81.308 28.645-109.38 34.697-296.56 63.93-471.28-32.543-516.73-43.325l44.785 23.853c162.17 71.299 339.99 80.996 510.78 34.849 28.858-7.798 59.121-14.995 86.362-27.324 53.317-24.132 111.25-75.465 145.55-88.955-35.266 32.845-249.27 140.8-323.45 413.69-14.937 54.951-21.831 112.03-25.386 168.79zm766.71 937.67c19.697 4.8876 44.243-4.6437 60.088-15.933 63.882-45.528 85.83-136.23 118.3-203.81 19.575-40.752 42.598-79.942 65.762-118.75-32.026 115.69-3.6669 277.14-127.04 347-100.5 56.901-193.45-10.289-170.1-87.017 13.759-45.233 60.087-92.53 82.041-98.623-3.2567 11.514-12.354 23.423-16.626 35.269-8.5742 23.75-14.058 54.194-2.8027 77.964l3.6621 0.1512c5.2544-127.31 91.04-166.9 149.49-236.71 66.685-79.656 86.415-126.72 108.08-150.34-5.2832 15.273-0.1567 4.2863-100 177.36-44.292 78.055-98.94 204.76-149.02 230.17-18.345 9.3114-35.391 8.1641-55.239 5.913 7.4851 13.682 16.802 33.232 33.418 37.354zm937.94-840.26-76.347 8.1589c-131.29 18.696-262.1 67.974-376.59 133.83-175.64 101.03-193.58 155.06-291.9 261.69-29.023 31.475-59.712 63.599-93.608 89.878-88.081 68.296-211.22 115.41-323.14 88.208-28.555-6.9382-48.896-19.936-75.049-31.289 37.1 39.634 83.042 63.808 138.16 65.903 110.47 4.1991 231.32-52.612 310.7-127.11 70.963-66.617 138.23-154.18 147.26-160.62-8.5322 28.374-30.98 53.907-50.815 80.044-71.157 93.745-159.98 199.26-268.86 249.81-62.871 29.199-139.31 38.643-205 13.716-103.49-39.26-141.64-150.34-113.46-187.77 31.792 5.5177 62.344 14.99 94.585 18.994 298.1 37.072 475.38-183.84 576.38-268.36 154.47-129.28 358.79-216.94 558.82-237.63l104.43-2.0262c-17.842 4.1991-37.251 3.4422-55.547 4.5654zm-587.81 172.66c-91.553 68.589-171.52 155.37-268.03 216.79-475.32 302.53-1159.4-337.17-590.73-947.1 182.19-195.4 473.93-272.1 732.59-282.34-22.925-5.0822-45.801-7.4391-67.759-16.353-66.761-27.11-112.67-103.84-82.817-171.49 5.1318-11.637 12.886-25.211 25.596-29.647 5.6349-1.9677 3.3984-2.0687 8.1691 0.3504-49.452 50.123-30.836 124.31 67.739 156.88-24.95-17.796-52.078-35.772-64.585-66.691-8.2521-20.385-3.5643-37.104 4.9269-56.155 7.4756 19.245 14.829 35.624 29.883 50.39 90.238 88.505 332.91 131.43 455.88 157.86 158.7 38.91 303.39 66.802 547.02 182.96-0.6296-41.22-12.842-78.249-27.837-116.32 14.531 3.0449 28.955 5.649 42.285 12.628 78.066 40.869 22.707 106.21 72.392 156.5 26.792 27.114 69.683 46.558 102.91 65.474 191.27 117.96 203.08 133.97 277.64 201.33 79.18 71.528 149.02 145.33 213.69 230.41 24.227 31.871 51.563 62.303 60.625 99.712-24.41-26.57-38.658-49.235-60-75.22-122.32-148.95-314.28-309.42-479.52-414.56-114.42-72.792-383.81-209.31-611.35-274.11-81.787-23.29-266.08-61.315-380.31-68.087-205.47-12.182-326.31 10.713-448.57 47.705-131.02 39.642-257.04 95.759-360.2 187.88-132.02 117.89-236.99 300.4-246.65 479.11-7.6318 141.08 46.919 289.63 141.18 394.11 64.517 71.509 142.53 116.3 235.32 140.08 27.695 7.0996 57.163 13.906 85.742 15.239 120.6 5.6251 228.39-39.834 323.89-110.87 111.4-91.439 232.51-199.25 351.61-267.1 529.35-301.59 1274.2-118.58 1600 478.51 10.566 19.36 22.793 39.907 29.092 61.06-11.025-10.591-18.779-31.914-26.523-45.693l-39.175-63.477c-341.56-509.45-1086.3-755.14-1654.1-329.77zm195.68-795.82c-35.674 1.5721-71.509 8.3105-106.51 15.029 44.592 7.3759 52.436-23.578 228.48 20.498 17.3 4.331 35.84 7.5146 51.846 15.527-60.153-4.2729-262.55-16.256-316.95 9.0673 39.185-5.6006 76.733-5.1856 116.06-3.0225-20.654 9.629-42.471 16.255-62.871 26.421-35.777 17.818-73.194 52.1-86.856 90.425-26.223 73.589 27.248 141.32 84.917 113.42-5.0834-6.9141-10.992 1.6112-9.2726-13.325 4.1454-36.069 30.591-68.828 59.336-89.116 54.609-38.545 125.14-41.699 189.1-30.566 20.928 3.6427 40.537 11.577 59.956 19.922-81.368 40.833-126.17 74.059-141.42 163.05-1.6895 10.249-1.2549 20.107 2.2268 29.971 1.6257 0.2196 3.252 0.8251 4.8826 0.6492 4.6555-0.4857 25.89-25.091 71.509-34.922 31.221-6.7285 62.486-2.5342 93.54 2.7783-30.669 6.7726-75.86 14.37-94.639 42.603-6.3376 9.5261-12.739 24.37-9.4678 35.976 7.9805 28.332 39.257 42.554 59.673 34.463 9.7507-3.8719 13.31-10.449 16.884-19.78-3.8801-4.6121-1.918-2.2216-8.8916-10.859-12.732-16.114-5.4189-31.268 11.792-42.769 31.328-20.908 75.41-17.661 110.49-9.297 47.276 11.27 83.555 37.871 125.96 59.702 0.5625 47.994 13.991 58.088 46.309 84.224-178.5-7.0903-270.62 8.2461-395.59 49.038-196.65 64.205-289.35 135.2-419.41 236.04-132.25 102.22-124.1 101.96-134.07 105.1 8.3934-11.787 19.087-21.719 27.929-33.184 77.22-100.09 96.724-254.35 14.214-372.3-86.9-124.24-267.36-152.48-389.14-65.552-107.09 76.441-125.37 222.25-67.891 301.3 55.814 76.784 159.67 83.816 222.43 36.02 33.97-25.872 50.79-66.549 23.799-100.84l-2.0364 0.1954c1.2843 9.3311 1.1134 18.755-0.3854 28.076-6.2501 38.841-58.162 71.445-107.59 61.118-51.962-10.858-97.109-69.786-81.816-144.06 14.458-70.246 84.602-124.93 181.35-104.42 94.756 20.072 153.22 120.38 132.16 212.92-28.575 125.57-178.3 203.35-292.77 174.79-343.29-87.776-193.47-591.92 179.1-672.44 27.432-5.9278 55.342-7.6902 83.286-9.1407l8.9646 35.776c31.767 108.99 121.57 149.94 184.65 128.22 28.589-9.8435 42.642-28.77 55.727-54.385-12.436 4.79-28.393 13.994-42.026 12.1-12.441-1.7285-25.117-11.358-32.158-21.348-19.921-28.274 15.412-67.603 55.747-53.276 12.085 4.2919 11.855 11.519 17.583 21.538 38.874 68.048 129.26 84.314 178.71 53.423 13.247-8.2762 28.354-21.68 31.587-37.646 1.2598-6.2306 2.1631-8.2473-1.2305-13.726-19.212 3.4131-26.221 31.978-86.43 27.925-72.328-4.8884-113.4-63.543-105.61-136.18 4.8927-45.537 32.803-65.928 65.152-92.749-36.982 8.3835-105.09 70.002-102.3 128.7 0.2688 5.6594 0.6008 8.3105-1.0643 13.784-57.081-22.399-144.73 52.923-76.274 124.2-24.863-8.3788-46.035-15.371-65.473-33.994-66.478-63.708-56.443-182.94 9.0526-249.35 113.57-115.16 449.78-173.52 780.4-6.1229 18.189 9.209 43.492 19.038 57.866 33.379-4.79 3.2859-18.472 2.2704-24.238 0.9471-29.94-6.8987-204.14-101.67-378.29-93.965zm262.14 123.9c-14.78 0.4833-35.347-9.3262-49.834-13.428-88.096-24.951-199.42-32.637-282.15 13.896-73.545 41.362-73.34 88.105-81.831 98.384l-0.3223-8.2473c8.4391-85.175 90.523-125.46 173.46-135.27 94.523-11.179 223.86 31.514 240.68 44.663zm-1035.6 857.1c-67.647-6.4403-161.3-38.325-205.28-92.031 33.183 13.032 27.256 23.672 109.92 58.555 29.883 9.0625 57.114 18.862 88.491 22.529 89.253 10.42 183.38-18.066 253.17-74.678 120.34-97.606 132.23-265.82 46.24-368.76-74.486-89.169-212.87-91.337-290.47-38.73-12.085 8.1932-22.251 19.19-33.506 28.501 4.1896-7.8806 8.4717-15.596 13.95-22.666 31.782-41.001 88.325-61.841 137.87-68.721l61.958-0.3857c107.72 9.6249 210.24 116.21 197.41 267.62-16.019 189.22-198.25 306.06-379.75 288.77zm560.61-1055.7c-33.757 14.374-140.12 29.16-223.57 94.407-39.408 30.803-91.81 87.918-97.305 140.91-9.7751 1.5721-30.352-5.9765-39.082-10.4-18.096-9.1747-29.253-19.912-34.682-39.824-6.0399-22.154 0.2539-46.729 11.748-65.962 15.834-26.486 64.494-74.532 119.39-104.11 103.89-55.962 335.86-66.046 438.77-34.637-114.7-5.868-251.99-3.778-358.49 43.163-16.268 7.1693-23.332 8.172-34.985 18.588 51.088-9.0524 3.0793-17.696 218.2-42.141zm-430.91 237.64-0.4198 4.092c-21.548 6.8115-48.574 4.6385-68.794-5.4055-42.103-20.906-46.574-80.317-21.133-121 33.828-54.111 106.1-69.854 163.59-83.989l4.9998 1.3329c-18.559 17.095-43.735 23.584-65.815 34.824-28.721 14.619-63.423 39.492-73.257 71.431-4.5558 14.795-4.1748 33.193 3.042 47.007l2.998-0.3419c0.542-12.72 0.7715-25.107 5.4493-37.148 16.27-41.909 57.016-54.463 94.682-71.089-28.721 21.558-47.69 37.891-62.993 70.957-10.914 33.727-11.643 53.746 17.646 89.326zm-344.83 661.45c-12.119 6.8213-21.689 6.2891-34.722 2.4902-11.289-7.4366-21.392-17.573-31.553-26.499 19.107 1.6017 32.774-1.4746 50.908-6.9728l19.497 26.099c-2.4167 4.1504-1.0055 3.12-4.1306 4.8828zm19.424 13.208c5.9326 5.8152 18.056 14.854 20.64 22.436-12.051 7.09-23.965 12.681-36.885 17.978l-6.548-3.4034-24.971-22.705c22.426 2.0849 29.853-2.1535 47.764-14.307zm-55.908-302.52c-1.9922 13.242-10.972 29.238-16.177 41.846-4.9309 10.349-15.099 14.919-25.947 15.425-10.02 0.4686-27.012-4.3799-34.224-11.714-22.749-23.149-16.362-65.112-15.386-94.644 21.836 39.026 40.997 53.435 91.734 49.087zm-81.304-85.156c0.835-23.506 15.615-54.36 23.833-76.152 29.518 104.61 73.077 74.404 87.52 83.862-9.3408 15.244-18.428 28.111-31.148 40.708-14.28 7.4889-28.668 11.617-43.662 5.4785-21.045-8.62-36.864-44.824-36.543-53.896zm62.949 167.63c4.2919-0.7568 2.2556-1.1328 5.8055 0.5616-2.1143 13.667-4.0332 26.308-9.2482 39.209-12.315 16.093-36.288 19.45-55.307 2.8662-19.033-16.582-18.12-52.134-20.43-75.776 16.881 21.783 25.818 42.524 79.18 33.14zm-59.297 69.009c23.267 14.483 41.226 13.31 67.529 10.85-0.5176 12.065-0.874 23.73-3.379 35.596-10.97 12.748-36.432 9.6644-46.03 1.9286-11.333-9.1309-17.163-34.834-20.518-48.315l2.3973-0.0588zm79.878 65.591 7.1044 14.746c0.8936 4.1066 0.8887 6.001 0.4738 10.054-14.214 7.2312-33.389 3.8378-48.662 2.2069-5.4103-5.1855-8.218-8.9453-11.572-15.649 23.573 5.2345 32.344 2.6144 52.656-11.358zm-44.297-398.48c6.3967-30.2 25.288-58.496 42.207-83.809 0.4833 26.294 3.9843 54.087 19.692 76.182 16.079 22.612 34.775 26.392 60.449 30.317-11.65 16.343-23.335 35.972-41.709 45.225-46.83 11.919-68.347-21.384-80.64-67.915zm115.91-12.822c-36.37 0.7552-57.36-42.092-56.509-80.552 0.6396-28.886 37.373-65.464 57.217-84.434-1.8701 31.807-2.661 65.152 15.161 93.071 16.177 25.337 34.663 30.84 62.285 36.475-18.403 14.624-35.308 25.781-58.081 32.69l-20.073 2.7492zm72.022-73.623c-38.089-7.3182-58.325-61.63-50.259-96.582 9.2773-40.205 46.621-64.219 79.302-84.61l3.379 0.4591c-24.218 43.738-35.689 92.102-6.338 132.61 13.049 18.01 27.989 22.624 49.414 26.221-18.906 11.353-35.264 18.799-56.924 23.33l-18.574-1.4258zm44.795-84.36c-12.705-24.419-11.206-57.72-2.9104-83.374 15.034-46.504 65.435-64.839 105.62-84.204-10.96 14.23-56.572 62.305-39.175 119.56 9.813 32.29 26.635 50.245 51.236 63.116-18.608 12.964-41.406 18.398-63.726 18.55-14.518-2.971-36.164-5.053-51.045-33.647zm235.2-290.13c-240.96 84.257-480.41 275.68-540.87 534.57-78.969 338.18 171.64 641.47 498.69 571.71 18.34-3.911 37.896-13.306 55.991-15.615-51.689 27.381-176.61 45.421-284.45 12.002-251.33-77.876-381.49-383.78-301.38-636.52 74.046-233.56 234.19-407.87 636.39-489.63-18.11 11.362-43.882 16.318-64.375 23.484zm-346.41 987.9 7.1337-11.323c12.524 4.0138 24.336 16.284 35.644 23.35 155.89 97.366 401.77 29.235 450.67-191.4 19.558 77.408-81.451 228.85-259.71 249.16-78.53 8.9452-169.74-16.968-231.67-66.055l-2.0752-3.7305zm1948.2-274.75c15.942 7.5197 41.284 19.229 52.788 32.925-9.4189-2.0363-18.97-7.3439-28.037-10.791-341.58-114.35-476.19-81.934-530.17-177.94 103.07 34.602 199 24.566 379.22 69.39 25.996 6.4648 58.003 13.36 81.226 26.601-46.612-5.6877-62.06-23.488-244.1-31.66-9.5264-0.4298-32.05-3.9259-40.005-0.3907 12.958 7.3129 179.22 21.176 329.08 91.865zm-1171.6 636.38c3.291-36.787 7.627-73.579 18.267-109.07 59.052-197.1 284.8-362.08 419.9-390.6-32.73 16.401-66.763 28.98-98.394 47.754-150.25 89.175-305 308.92-209.82 493.54 48.404 93.895 158.92 121.56 222.4 86.313 7.2605-4.033 14.4-10.688 22.095-13.393-28.405 73.082-113.21 72.302-184.92 40.801-26.04-11.441-44.653-26.773-65.742-45.493 12.46 38.991 62.916 73.789 99.004 88.74 48.232 19.985 92.725 17.31 140.97-0.4003-8.1931 25.762-20.742 45.034-45.674 57.583-67.727 34.106-165.83 7.1039-220.03-102.82-46.206-93.691-50.586-211.15-16.523-309.11 17.104-49.18 44.077-93.633 75.64-134.8 11.69-15.244 31.958-33.946 39.253-51.123-354.27 311.9-58.34 749.87 115.13 666.76 28.403 16.265 19.636 73.63-33.638 84.028-52.729 10.305-117.51-6.032-181.92-74.844-76.89-91.802-106.57-215.65-95.991-333.86zm486.14 590.8c-62.495 26.401-146.48 16.792-207.92-8.4375-93.812-38.527-173.03-121.96-188.84-160.23 9.5071 6.4065 16.875 20.874 24.307 29.941 116.96 142.69 312.58 153.23 401.26 78.423 16.176-13.643 32.28-13.809 52.534-15.356-14.951 31.939-48.868 61.95-81.338 75.664zm127.61-85.278c28.053-13.097 37.999-20.427 51.802-32.237l2.124 1.3333c-4.9949 37.238-12.256 68.079-40.205 99.219-47.295 52.695-128.84 78.506-197.85 82.046-79.777 4.0847-162.84-26.601-181.28-43.164 19.029 2.6367 37.549 10.303 56.265 14.814 125.78 30.318 249.44-5.8237 309.15-122.01zm-251.94 44.38c-86.723 2.5684-153.79-40.81-214.57-98.208 50.618 22.61 68.245 44.78 131.11 60.117 45.933 10.908 90.923 1.1768 130.06-23.418 18.867 12.451 40.552 20.552 61.665 28.325-34.126 21.294-68.012 31.992-108.27 33.184zm5.9377-86.338c-12.705 16.914-30.899 16.929-50.098 19.102l-8.5305-0.386c-0.0103-5.9822 39.915-8.7063 59.365-46.724l4.3945 0.3271c2.4122 6.8272 4.9728 14.23-5.1315 27.681zm-285.69-53.643c-2.5046-1.8066-3.447-4.6436-4.8828-7.3242 1.968 2.4119 4.0284 4.2871 4.8828 7.3242zm671.85 122.07c-103.76 165.21-344.18 205.98-525.67 91.04-141.56-89.649-210.56-235.21-222.76-290.33 42.31 83.338 25.31 52.86 73.633 133.43 137.26 207.91 392.9 257.4 543.72 155.6 145.59-98.267 106.38-286.27-0.1709-303.41-4.4727-0.7227-2.5681-1.2014-5.9961 1.2695 4.6633 5.2832 8.926 10.552 11.27 17.324 13.513 39.12-42.522 77.886-91.24 50.098-31.358-17.893-52.731-64.46-26.865-103.97 19.722-30.132 49.453-43.653 83.633-51.011 21.104-1.9626 44.732-2.5292 65.289 2.9297 16.58 4.6187 31.209 8.5026 47.217 18.213 81.346 49.362 116.29 170.01 47.944 278.82zm-290.91-337.02c72.839-57.474 178.14-57.233 250.48-7.4415 41.948 28.862 89.058 85.234 98.364 136.65-10.85-19.858-20.879-40.581-34.146-58.97-58.444-81.011-175.28-127.5-261.4-81.142-81.167 43.693-108.7 141.94-69.268 213.69 32.044 58.302 111.79 87.581 166.42 54.888 13.584-8.1301 24.795-20.776 35.005-32.754-1.9824 14.707-16.392 33.159-27.549 42.602-23.237 19.673-57.779 22.656-86.948 20.078-42.9-3.7939-73.813-24.912-100.67-57.808-57.801-70.787-33.537-179.9 29.712-229.79zm1148.4 477.21c-73.833-112.17-195.77-207.09-326.32-241.77-97.52-25.923-132.88-7.3848-148.26-16.826-2.4353-65.585 52.252-125.94 110.8-150.15 36.782-15.202 29.598-3.3419 95.601-36.172-37.642-16.733-85.147-9.6875-125.92-10.273-201.06-2.9-211.27-140.11-126.77-219.44-87.456 22.922-130.97 77.127-273.66 72.31 27.031-64.341 64.722-129.16 122.27-170.95 141.59-102.84 327.6-31.722 461.37 75.054 23.242 18.555 49.16 40.127 66.645 64.312-42.949-32.573-83.608-63.027-132.63-86.113-90.195-42.475-220.05-61.65-316.18-27.426 75.37-5.8038 172.79-14.768 351.94 103.66 20.268 13.399 43.686 27.881 59.053 46.914-27-9.8781-42.304-23.013-65.888-32.593-98.563-40.036-204.75-34.796-221.83-29.946-2.5193 0.7178-3.1982 1.4501-5.0439 2.8662 88.096 2.5555 172 38.225 249.26 81.426 13.511 7.5587 32.48 15.957 43.403 26.85-24.858-4.9326-34.232-12.05-54.365-17.221-96.311-24.734-104.52-19.33-198.38 1.6407 22.954 1.0936 46.294-0.1124 69.092 2.9003 122.51 16.182 233.94 84.507 316.23 174.95 78.311 86.063 134.18 198.15 152.02 260.64-18.071-26.201-31.514-55.884-49.985-82.364-64.233-92.09-158.53-168.22-267.92-198.12 25.877 20.009 41.122 16.085 99.907 67.754 124.85 109.69 243.24 340.92 246 456.34-22.427-89.297-50.273-176.4-102.76-253.26-68.672-100.56-187.48-179.72-306.85-202.42 20.493 10.293 41.602 18.794 61.699 29.961 215.68 119.89 299.02 326.67 350.89 571.48 17.364 81.968 31.226 170.71 28.072 254.75-15.025-25.886-19.127-302.51-161.47-518.76zm135.82 1083c153.57-350.04 116.98-890.29 14.565-1259.3-80.537-290.21-241.08-572.4-490.61-748.93-249.33-176.38-543.16-112.14-629.15 10.498-37.251 53.131-22.258 112.1 11.582 134.79 14.316 8.661 9.0947 5.5425 22.856 13.672-32.666-0.5128-68.857 0.3027-93.931-24.482-22.431-22.178-32.431-54.155-31.865-85.054 0.7327-40.005 23.106-73.911 51.269-100.38 8.6626-8.1395 22.852-16.084 29.356-25.547-39.662 11.385-146.95 112.4-149.33 197.83-0.3909 13.95 1.958 28.862 12.768 38.857 8.9971 8.3181 22.456 6.8662 34.858 5.8691-5.9473 8.5497-12.646 17.495-20.874 23.955-60.999 47.857-173 4.3995-158.44-106.81 14.993-102.13 105.4-173.59 192.64-230.41-21.7 3.584-43.374 15.435-63.155 24.854-85.327 40.635-163.45 90.933-219.53 168.81-64.679 89.835-43.908 189.42 15.532 230.67 22.396 15.557 35.889 5.6458 50.532-15.703 9.4861 3.5422 24.104 27.56 17.075 46.001-23.654 62.101-152.88 50.057-194.63-64.39-56.858-155.84 67.713-345.29 212.37-426.17 37.544-20.991 79.487-35.708 120.09-49.804 162.01-56.273 405.13-52.078 639.58 62.69 395.17 193.46 632.08 631.14 721.56 1066 79.949 388.58 57.728 927.53-101.74 1248.7-234.18 471.6-703.12 355.8-782.75 101.88-91.187-290.7 210.33-441.32 401.33-337.75 191.45 103.79 138.14 352.88-17.198 393.93-42.129 11.138-96.582 4.0527-134.18-18.242-65.171-38.657-93.656-142.33-23.482-183.18 41.393-24.101 103.06-13.348 128.8 31.719 5.3943 9.4348 4.8235 14.656 10.356 22.231 10.709-11.978 9.8345-62.519-29.292-95.517-40.896-34.509-124-30.645-172.01 31.074-47.712 61.32-41.682 168.87 46.992 234.12 52.646 38.745 121.2 52.779 185.46 42.471 144.07-23.101 244.5-121.26 325.99-235.34 26.963-37.744 47.969-81.118 66.587-123.55zm-1015.5-172.39c-150.87 160.33-482.86 63.002-488.37-264.49-2.4058-142.3 40.298-275.43 176-415.53 397.51-410.44 1274.6-119.94 1283.3 599.73 1.9141 158.29-40.84 326.66-154.34 442.13-7.5928 7.7249-17.622 19.38-27.93 22.973 4.1782-15.006 15.168-23.143 31.587-78.003 9.0322-30.153 35.071-156.8 37.065-169.99 9.4043-62.158 11.279-127.11 9.6289-189.83-4.6387-176.41-105.02-353-230.8-472.47-267.52-254.1-614.72-144.87-650 68.159-4.1401 25.015-3.0662 50.694-1.9526 75.918-6.929-8.5691-13.003-17.407-18.067-27.212-22.798-44.126-22.197-108.32-7.1973-154.85 15.381-47.71 52.109-80.161 95.757-102.33 122.29-62.1 269.91-41.602 392.77 6.8264 69.677 27.466 69.885 37.157 96.523 44.961-11.099-12.08-28.452-20.322-42.388-28.823-282.51-172.41-609.9-34.618-618.29 170.99-0.6934 16.982 3.0466 35.259 4.9902 52.197l-3.2812 3.0859c-11.899-1.8555-18.54-1.4404-26.172-11.66-22.769-30.469-26.494-77.72-20.518-114.05 32.539-197.87 409.47-295.69 696.27-97.305 24.629 17.036 47.623 37.085 70.537 56.352 56.201 47.261 107.53 99.448 148.99 160.43 154.37 227.07 109.63 476.22 113.26 574.61 34.662-87.474 40.114-291.44-34.053-463.66-48.965-113.71-128.2-208.07-222.91-286.21-51.289-42.314-101.7-86.946-224.92-135.24-125.47-49.175-298.12-47.959-421.46 7.0361-92.478 45.62-62.271 26.411-103.52 45.527-63.637 29.487-110.91 76.26-135.54 142.45-19.745 53.049-25.198 133.03 1.1038 189.31l-23.198 34.331c-76.27-115.67-11.501-298.52 116.83-382.9 145.27-95.527 339.19-119.5 507.7-84.023 48.047 10.117 93.842 27.305 138.55 47.398 303.57 136.46 507.65 461.47 421.72 867.19-11.143 52.622-33.115 103.02-40.654 156.46 13.989-16.388 17.322-27.475 27.974-43.032l4.4236 3.5593c7.251-7.2068 12.251-19.624 16.699-28.794 54.893-113.07 51.992-332.98 28.076-446.78-121.15-576.32-846.37-812.16-1231.6-426.58-101.31 101.42-177.11 225.24-176.95 372.81 0.3364 313.89 300.03 407.8 425.88 280.84 69.302-69.916 62.427-169.51 14.356-213.7-35.921-33.018-102.87-37.238-140.55 8.4033-17.461 21.148-16.24 47.046-13.76 72.51-28.242-24.336-50.634-47.373-53.374-86.963-4.5781-66.32 51.696-119.4 116.57-122.35 116.94-5.3162 191.14 85.51 194.13 172.67 2.202 64.048-14.36 120.58-58.916 167.92zm-193.32-398.83c-8.3933 4.9023-17.71 14.312-26.67 16.611-5.6321-7.5308-1.2671-0.7156-22.632-36.274-18.852-37.554-18.97-80.259-5.0684-119.3 19.551-54.922 76.025-113.63 128.79-138.2l3.0271 0.0977c-17.305 17.652-67.244 58.943-91.216 152.49-11.231 43.833-10.015 85.122 13.769 124.58zm60.2 239.19c8.4734-14.844 44.8-12.675 59.18-1.8213 18.227 13.765 23.183 32.29 25.571 53.965-0.6204 86.237-107.73 148.74-237.69 98.061-161.31-62.918-197.45-293.36-133.11-454.16 2.7686 14.175-6.1428 40.279-8.3103 55.112-9.4238 64.478-11.153 126.92 6.7185 190.32 51.081 181.21 245.95 203.9 289.22 117.2 10.659-21.363 5.4494-37.73-1.5868-58.672zm-235.66-187.95c8.8464 33.543 26.22 56.473 28.144 65.215 1.9824 9.0186-6.6697 29.448-8.1592 39.424-7.5439 50.527 22.436 86.856 50.312 124.6-21.901-7.5637-125.18-125.81-100.19-297.27 17.728-121.61 69.523-180.82 151.29-241.65 3.2812-2.4463 5.4053-3.2908 9.4141-4.0869-23.677 22.715-48.316 45.225-68.511 71.172-51.934 66.719-84.565 158.26-62.3 242.59zm718.99-49.624c17.816 33.68-1.718 60.958-35.24 77.422-14.839 2.71-27.519 2.5342-40.576-6.1621-30.044-20.009-33.107-60.77-16.02-85.151 13.892-19.829 33.169-26.87 56.099-31.206 15.869-0.1416 37.539 1.2207 51.968 8.0127-8.2129 3.9209-17.661 8.9746-20.737 18.242-2.7732 8.3543 0.8743 11.982 4.5068 18.843zm-110-94.067c-69.196 57.225-73.074 135.09-34.18 177.36 24.458 26.582 55.312 31.236 89.424 31.382-117.63 56.492-190.77-36.08-174.58-150.23 7.8066-50.773 31.638-82.38 69.541-120.74-102.8 43.859-126.35 197.54-55.347 289.13-14.775-3.2378-32.143-14.063-44.233-22.945-97.252-71.486-50.825-299.8 190.64-344.92 38.413-5.125 36.17-4.7966 38.804-5.2295 227.51-18.782 446.79 222.54 506.53 446.09 38.131 142.69 18.663 333.13 9.1016 344.05-23.446-43.557 58.071-155.35-70.664-423.9-95.04-198.25-363.39-353.74-525.04-220.05zm321.01 174.53c-9.429 10.851-16.814 41.136-50.346 47.969-83.54 17.036-129.95-83.672-95.088-131.9 15.4-21.309 39.282-27.51 63.672-31.831l18.321-0.3174c68.726 2.8413 142.32 49.502 187.68 99.043 78.706 85.962 132.4 210.46 139.47 326.82 2.3289 38.32-1.499 77.041-3.2275 115.33-93.999-220.3-38.265-91.93-71.011-174.19-35.181-88.393-97.466-211.25-189.47-250.92zm60.952 1340.4c-29.888 33.076-65.581 40.215-108.28 42.036 22.119-25.547 37.534-52.93 38.394-87.676 2.9465-119.37-92-173.14-115.42-197.72 31.565-1.6343 70.789 25.597 91.874 49.214 47.285 52.964 47.837 110.15 44.483 177.2 17.993-29.971 29.512-56.367 29.116-92.168-0.5759-52.134-22.695-96.206-59.028-132.35 40.244 12.646 61.113 29.941 84.346 64.453 39.979 71.09 30.841 136.81-5.4882 177.01zm-199.97-287.12c-247.68-66.688-395.75-322.08-336.91-535.61 56.782-206.04 285.79-312.04 471.05-261.21 128.69 35.309 234.76 144.92 247.71 287.48 3.1509 34.748 0.7236 40.461-7.7393 67.08-1.5479-26.045-2.793-52.896-7.9004-78.555-29.876-150.12-170.97-235.99-312.76-226.54-169.18 11.276-322.14 145.54-306.87 349.74 23.993 320.69 487.56 475.26 784.98 116.68 77.207-93.076 130.72-210 169.77-323.54 22.866-66.489 44.004-133.66 59.331-202.33 69.848-312.97 57.092-676.27-2.7246-959.99-55.825-264.77-158.66-516.43-296.99-748.49-157.41-264.07-285.31-388.36-411.92-501.36-102.06-86.419-277.64-194.91-373.72-238.94-76.504-35.059-156.42-59.072-239-74.424 45.652 23.415 163.03 40.111 426.86 219.11 23.482 15.933 50.908 31.504 71.763 50.571-190.17-66.932-291.06-27.138-510.22-132.03-64.488-30.865-178.28-99.726-268.07-77.227-10.664 2.6711-20.542 7.7004-31.245 10.19 67.94-131.03 350.82-222.88 596.04-94.736 3.281 1.7139 2.1582 0.9863 4.7754 3.6815-47.456-8.3808-96.077-57.105-291.27-26.157 121.65 12.896 227.78-1.5652 445.34 152.23 147.28 104.12 295.24 255.8 387.54 369.97 216.28 267.54 386.06 552.86 485.37 921.32 60.576 224.72 108.5 569.71 77.915 858.24-35.453 334.35-193.12 904.14-510.85 1022.3-68.052 25.302-157.53 27.227-229.23 19.409-111.11-12.119-218.6-70.947-288.61-158.03-118.9-147.89-121.94-376.17 31.968-499.43 73.804-59.112 171.18-89.522 265.61-77.754 43.315 5.3955 87.666 23.413 125.14 45.347 11.133 6.5134 24.204 18.037 35.991 22.031-8.4607-11.758-17.111-16.382-31.333-26.099-234.52-160.18-536.52 18.559-555.32 254.05-20.067 251.31 175.38 455.68 407.19 472.08 110.47 7.8081 167.06-15.108 216.36-27.515-90.127 52.314-198.98 55.156-298.01 28.496zm484.51 788.75c-13.525 18.164-33.667 49.512-52.49 60.449 2.3784-23.551 67.119-145.77-35.044-311.26-6.2891-10.186-12.417-21.104-23.286-26.885-69.102-36.753-62.051-123.45-76.841-189.11-6.3721-28.281-17.891-52.598-29.966-78.691-8.6721-18.735-6.1475-41.191-5.8496-61.498 18.35 33.408 41.304 64.057 58.442 98.247 33.53 66.894 43.98 142.98 59.775 215.39 6.2112-30.027-5.083-119.57-18.33-163.67-9.0869-30.239-22.344-58.296-33.726-87.602 13.544 10.713 36.483 52.168 46.265 68.169 72.016 117.8 123.02 258.19 108.77 398.26 16.025-26.396 24.673-66.65 27.256-97.285 10.95-129.87-55.338-296.28-135.05-401.57-14.26-18.837-33.076-29.194-49.755-50.62 12.69 3.9111 23.799 12.119 34.355 20.01 81.768 61.134 127.05 180.51 147.77 279.38 5.3364 25.454 6.7332 59.56 17.143 82.715 14.155-118.13-36.274-254.29-108.53-346.69-33.042-42.261-71.646-74.282-115.1-105.2 100.96 43.496 170.67 140.34 210.36 239.97 19.043 47.808 28.94 94.81 37.197 145.37 6.3381-118.2-34.795-242.66-113.94-331.52-69.906-78.515-126.66-89.955-176.64-103.61-2.832-0.7715-12.334-2.2705-13.579-4.707 280.15-46.145 498.43 406.36 240.78 751.97zm314.56-467.64c-36.039-102.18-89.814-97.598-152.32-116.04-69.542-20.529-79.846-46.246-131.32-107.7-8.3982-10.024-18.862-18.042-27.143-28.013 45.532-7.6323 109.65 71.429 148.4 103.39-23.917-75.582-47.614-75.778-57.9-94.941 11.255 2.2119 20.263 9.1011 29.609 15.454 39.868 27.085 66.045 61.943 92.876 101.18-27.154-99.213-76.387-114.24-117.51-148.12 35.058 2.0137 93.28 53.717 120.48 84.16l29.634 33.809c-34.64-78.82-61.289-85.294-72.104-103.38 21.742 6.3179 77.762 49.909 111.22 110.99 9.1897 16.782 11.792 31.148 17.09 48.994 0.8301 2.8076 0 2.2754 2.4219 2.2754-10.03-133.54-128.79-247.67-312.4-234.58l-97.231 12.09c15.947-10.415 40.244-13.003 58.774-17.036 73.208-15.947 147.18-29.482 221.66-13.448 145.29 31.294 238.92 218.99 135.78 350.91zm159.84-461.71c7.3049 47.803-18.374 88.379-44.17 125.99-1.6357-20.557-6.7922-43.911-18.76-61.104-14.738-21.169-57.665-33.53-87.998-12.578-4.3992 9.6045 8.374 23.335 10.068 34.365 2.6121 16.997-6.5623 28.13-16.431 40.659-77.963-69.034-96.193-66.866-145.76-70.435 37.319-17.085 87.685-19.937 128.17-26.318-72.359-10.414-83.06-2.0369-156.24 8.0713 26.396-10.932 52.363-19.053 80.386-24.663 89.995-11.837 142.47-29.408 207.16 30.312-19.866-45.415-82.588-61.33-132.09-63.808-124.25-6.219-230.24 70.244-310.53 98.198 13.145-11.1 110.85-75.961 188.59-116.5 85.378-44.528 174.05-80.118 253.03-25.899 21.582 14.82 40.503 37.1 44.565 63.716zm109.98-418.03c43.345 31.846 50.391 77.295 57.915 127.1-14.541-17.007-28.408-31.895-51.24-37.095-37.938-8.6409-93.614 11.307-121.38 63.13-7.6711 14.326-11.626 27.041-26.02 35.986-20.889 12.978-38.848 24.448-61.646 34.492 18.72-24.516 41.352-41.909 57.964-68.906l-42.945 30.107c-12.763 9.9021-25.913 22.144-41.621 26.816 4.0088-11.099 17.593-22.632 25.81-31.143 31.841-32.974 63.975-65.859 102.89-90.478-44.636 4.3171-97.06 68.682-116.54 75.215 6.1577-13.757 13.848-20.444 27.681-34.409 31.104-31.402 73.047-65.918 116.46-78.247 22.642-6.4355 41.797-0.6982 64.365-2.0164-167.73-56.466-246.86 138.08-276.94 163.35-0.3855-12.26 7.0264-27.148 11.152-38.735 14.292-40.142 28.389-80.688 52.803-116.03 48.517-70.228 146.64-113.98 221.29-59.141zm-7.7832-423.65c-48.78 1.5481-134.53 91.639-127.32 214.77 2.8958 49.404 14.6 102.55 31.485 148.92-113.16 28.987-125.49 78.052-147.17 97.906 5.6833-35.435 16.46-69.805 21.738-105.76 15.033-102.4 23.96-291.34 123.19-362.81 23.945-17.246 54.097-30.684 84.228-26.328 36.107 5.2163 68.682 34.744 74.706 58.325l-4.4722-1.8555c-15.653-14.652-26.047-24.143-56.387-23.169z"/> <path d="m817.34 536.17 73.569-13.052c-46.186-14.18-85.635-31.347-120.6-65.848-38.617-41.903-34.982-38.92-36.02-39.368-9.541-4.1188-25.484-3.3054-36.665-7.3157-61.69-22.132-123.59-52.951-175.31-93.449 95.623 131.55 121.61 123.45 158.06 150.8-102.69-29.391-129.42-76.795-170.87-108.43 33.73 68.761 89.204 100.56 99.346 111.48-59.839-14.542-144.16-122.06-175.31-130.73l67.28 85.448c13.012 15.108 32.436 31.279 42.422 47.858-29.292-8.2717-86.636-67.584-102.69-93.147-8.4131-13.398-11.577-28.996-19.414-42.283l-4.7316-0.4966-1.7479 3.5941c22.578 51.231 49.536 92.655 86.069 134.84-62.987-38.445-123.89-112.14-154.94-124.44 19.768 38.383 67.335 80.34 75.005 92.731-9.1992-3.2974-17.71-12.192-25.024-18.508-73.94-63.877-62.009-67.92-83.027-85.273l-2.9151 3.5079 33.618 56.254 31.113 36.512c-8.1055-1.7571-16.314-8.7374-22.754-13.939-39.845-32.176-59.488-71.408-81.606-83.473 9.7976 24.454 24.068 44.12 40.112 65.62-13.34-8.1042-26.24-16.235-37.368-27.301-10.674-10.614-22.1-28.205-34.912-35.629 4.6239 11.915 15.474 19.934 19.614 31.022-14.463-9.2813-26.938-21.871-39.443-33.597-51.773-48.554-87.344-106.91-117.96-170.25 16.215 107.44 67.768 198.01 155.8 262.88 163.81 120.7 366.3 134.24 561.28 103.98z"/> <path d="m1952 605.17c-3.2567 0.6494-7.0361 0.8057-9.7656 2.7391 4.0526-0.1465 6.0987-1.1571 9.7656-2.7391z"/> <path d="m2551 1375c14.668-3.9208 29.448-9.0575 44.267-12.153 84.883-17.735 182.43-15.986 267.08 0.0731l99.126 24.458 1.1814-2.2511c-120.49-46.844-312.5-93.588-411.66-10.127z"/> <path d="m3341.1 3405.6c2.0996 1.9043 3.8818 4.1409 6.626 4.9805-1.7285-1.4456-4.4726-4.4385-6.626-4.9805z"/> </svg>